<svg width="900" height="600" viewBox="0 0 900 600" fill="none" xmlns="http://www.w3.org/2000/svg">
<g clip-path="url(#clip0_292_2)">
<path fill-rule="evenodd" clip-rule="evenodd" d="M444.438 394.49H787.227V365.188H489.231V205H444.438V394.49Z" fill="white"/>
<path fill-rule="evenodd" clip-rule="evenodd" d="M137.84 234.269H366.948V394.49H411.742V234.269H434.122V205H137.84V234.269Z" fill="white"/>
<path fill-rule="evenodd" clip-rule="evenodd" d="M585.713 353.123H627.045V287.664L652.886 353.123H689.077V206.713H649.459V272.172L630.012 224.446C627.968 219.205 624.738 211.459 623.65 206.713H585.746V353.123H585.713Z" fill="white"/>
<path fill-rule="evenodd" clip-rule="evenodd" d="M232.57 394.486H275.65V335.915H291.141V394.486H334.221V337.629C326.409 330.674 321.399 326.95 315.268 320.39C323.772 314.161 327.233 312.381 334.221 308.327V266.994C323.08 259.875 316.125 255.425 303.205 246.328H232.57V394.486ZM275.65 275.63H291.141V306.646H275.65V275.63Z" fill="white"/>
<path fill-rule="evenodd" clip-rule="evenodd" d="M112 394.486H155.079C155.079 382.422 156.793 378.005 156.793 366.931H180.92L182.997 394.453H225.714C214.145 324.741 208.574 294.714 199.873 246.328H136.127C127.228 306.943 121.361 334.992 112 394.486ZM168.857 279.058C172.779 304.635 173.768 315.413 177.46 337.629H160.221C163.484 319.105 164.869 306.086 168.824 279.058" fill="white"/>
<path fill-rule="evenodd" clip-rule="evenodd" d="M707.994 353.123H787.264V323.855H751.074V289.411H780.342V260.109H751.074V234.268H787.264V206.713H707.994V353.123Z" fill="white"/>
<path d="M565.046 206.713H521.967V353.123H565.046V206.713Z" fill="white"/>
</g>
<defs>
<clipPath id="clip0_292_2">
<rect width="675.262" height="189.49" fill="white" transform="translate(112 205)"/>
</clipPath>
</defs>
</svg>
