<svg width="900" height="600" viewBox="0 0 900 600" fill="none" xmlns="http://www.w3.org/2000/svg">
<g clip-path="url(#clip0_292_58)">
<path fill-rule="evenodd" clip-rule="evenodd" d="M564.07 284.355V284.197L563.859 284.329L564.07 284.355Z" fill="white"/>
<path d="M514.756 294.61V253.596H526.828V288.547H548.864V253.596H561.385L560.937 294.61H514.756Z" fill="white"/>
<path d="M618.344 294.606V254.014H630.864L630.442 288.544L660.65 288.992L655.035 295.028L618.344 294.606Z" fill="white"/>
<path d="M665.279 253.994L665.172 295.008L677.271 295.039L677.378 254.025L665.279 253.994Z" fill="white"/>
<path d="M802.67 295.475V254.461H848.007L842.393 260.497H814.769V269.143H846.267L841.101 275.179H814.769V295.475H802.67Z" fill="white"/>
<path d="M463.805 294.162V253.596H506.111C507.85 253.596 508.694 255.309 509.142 256.627V281.246H475.903V294.188H463.805V294.162ZM497.043 275.157V261.345C497.043 259.606 496.173 259.606 495.752 259.606H475.903V275.157H497.043Z" fill="white"/>
<path d="M566.553 253.596H604.984C606.723 253.596 608.015 254.887 608.015 257.497V269.569H611.468V294.61H566.131L566.553 253.596ZM599.369 275.605H578.651V288.547H599.369V275.605ZM599.369 269.569V261.793C599.369 261.793 599.369 260.054 598.078 260.054H578.651V269.543H599.369V269.569Z" fill="white"/>
<path d="M412.457 294.162V253.174L458.638 253.596L452.153 259.632H424.529V270.439H455.606V276.897H424.529V288.126H452.153L458.19 294.162H412.457Z" fill="white"/>
<path d="M684.4 295.028V254.014L730.581 254.462L724.545 260.498L696.921 260.076V288.992H730.581L724.545 295.028H684.4Z" fill="white"/>
<path d="M629.153 358.501L621.377 352.016H656.777V339.918H622.669L623.09 317.486L670.167 317.908L664.553 323.944H635.189V333.882H669.297V358.501H629.153Z" fill="white"/>
<path d="M442.663 358.051V340.786H420.653V358.051H408.133V317.037H451.73C453.47 317.037 454.762 319.199 454.762 320.912V358.025H442.663V358.051ZM442.663 334.302V324.813C442.663 324.391 442.663 323.1 441.371 323.1H421.075V334.329H442.663V334.302Z" fill="white"/>
<path d="M517.789 358.501L518.211 317.486H564.391L557.907 323.523H530.283V334.303L561.808 334.751V341.209L530.283 340.788V352.438H557.907L564.391 358.501H517.789Z" fill="white"/>
<path d="M353.73 357.63V317.037H402.521L396.036 323.521L366.251 323.1V351.594H388.287V335.62H400.359V358.051L353.73 357.63Z" fill="white"/>
<path d="M474.162 358.051V334.75L486.683 342.948L498.781 334.75V358.5H511.302V317.485L486.683 333.459L462.09 317.037V358.051H474.162Z" fill="white"/>
<path d="M604.979 340.788H616.208V321.361C616.208 319.648 614.916 317.486 613.176 317.486H568.709V358.501H581.229V323.523H602.817C603.687 323.523 604.109 324.814 604.109 325.236V333.012H583.813L605.822 358.053H620.504L604.952 340.788H604.979Z" fill="white"/>
<path d="M392.162 274.314H371.443L405.104 309.714V295.901L392.162 282.089H404.682V257.049C404.682 255.335 404.682 253.174 402.099 253.174H353.309V281.668L366.251 295.48V259.21H389.552C391.292 259.21 391.292 259.632 391.292 261.371L392.162 274.314Z" fill="white"/>
<path d="M254.014 270.861C211.708 290.709 140.486 341.213 140.486 341.213C140.486 341.213 160.335 351.994 184.084 358.926C209.546 366.702 232.426 370.577 244.525 367.993C271.727 362.379 300.643 303.678 310.132 277.767C310.132 277.767 269.987 294.61 257.467 300.225C246.66 305.418 204.802 325.266 204.802 325.266L270.409 306.261C269.117 308.844 251.852 347.697 229.816 352.02C206.937 356.765 166.371 340.369 166.371 340.369C169.824 337.786 232.848 295.48 312.715 265.695C316.168 264.403 320.912 256.206 320.912 251.883C320.491 251.883 285.091 254.914 254.014 270.888" fill="white"/>
<path d="M131.867 344.242C128.835 339.498 132.736 332.592 153.876 317.04C173.303 302.806 242.811 244.527 309.71 228.975C309.71 228.975 274.731 223.361 225.098 238.913C207.411 244.527 181.079 269.12 133.158 316.17C126.674 319.623 103.373 306.233 89.9824 299.775C89.9824 299.775 112.44 335.175 120.19 345.956C132.288 362.351 153.85 371.84 153.85 371.84C153.85 371.84 138.746 356.315 131.84 344.216" fill="white"/>
<path d="M52 290.705C52 290.705 62.7808 319.621 70.1349 323.944C77.4626 328.266 87.3999 333.881 108.118 338.625C108.118 338.625 94.7276 328.266 80.9156 316.168C67.1036 304.517 52 290.705 52 290.705Z" fill="white"/>
<path d="M792.315 254.461H750.879V283.825L760.816 295.054H794.924V257.492C795.346 255.779 794.055 254.461 792.341 254.461M783.274 288.991H770.332L763.426 281.215V260.497H783.274V288.991Z" fill="white"/>
</g>
<defs>
<clipPath id="clip0_292_58">
<rect width="796.01" height="143.866" fill="white" transform="translate(52 228)"/>
</clipPath>
</defs>
</svg>
