<svg width="245" height="245" viewBox="0 0 245 245" fill="none" xmlns="http://www.w3.org/2000/svg">
<path d="M142.164 122L207.22 56.9367C209.01 55.1457 209.997 52.7562 210 50.2083C210 47.659 209.013 45.2667 207.22 43.4785L201.519 37.7785C199.727 35.9832 197.338 35 194.787 35C192.241 35 189.851 35.9832 188.059 37.7785L123.003 102.838L57.9438 37.7785C56.1543 35.9832 53.7636 35 51.2144 35C48.668 35 46.2773 35.9832 44.4878 37.7785L38.784 43.4785C35.072 47.1907 35.072 53.2287 38.784 56.9367L103.842 122L38.784 187.06C36.9931 188.854 36.0071 191.244 36.0071 193.792C36.0071 196.34 36.9931 198.729 38.784 200.522L44.4864 206.221C46.2759 208.015 48.668 209 51.213 209C53.7621 209 56.1529 208.015 57.9424 206.221L123.001 141.161L188.058 206.221C189.85 208.015 192.239 209 194.786 209H194.788C197.336 209 199.726 208.015 201.518 206.221L207.219 200.522C209.008 198.731 209.996 196.34 209.996 193.792C209.996 191.244 209.008 188.854 207.219 187.062L142.164 122Z" fill="black"/>
</svg>
