<svg width="246" height="246" viewBox="0 0 246 246" fill="none" xmlns="http://www.w3.org/2000/svg">
<path d="M82.2728 92.0438V132.953M61.8183 112.498H102.727M174.318 102.436L174.483 102.271M143.636 122.89L143.801 122.726M165.969 51.1348H80.3952C57.8065 51.1348 38.4501 67.2283 34.4094 89.3689L21.3704 160.813C19.3351 171.965 24.1464 183.256 33.6134 189.543C44.9279 197.057 59.9936 195.571 69.6091 185.993L82.2334 173.415C86.0071 169.656 91.1251 167.544 96.4618 167.544H149.902C155.238 167.544 160.357 169.656 164.13 173.415L176.754 185.993C186.37 195.571 201.436 197.057 212.75 189.543C222.218 183.256 227.029 171.965 224.993 160.813L211.955 89.3689C207.914 67.2283 188.558 51.1348 165.969 51.1348Z" stroke="#FFED00" stroke-width="15.3409" stroke-linecap="round" stroke-linejoin="round"/>
</svg>
