<svg width="900" height="600" viewBox="0 0 900 600" fill="none" xmlns="http://www.w3.org/2000/svg">
<path d="M267.864 262.997C263.661 260.53 258.727 259.251 253.063 259.251C246.85 259.251 241.734 260.622 237.623 263.363C233.511 266.103 230.588 269.849 228.761 274.691H227.847V233.213H205.92V341.752H228.486V294.7C228.486 291.228 229.217 288.213 230.496 285.746C231.867 283.28 233.694 281.361 235.978 279.99C238.354 278.711 241.094 278.072 244.109 278.072C248.678 278.072 252.241 279.442 254.799 282.275C257.357 285.107 258.636 288.944 258.636 293.969V341.752H281.203V289.949C281.203 283.554 280.106 278.163 277.731 273.595C275.355 268.936 272.066 265.464 267.864 262.997Z" fill="white"/>
<path d="M347.801 265.829C344.604 263.636 340.858 261.991 336.747 260.895C332.635 259.799 328.25 259.342 323.773 259.342C317.286 259.342 311.531 260.347 306.597 262.265C301.663 264.184 297.643 267.016 294.537 270.671C291.431 274.234 289.329 278.528 288.324 283.461L309.155 285.197C309.977 282.548 311.531 280.264 313.906 278.528C316.281 276.701 319.57 275.787 323.59 275.787C327.428 275.787 330.443 276.701 332.453 278.528C334.554 280.355 335.65 283.005 335.65 286.294V286.568C335.65 288.304 335.011 289.583 333.732 290.496C332.452 291.41 330.351 292.05 327.428 292.506C324.504 292.963 320.758 293.42 316.007 293.877C311.987 294.242 308.15 294.973 304.496 295.887C300.841 296.8 297.643 298.262 294.72 300.089C291.888 301.917 289.603 304.475 287.959 307.49C286.314 310.596 285.492 314.342 285.492 318.91C285.492 324.301 286.68 328.777 288.964 332.34C291.339 335.904 294.537 338.644 298.648 340.472C302.668 342.299 307.328 343.213 312.535 343.213C316.555 343.213 320.119 342.664 323.225 341.659C326.331 340.563 328.889 339.101 331.082 337.183C333.275 335.264 335.011 332.98 336.29 330.422H336.929V341.751H358.308V286.842C358.308 282 357.394 277.888 355.476 274.417C353.649 270.945 351.09 268.021 347.801 265.829ZM335.924 312.697C335.924 315.53 335.193 318.088 333.732 320.372C332.27 322.656 330.26 324.392 327.702 325.762C325.144 327.041 322.22 327.681 318.931 327.681C315.459 327.681 312.627 326.859 310.343 325.306C308.15 323.661 306.962 321.286 306.962 318.271C306.962 316.169 307.511 314.342 308.607 312.972C309.703 311.51 311.256 310.413 313.175 309.5C315.185 308.678 317.469 308.038 320.119 307.673C321.398 307.49 322.768 307.307 324.23 307.124C325.783 306.85 327.245 306.576 328.798 306.302C330.351 306.028 331.722 305.663 332.909 305.297C334.188 304.932 335.102 304.475 335.833 304.018V312.697H335.924Z" fill="white"/>
<path d="M458.714 259.341C452.776 259.341 447.568 260.712 443.183 263.544C438.797 266.376 435.874 270.031 434.138 274.69H433.315C432.036 269.939 429.387 266.194 425.458 263.453C421.53 260.62 416.779 259.25 411.206 259.25C405.724 259.25 400.973 260.62 397.045 263.361C393.116 266.102 390.284 269.848 388.548 274.69H387.634V260.346H366.164V341.75H388.731V292.871C388.731 289.856 389.279 287.298 390.466 285.014C391.654 282.73 393.207 280.994 395.217 279.807C397.227 278.527 399.511 277.888 401.978 277.888C405.724 277.888 408.648 279.076 410.932 281.451C413.216 283.827 414.403 287.024 414.403 290.953V341.75H436.33V292.049C436.33 287.846 437.518 284.375 439.802 281.817C442.086 279.167 445.284 277.888 449.395 277.888C452.958 277.888 455.973 278.984 458.44 281.268C460.816 283.552 462.003 286.933 462.003 291.41V341.659H484.478V287.024C484.478 278.162 482.103 271.401 477.352 266.559C472.51 261.717 466.297 259.341 458.714 259.341Z" fill="white"/>
<path d="M555.379 264.001C550.354 260.895 544.872 259.342 538.934 259.342C534.366 259.342 530.528 260.164 527.513 261.717C524.498 263.27 522.032 265.189 520.113 267.473C518.286 269.757 516.824 271.95 515.819 274.143H514.814V260.438H492.521V372.357H515.088V328.777H515.819C516.824 331.061 518.286 333.254 520.296 335.538C522.214 337.731 524.772 339.558 527.787 341.02C530.894 342.482 534.548 343.213 538.934 343.213C545.146 343.213 550.719 341.659 555.653 338.462C560.678 335.264 564.607 330.513 567.53 324.301C570.454 318.088 571.915 310.413 571.915 301.277C571.915 291.958 570.454 284.192 567.439 277.98C564.424 271.676 560.404 267.016 555.379 264.001ZM546.791 313.611C545.512 317.174 543.593 320.006 541.035 322.108C538.477 324.118 535.37 325.123 531.716 325.123C528.061 325.123 524.955 324.118 522.488 322.199C519.93 320.189 518.012 317.357 516.641 313.794C515.271 310.231 514.631 305.937 514.631 301.094C514.631 296.252 515.271 292.05 516.641 288.486C518.012 284.923 519.93 282.182 522.397 280.264C524.955 278.345 528.061 277.34 531.716 277.34C535.462 277.34 538.568 278.345 541.126 280.355C543.684 282.365 545.603 285.197 546.882 288.761C548.161 292.324 548.801 296.435 548.801 301.186C548.801 305.754 548.161 309.957 546.791 313.611Z" fill="white"/>
<path d="M588.543 227C585.163 227 582.331 228.096 579.864 230.38C577.489 232.573 576.301 235.314 576.301 238.42C576.301 241.527 577.489 244.268 579.864 246.552C582.239 248.744 585.163 249.932 588.543 249.932C591.924 249.932 594.756 248.836 597.131 246.552C599.507 244.268 600.695 241.618 600.695 238.42C600.695 235.314 599.507 232.664 597.131 230.38C594.756 228.188 591.924 227 588.543 227Z" fill="white"/>
<path d="M599.779 260.35H577.213V341.754H599.779V260.35Z" fill="white"/>
<path d="M666.292 264.641C660.354 261.078 653.228 259.342 645.005 259.342C636.782 259.342 629.656 261.078 623.626 264.641C617.688 268.113 613.028 273.046 609.83 279.35C606.541 285.654 604.988 292.963 604.988 301.369C604.988 309.683 606.633 316.992 609.83 323.387C613.12 329.691 617.688 334.624 623.626 338.096C629.656 341.568 636.782 343.304 645.005 343.304C653.228 343.304 660.354 341.568 666.292 338.096C672.322 334.533 676.891 329.691 680.18 323.387C683.469 317.083 685.022 309.774 685.022 301.369C685.022 292.963 683.377 285.654 680.18 279.35C676.891 273.046 672.231 268.113 666.292 264.641ZM660.08 313.885C658.801 317.631 656.882 320.555 654.415 322.656C651.949 324.757 648.751 325.854 645.005 325.854C641.259 325.854 638.061 324.757 635.503 322.656C632.945 320.463 631.027 317.54 629.747 313.885C628.468 310.139 627.829 305.937 627.829 301.186C627.829 296.435 628.468 292.232 629.747 288.486C631.027 284.741 632.945 281.817 635.503 279.716C638.061 277.523 641.259 276.518 645.005 276.518C648.751 276.518 651.857 277.614 654.415 279.716C656.882 281.908 658.801 284.832 660.08 288.486C661.359 292.232 661.998 296.435 661.998 301.186C662.09 305.937 661.45 310.139 660.08 313.885Z" fill="white"/>
<path d="M751.717 262.996C747.514 260.529 742.58 259.25 736.916 259.25C730.886 259.25 725.77 260.62 721.476 263.453C717.273 266.194 714.258 269.939 712.431 274.69H711.517V260.346H690.047V341.75H712.613V294.699C712.613 291.227 713.344 288.212 714.532 285.745C715.811 283.278 717.638 281.36 719.922 279.989C722.298 278.71 724.947 278.071 727.962 278.071C732.439 278.071 736.002 279.441 738.652 282.273C741.21 285.106 742.489 288.943 742.489 293.968V341.75H765.056V289.948C765.056 283.644 763.868 278.162 761.584 273.594C759.208 269.026 755.919 265.463 751.717 262.996Z" fill="white"/>
<path d="M836.867 302.374C832.938 298.81 827.091 296.161 819.142 294.516L804.433 291.501C800.687 290.679 797.946 289.583 796.393 288.304C794.84 286.933 794.017 285.289 794.017 283.37C794.017 280.903 795.205 278.985 797.581 277.523C799.956 276.061 802.971 275.33 806.443 275.33C809.092 275.33 811.285 275.787 813.204 276.609C815.122 277.432 816.675 278.619 817.772 280.081C818.959 281.452 819.69 283.096 820.056 284.832L840.704 283.553C839.699 276.061 836.227 270.123 830.288 265.829C824.35 261.443 816.31 259.342 805.986 259.342C799.042 259.342 792.921 260.347 787.805 262.448C782.689 264.458 778.669 267.382 775.745 271.219C772.913 274.965 771.542 279.533 771.542 284.741C771.542 290.77 773.461 295.795 777.298 299.724C781.227 303.653 787.074 306.393 795.023 307.947L809.092 310.779C812.655 311.51 815.214 312.515 816.949 313.885C818.685 315.164 819.508 316.9 819.508 318.91C819.508 321.377 818.229 323.387 815.762 324.94C813.386 326.493 810.189 327.224 806.26 327.224C802.24 327.224 798.951 326.402 796.393 324.666C793.835 322.93 792.19 320.463 791.551 317.174L769.35 318.362C770.446 326.128 774.192 332.249 780.496 336.817C786.891 341.294 795.479 343.578 806.26 343.578C813.295 343.578 819.599 342.482 824.989 340.198C830.471 337.914 834.674 334.807 837.78 330.787C840.886 326.767 842.531 322.108 842.531 316.717C842.714 310.688 840.704 305.937 836.867 302.374Z" fill="white"/>
<path d="M156.032 252.49C145.799 240.521 130.633 233.029 113.731 233.029C82.942 233.029 58 257.971 58 288.76C58 319.55 82.942 344.492 113.731 344.492C131.273 344.492 146.987 336.36 157.22 323.661C167.361 334.807 182.253 341.751 198.698 341.751H204.18V311.601H197.328C184.446 311.601 174.03 301.003 174.03 287.847C174.03 274.691 184.446 264.093 197.328 264.093H204.18V233.029H198.698C181.522 233.029 166.265 240.612 156.032 252.49ZM152.926 298.81H91.7128C95.2759 307.398 103.773 313.428 113.731 313.428C120.035 313.428 125.791 310.962 129.994 307.033H150.002C149.454 308.221 148.814 309.317 148.175 310.413C141.14 322.108 128.349 329.874 113.731 329.874C91.53 329.874 73.5316 311.875 73.5316 289.674C73.5316 267.473 91.53 249.475 113.731 249.475C127.527 249.475 139.769 256.418 146.987 267.108C151.372 273.503 153.931 281.36 153.931 289.674C153.931 292.78 153.565 295.887 152.926 298.81Z" fill="#FFED00"/>
<path d="M113.731 265.921C103.498 265.921 94.7276 272.316 91.3472 281.452H136.023C132.734 272.316 123.964 265.921 113.731 265.921Z" fill="#FFED00"/>
</svg>
