<svg width="246" height="246" viewBox="0 0 246 246" fill="none" xmlns="http://www.w3.org/2000/svg">
<path d="M204.545 71.5918H40.9091C29.6124 71.5918 20.4546 80.7496 20.4546 92.0463V194.319C20.4546 205.616 29.6124 214.774 40.9091 214.774H204.545C215.842 214.774 225 205.616 225 194.319V92.0463C225 80.7496 215.842 71.5918 204.545 71.5918Z" stroke="#FFED00" stroke-width="15.3409" stroke-linecap="round" stroke-linejoin="round"/>
<path d="M163.636 214.772V51.1362C163.636 45.7113 161.481 40.5086 157.645 36.6727C153.809 32.8366 148.606 30.6816 143.182 30.6816H102.273C96.8478 30.6816 91.6451 32.8366 87.8091 36.6727C83.9731 40.5086 81.8181 45.7113 81.8181 51.1362V214.772" stroke="#FFED00" stroke-width="15.3409" stroke-linecap="round" stroke-linejoin="round"/>
</svg>
