<svg width="900" height="600" viewBox="0 0 900 600" fill="none" xmlns="http://www.w3.org/2000/svg">
<path d="M559.424 263.73H646.802V336.089H559.424V263.73ZM532.961 329.922C532.961 334.769 532.961 345.367 539.133 351.326C544.642 356.628 553.909 356.835 561.216 356.835H645.038C652.323 356.835 661.589 356.628 667.105 351.326C673.294 345.367 673.294 334.775 673.294 329.922V269.907C673.294 265.055 673.294 254.463 667.105 248.51C661.589 243.208 652.317 243 645.033 243H561.21C553.904 243 544.642 243.208 539.127 248.51C532.955 254.468 532.955 265.055 532.955 269.907L532.961 329.922Z" fill="#F9D004"/>
<path d="M52 243V356.835H78.4637V307.856H161.421V356.835H187.913V243H161.421V287.121H78.4637V243H52Z" fill="#F9D004"/>
<path d="M267.577 311.395L293.17 265.055L317.882 311.395H267.577ZM281.488 243L217.064 356.835H243.747L256.771 332.124H329.148L342.604 356.835H372.376L307.07 243H281.488Z" fill="#F9D004"/>
<path d="M451.74 263.73H504.016V243H372.967V263.73H425.254V356.835H451.74V263.73Z" fill="#F9D004"/>
<path d="M799.465 262.404C800.56 262.404 804.975 262.404 807.176 264.179C810.046 266.38 810.046 269.688 810.046 271.452V285.358C810.046 287.127 810.046 290.435 807.176 292.642C805.188 293.956 801.672 294.4 799.892 294.4H739.22V262.404H799.465ZM712.762 243V356.835H739.225V313.81H764.156L810.046 356.835H848.001L795.478 313.81H810.934C815.999 313.81 825.047 313.377 830.332 308.738C833.432 306.098 836.527 301.021 836.527 292.198V265.055C836.527 260.427 836.072 252.71 829.686 247.633C824.401 243.432 816.23 243 810.934 243H712.762Z" fill="#F9D004"/>
</svg>
