<svg width="381" height="381" viewBox="0 0 381 381" fill="none" xmlns="http://www.w3.org/2000/svg">
<path fill-rule="evenodd" clip-rule="evenodd" d="M119.201 46.7871H261.982C301.644 46.7871 333.373 78.5163 333.373 118.178V260.959C333.373 300.62 301.644 332.35 261.982 332.35H119.201C79.5397 332.35 47.8105 300.62 47.8105 260.959V118.178C47.8105 78.5163 79.5397 46.7871 119.201 46.7871Z" stroke="white" stroke-width="23.8" stroke-linecap="round" stroke-linejoin="round"/>
<path d="M269.915 105.485C266.742 105.485 265.155 108.658 265.155 110.245C265.155 113.418 268.328 115.004 269.915 115.004C273.088 115.004 274.674 111.831 274.674 110.245C274.674 108.658 273.088 105.485 269.915 105.485" stroke="white" stroke-width="23.8" stroke-linecap="round" stroke-linejoin="round"/>
<circle cx="190.599" cy="189.575" r="57.1125" stroke="white" stroke-width="23.8" stroke-linecap="round" stroke-linejoin="round"/>
</svg>
