<svg width="900" height="600" viewBox="0 0 900 600" fill="none" xmlns="http://www.w3.org/2000/svg">
<path d="M376.943 396.389C429.954 396.389 472.928 353.415 472.928 300.404C472.928 247.392 429.954 204.418 376.943 204.418C323.931 204.418 280.957 247.392 280.957 300.404C280.957 353.415 323.931 396.389 376.943 396.389Z" fill="#FFED00"/>
<path d="M504.328 345.118C485.83 397.657 435.729 435.431 376.941 435.431H376.408C301.954 435.431 241.379 374.856 241.379 300.402C241.379 225.948 301.954 165.374 376.408 165.374H376.941C435.142 165.374 484.86 202.39 503.795 254.113H513.723C494.426 197.074 440.496 156 376.941 156H376.408C296.653 156 232 220.653 232 300.408C232 380.162 296.653 444.815 376.408 444.815H376.941C441.082 444.815 495.423 402.984 514.257 345.124H504.328V345.118Z" fill="white"/>
<path d="M547.814 365.051V367.768H532.18V344.188H535.295V365.051H547.814Z" fill="white"/>
<path d="M373.459 266.465L347.758 292.348L375.853 332.051H357.798L337.904 302.575L329.522 310.866V332.051H315.338V266.465H329.522V293.729L355.314 266.465H373.459Z" fill="black"/>
<path d="M411.498 264.902C421.08 264.902 428.828 268.08 434.758 274.436C440.682 280.792 443.646 289.1 443.646 299.354C443.646 309.608 440.682 317.883 434.758 324.181C428.828 330.478 421.048 333.624 411.408 333.624C401.703 333.624 393.875 330.478 387.919 324.181C381.963 317.889 378.982 309.613 378.982 299.354C378.982 288.977 381.942 280.638 387.871 274.346C393.801 268.048 401.676 264.902 411.498 264.902ZM411.317 276.692C405.91 276.692 401.596 278.718 398.376 282.771C395.15 286.823 393.539 292.257 393.539 299.077C393.539 306.142 395.134 311.666 398.328 315.66C401.522 319.654 405.91 321.68 411.498 321.739C416.964 321.739 421.262 319.712 424.397 315.66C427.527 311.607 429.095 306.078 429.095 299.077C429.095 292.198 427.495 286.749 424.306 282.728C421.112 278.702 416.783 276.692 411.317 276.692Z" fill="black"/>
<path d="M542.984 266.465V332.051H528.613V278.718H511.017L510.095 306.537C509.481 324.405 503.403 333.342 491.853 333.342C488.659 333.342 485.956 332.974 483.748 332.238V320.63C485.22 321.366 486.91 321.733 488.814 321.733C491.085 321.733 492.834 320.704 494.066 318.646C495.292 316.588 496.002 312.493 496.183 306.35L497.287 266.465H542.984Z" fill="white"/>
<path d="M586.918 264.902C596.5 264.902 604.248 268.08 610.178 274.436C616.102 280.792 619.066 289.1 619.066 299.354C619.066 309.608 616.102 317.883 610.178 324.181C604.253 330.473 596.468 333.619 586.828 333.619C577.123 333.619 569.295 330.473 563.339 324.175C557.383 317.883 554.402 309.608 554.402 299.349C554.402 288.972 557.362 280.632 563.291 274.34C569.215 268.048 577.091 264.902 586.918 264.902ZM586.737 276.692C581.33 276.692 577.016 278.718 573.796 282.771C570.57 286.823 568.959 292.257 568.959 299.077C568.959 306.142 570.554 311.666 573.748 315.66C576.942 319.654 581.33 321.68 586.918 321.739C592.384 321.739 596.682 319.712 599.817 315.66C602.947 311.607 604.515 306.078 604.515 299.077C604.515 292.198 602.915 286.749 599.726 282.728C596.527 278.702 592.197 276.692 586.737 276.692Z" fill="white"/>
<path d="M567.881 344.021V346.714H554.785V354.035H567.027V356.627H554.785V364.7H568.046V367.393H551.697V344.021H567.881Z" fill="white"/>
<path d="M583.867 344.021L592.99 367.393H589.545L586.954 360.237H577.137L574.477 367.393H571.197L580.39 344.021H583.867ZM586.037 357.773L582.064 346.976L578.028 357.773H586.037Z" fill="white"/>
<path d="M617.906 355.019V367.395H615.939L615.15 364.473C613.267 366.792 610.75 367.955 607.599 367.955C604.272 367.955 601.584 366.846 599.542 364.622C597.494 362.399 596.471 359.498 596.471 355.909C596.471 352.342 597.484 349.388 599.505 347.047C601.526 344.706 604.304 343.533 607.828 343.533C609.449 343.533 610.958 343.81 612.361 344.37C613.763 344.93 614.952 345.805 615.939 346.994C616.925 348.188 617.48 349.591 617.613 351.212H614.595C614.355 349.681 613.614 348.45 612.377 347.516C611.14 346.589 609.625 346.119 607.828 346.119C605.29 346.119 603.275 346.988 601.787 348.727C600.299 350.465 599.553 352.822 599.553 355.803C599.553 358.735 600.294 361.066 601.787 362.793C603.275 364.521 605.274 365.385 607.796 365.385C610.159 365.385 611.961 364.67 613.198 363.236C614.435 361.801 615.086 359.903 615.15 357.541H607.663V355.013H617.906V355.019Z" fill="white"/>
<path d="M624.67 344.021H627.789V358.76C627.789 361.037 628.28 362.7 629.266 363.751C630.253 364.801 631.858 365.329 634.092 365.329C636.39 365.329 638.017 364.796 638.966 363.719C639.92 362.647 640.395 360.994 640.395 358.76V344.021H643.514V357.939C643.514 361.351 642.805 363.863 641.381 365.473C639.957 367.083 637.531 367.883 634.092 367.883C630.765 367.883 628.365 367.099 626.888 365.537C625.411 363.975 624.67 361.549 624.67 358.264V344.021Z" fill="white"/>
<path d="M667.011 344.021V346.714H653.915V354.035H666.158V356.627H653.915V364.7H667.177V367.393H650.828V344.021H667.011Z" fill="white"/>
</svg>
