<svg width="54" height="55" viewBox="0 0 54 55" fill="none" xmlns="http://www.w3.org/2000/svg">
<path d="M22.6929 34.0226C26.6614 34.0226 29.8785 30.8055 29.8785 26.837C29.8785 22.8685 26.6614 19.6515 22.6929 19.6515C18.7244 19.6515 15.5073 22.8685 15.5073 26.837C15.5073 30.8055 18.7244 34.0226 22.6929 34.0226Z" fill="#FFED00"/>
<path d="M32.2295 30.1855C30.8447 34.1186 27.094 36.9463 22.6931 36.9463H22.6532C17.0795 36.9463 12.5448 32.4117 12.5448 26.838C12.5448 21.2643 17.0795 16.7297 22.6532 16.7297H22.6931C27.0502 16.7297 30.772 19.5007 32.1895 23.3727H32.9328C31.4882 19.1027 27.4509 16.0278 22.6931 16.0278H22.6532C16.6827 16.0278 11.8427 20.8679 11.8427 26.8384C11.8427 32.8089 16.6827 37.6489 22.6532 37.6489H22.6931C27.4948 37.6489 31.5628 34.5174 32.9727 30.1859H32.2295V30.1855Z" fill="white"/>
<path d="M22.4318 24.2968L20.5077 26.2344L22.611 29.2066H21.2594L19.7701 27L19.1426 27.6207V29.2066H18.0808V24.2968H19.1426V26.3378L21.0734 24.2968H22.4318Z" fill="black"/>
<path d="M25.2796 24.1802C25.9969 24.1802 26.577 24.4181 27.0208 24.8939C27.4643 25.3697 27.6862 25.9916 27.6862 26.7592C27.6862 27.5269 27.4643 28.1464 27.0208 28.6178C26.577 29.0892 25.9945 29.3248 25.2728 29.3248C24.5464 29.3248 23.9604 29.0892 23.5145 28.6178C23.0686 28.1468 22.8455 27.5272 22.8455 26.7592C22.8455 25.9825 23.067 25.3581 23.5108 24.8871C23.9547 24.4157 24.5444 24.1802 25.2796 24.1802ZM25.2661 25.0628C24.8613 25.0628 24.5383 25.2144 24.2973 25.5178C24.0557 25.8212 23.9352 26.228 23.9352 26.7385C23.9352 27.2674 24.0545 27.6809 24.2936 27.9799C24.5327 28.2789 24.8613 28.4306 25.2796 28.435C25.6888 28.435 26.0105 28.2833 26.2452 27.9799C26.4795 27.6765 26.5969 27.2626 26.5969 26.7385C26.5969 26.2236 26.4771 25.8156 26.2384 25.5146C25.9993 25.2132 25.6752 25.0628 25.2661 25.0628Z" fill="black"/>
<path d="M35.1235 24.2975V29.2074H34.0478V25.2148H32.7305L32.6614 27.2973C32.6156 28.6349 32.1604 29.304 31.2959 29.304C31.0568 29.304 30.8544 29.2764 30.6891 29.2214V28.3523C30.7993 28.4075 30.9258 28.4349 31.0683 28.4349C31.2384 28.4349 31.3693 28.3579 31.4615 28.2038C31.5533 28.0498 31.6064 27.7432 31.6199 27.2834L31.7026 24.2975H35.1235Z" fill="white"/>
<path d="M38.4127 24.1809C39.13 24.1809 39.71 24.4188 40.1539 24.8946C40.5974 25.3705 40.8194 25.9924 40.8194 26.7599C40.8194 27.5276 40.5974 28.1471 40.1539 28.6185C39.7104 29.0895 39.1276 29.325 38.4059 29.325C37.6794 29.325 37.0934 29.0895 36.6476 28.6181C36.2017 28.1471 35.9785 27.5276 35.9785 26.7596C35.9785 25.9827 36.2 25.3585 36.6439 24.8874C37.0874 24.4163 37.677 24.1809 38.4127 24.1809ZM38.3991 25.0634C37.9944 25.0634 37.6714 25.2152 37.4303 25.5185C37.1888 25.8219 37.0683 26.2286 37.0683 26.7392C37.0683 27.2681 37.1876 27.6816 37.4267 27.9806C37.6658 28.2796 37.9944 28.4313 38.4127 28.4357C38.8218 28.4357 39.1435 28.284 39.3783 27.9806C39.6126 27.6772 39.73 27.2633 39.73 26.7392C39.73 26.2242 39.6102 25.8163 39.3715 25.5153C39.132 25.214 38.8079 25.0634 38.3991 25.0634Z" fill="white"/>
<path d="M35.3999 31.6498V31.8514H34.2399V30.1018H34.4709V31.6498H35.3999Z" fill="white"/>
<path d="M36.9871 30.1018V30.3034H36.0066V30.8514H36.9231V31.0455H36.0066V31.6498H36.9994V31.8514H35.7755V30.1018H36.9871Z" fill="white"/>
<path d="M38.1836 30.1018L38.8665 31.8514H38.6086L38.4146 31.3157H37.6798L37.4805 31.8514H37.2351L37.9233 30.1018H38.1836ZM38.346 31.1313L38.0486 30.323L37.7464 31.1313H38.346Z" fill="white"/>
<path d="M40.7317 30.9251V31.8516H40.5844L40.5253 31.6328C40.3845 31.8064 40.196 31.8935 39.9601 31.8935C39.711 31.8935 39.5099 31.8105 39.3569 31.644C39.2037 31.4776 39.1271 31.2604 39.1271 30.9918C39.1271 30.7247 39.2029 30.5036 39.3542 30.3283C39.5055 30.153 39.7134 30.0653 39.9773 30.0653C40.0987 30.0653 40.2116 30.086 40.3166 30.1279C40.4216 30.1699 40.5106 30.2353 40.5844 30.3243C40.6583 30.4138 40.6998 30.5187 40.7098 30.64H40.4838C40.4659 30.5255 40.4104 30.4333 40.3178 30.3635C40.2252 30.294 40.1118 30.2589 39.9773 30.2589C39.7873 30.2589 39.6364 30.3239 39.5251 30.454C39.4136 30.5842 39.3578 30.7606 39.3578 30.9838C39.3578 31.2033 39.4132 31.3778 39.5251 31.5071C39.6364 31.6365 39.786 31.7011 39.9749 31.7011C40.1517 31.7011 40.2867 31.6476 40.3793 31.5402C40.4719 31.4328 40.5206 31.2908 40.5253 31.1139H39.9649V30.9246H40.7317V30.9251Z" fill="white"/>
<path d="M41.238 30.1018H41.4716V31.2051C41.4716 31.3756 41.5084 31.5002 41.5822 31.5787C41.656 31.6574 41.7761 31.697 41.9434 31.697C42.1155 31.697 42.2372 31.657 42.3083 31.5763C42.3797 31.4961 42.4152 31.3724 42.4152 31.2051V30.1018H42.6488V31.1437C42.6488 31.3992 42.5956 31.5872 42.4891 31.7077C42.3825 31.8283 42.2009 31.8882 41.9434 31.8882C41.6944 31.8882 41.5147 31.8295 41.4042 31.7125C41.2935 31.5955 41.238 31.4139 41.238 31.168V30.1018Z" fill="white"/>
<path d="M44.4072 30.1018V30.3034H43.4268V30.8514H44.3434V31.0455H43.4268V31.6498H44.4196V31.8514H43.1957V30.1018H44.4072Z" fill="white"/>
</svg>
