<svg width="200" height="242" viewBox="0 0 200 242" fill="none" xmlns="http://www.w3.org/2000/svg">
<g clip-path="url(#clip0_182_57)">
<path d="M166.632 33.2836C129.813 -3.53462 70.1218 -3.53462 33.307 33.2836C-3.51118 70.1017 -3.51118 129.793 33.307 166.608L99.9693 233.27L166.632 166.608C203.45 129.79 203.45 70.0984 166.632 33.2836Z" fill="white" stroke="#FFED00" stroke-width="11.34" stroke-miterlimit="10" stroke-linecap="round"/>
<path d="M35.5721 164.352C18.3687 147.149 8.89648 124.279 8.89648 99.9515C8.89648 75.624 18.3687 52.754 35.5721 35.5506C52.7754 18.3472 75.6455 8.875 99.973 8.875C124.301 8.875 147.171 18.3472 164.374 35.5506C181.577 52.754 191.049 75.624 191.049 99.9515C191.049 124.279 181.577 147.149 164.374 164.352L99.973 228.753L35.5721 164.352Z" fill="white"/>
<path d="M99.9464 12.0684C111.36 12.0684 122.486 14.233 133.016 18.5021C143.912 22.9214 153.694 29.4152 162.083 37.8067C170.474 46.1983 176.968 55.9774 181.387 66.8737C185.656 77.4032 187.821 88.5297 187.821 99.943C187.821 111.356 185.656 122.486 181.387 133.012C176.968 143.909 170.474 153.688 162.083 162.079L99.9464 224.216L37.8101 162.079C29.4185 153.688 22.9247 143.909 18.5055 133.012C14.2363 122.483 12.0717 111.356 12.0717 99.943C12.0717 88.5264 14.2363 77.3999 18.5055 66.8737C22.9247 55.9774 29.4185 46.1983 37.8101 37.8067C46.2017 29.4152 55.9807 22.9214 66.8771 18.5021C77.4032 14.233 88.5297 12.0684 99.9497 12.0684M99.9497 5.66797C75.819 5.66797 51.6982 14.87 33.2875 33.2808C-3.53072 70.0989 -3.53072 129.79 33.2875 166.605L99.9497 233.268L166.612 166.605C203.43 129.787 203.43 70.0956 166.612 33.2808C148.205 14.8733 124.074 5.66797 99.9497 5.66797Z" fill="black"/>
<path d="M100.619 174.658C142.308 174.658 176.103 140.862 176.103 99.1735C176.103 57.4848 142.308 23.6895 100.619 23.6895C58.9301 23.6895 25.1348 57.4848 25.1348 99.1735C25.1348 140.862 58.9301 174.658 100.619 174.658Z" fill="black"/>
<path d="M100.629 158.191C133.704 158.191 160.517 131.378 160.517 98.3024C160.517 65.227 133.704 38.4141 100.629 38.4141C67.5531 38.4141 40.7402 65.227 40.7402 98.3024C40.7402 131.378 67.5531 158.191 100.629 158.191Z" fill="#FFED00"/>
</g>
<defs>
<clipPath id="clip0_182_57">
<rect width="199.89" height="241.288" fill="white"/>
</clipPath>
</defs>
</svg>
