<svg width="2050" height="2475" viewBox="0 0 2050 2475" fill="none" xmlns="http://www.w3.org/2000/svg">
<path d="M2049.34 254.525C2049.34 287.219 2039.86 312.72 2020.89 331.028C2002.26 349.009 1975.94 358 1941.94 358H1788.94V8.83496H1835.03V150.561H1941.94C1976.27 150.561 2002.75 159.715 2021.38 178.023C2040.02 196.004 2049.34 221.505 2049.34 254.525ZM2002.75 254.525C2002.75 211.697 1977.25 190.283 1926.25 190.283H1835.03V317.787H1926.25C1977.25 317.787 2002.75 296.7 2002.75 254.525Z" fill="white"/>
<path d="M1710.68 8.83496V358H1664.58V49.0477H1535.61L1528.74 245.698C1527.44 282.315 1519.92 311.412 1506.19 332.989C1492.78 354.567 1473.33 365.356 1447.83 365.356C1437.37 365.356 1426.25 363.067 1414.48 358.49V319.258C1419.71 322.528 1428.05 324.162 1439.49 324.162C1448.97 324.162 1456.49 322.037 1462.05 317.787C1467.93 313.21 1473 303.075 1477.25 287.382C1481.83 271.689 1484.44 249.785 1485.1 221.669L1491.47 8.83496H1710.68Z" fill="white"/>
<path d="M1395.19 8.83496V49.0477H1199.52V158.407H1382.44V197.149H1199.52V317.787H1397.65V358H1153.43V8.83496H1395.19Z" fill="white"/>
<path d="M1107 444.801H1062.37V358H809.813V444.801H765.187V317.787H799.515C812.919 293.921 823.872 259.756 832.372 215.293C840.872 170.504 845.122 124.242 845.122 76.5102V8.83496H1068.25V317.787H1107V444.801ZM1022.16 317.787V49.0477H890.239V96.6165C890.239 138.791 886.316 180.638 878.469 222.159C870.95 263.353 861.632 295.229 850.517 317.787H1022.16Z" fill="white"/>
<path d="M574.046 0.498047C627.009 0.498047 668.203 17.1716 697.627 50.5188C727.051 83.5391 741.763 126.858 741.763 180.475C741.763 234.419 727.214 278.882 698.117 313.864C669.02 348.846 627.827 366.336 574.536 366.336C547.401 366.336 523.044 361.432 501.467 351.624C479.889 341.816 462.235 328.249 448.504 310.921C435.099 293.594 424.801 273.814 417.608 251.583C410.743 229.351 407.31 205.322 407.31 179.494C407.31 124.896 422.349 81.414 452.427 49.0476C482.832 16.6812 523.371 0.498047 574.046 0.498047ZM574.046 40.7109C535.141 40.7109 505.227 54.4421 484.303 81.9045C463.706 109.04 453.408 142.714 453.408 182.927C453.408 226.736 464.36 261.718 486.264 287.872C508.496 313.7 538.083 326.614 575.027 326.614C611.643 326.614 640.904 313.537 662.808 287.382C684.713 261.227 695.665 226.409 695.665 182.927C695.665 139.772 684.55 105.28 662.318 79.4525C640.414 53.6247 610.99 40.7109 574.046 40.7109Z" fill="white"/>
<path d="M0.231934 8.83496H63.9839L176.286 304.546L284.664 8.83496H348.906V358H305.261V66.7021L195.902 358H155.689L44.3679 66.7021V358H0.231934V8.83496Z" fill="white"/>
<path d="M1491.82 507.56C1560.89 507.56 1622.21 520.658 1675.8 546.855C1730.57 573.051 1774.63 606.988 1807.97 648.664C1841.31 690.341 1868.7 739.757 1890.13 796.914C1912.76 854.07 1928.24 911.226 1936.57 968.383C1944.91 1025.54 1949.07 1085.67 1949.07 1148.78C1949.07 1347.64 1908.59 1503.63 1827.62 1616.75C1746.65 1729.87 1635.31 1786.43 1493.61 1786.43C1348.34 1786.43 1234.62 1730.47 1152.46 1618.54C1071.49 1505.41 1031 1348.83 1031 1148.78C1031 1069 1038.74 993.984 1054.22 923.729C1069.7 852.284 1094.11 784.411 1127.45 720.11C1160.79 654.618 1208.42 602.82 1270.34 564.716C1333.45 526.612 1407.28 507.56 1491.82 507.56ZM1490.04 716.538C1456.7 716.538 1427.52 723.682 1402.52 737.971C1377.51 752.26 1357.27 773.694 1341.79 802.272C1327.5 829.659 1315.59 856.452 1306.07 882.648C1297.73 907.654 1291.78 940.995 1288.2 982.672C1284.63 1023.16 1282.25 1054.12 1281.06 1075.55C1281.06 1096.98 1281.06 1125.56 1281.06 1161.29C1281.06 1441.11 1351.31 1581.03 1491.82 1581.03C1629.95 1581.03 1699.02 1436.95 1699.02 1148.78C1699.02 999.938 1682.34 890.983 1649 821.92C1615.66 751.665 1562.67 716.538 1490.04 716.538Z" fill="white"/>
<path d="M58.1563 923.729C62.9193 793.937 103.405 692.127 179.614 618.3C255.822 543.282 359.418 505.773 490.401 505.773C614.24 505.773 714.264 537.924 790.472 602.225C867.871 665.335 906.571 747.497 906.571 848.712C906.571 909.44 890.496 962.429 858.345 1007.68C827.386 1051.74 785.114 1080.91 731.53 1095.2C800.593 1111.87 854.773 1145.81 894.068 1197.01C933.363 1247.02 953.01 1308.94 953.01 1382.77C953.01 1501.84 909.548 1599.48 822.622 1675.69C736.888 1750.71 625.552 1788.22 488.615 1788.22C346.915 1788.22 234.388 1748.92 151.035 1670.33C67.6824 1591.74 26.0059 1485.77 26.0059 1352.4V1334.54H270.706C271.897 1411.94 290.354 1471.48 326.077 1513.15C362.99 1553.64 415.384 1573.88 483.257 1573.88C545.176 1573.88 595.188 1556.62 633.292 1522.08C671.396 1486.36 690.448 1440.52 690.448 1384.55C690.448 1319.06 669.015 1272.03 626.148 1243.45C584.471 1213.68 530.292 1198.79 463.609 1198.79C438.603 1198.79 417.765 1199.39 401.094 1200.58V1021.97C414.193 1023.16 428.482 1023.75 443.962 1023.75C589.234 1023.75 661.87 971.36 661.87 866.573C661.87 818.943 645.795 780.838 613.645 752.26C582.685 723.682 541.008 709.393 488.615 709.393C429.077 709.393 382.638 727.85 349.296 764.763C317.146 801.677 300.475 854.665 299.285 923.729H58.1563Z" fill="white"/>
<path d="M1561.59 1927.59L1347.08 2143.63L1581.58 2475H1430.89L1264.82 2228.97L1194.86 2298.17V2475H1076.45V1927.59H1194.86V2155.16L1410.13 1927.59H1561.59Z" fill="#FFED00"/>
<path d="M968.656 1927.59V2475H848.718V2029.84H624.987V2475H505.049V1927.59H968.656Z" fill="#FFED00"/>
</svg>
