<svg width="154" height="250" viewBox="0 0 154 250" fill="none" xmlns="http://www.w3.org/2000/svg">
<mask id="path-1-inside-1_359_85" fill="white">
<path fill-rule="evenodd" clip-rule="evenodd" d="M144.411 113.5C150.521 102.535 154 89.921 154 76.5C154 34.2502 119.526 0 77 0C34.4741 0 0 34.2502 0 76.5C0 89.921 3.47869 102.535 9.58912 113.5H9.45002L77 250L144.55 113.5H144.411Z"/>
</mask>
<path fill-rule="evenodd" clip-rule="evenodd" d="M144.411 113.5C150.521 102.535 154 89.921 154 76.5C154 34.2502 119.526 0 77 0C34.4741 0 0 34.2502 0 76.5C0 89.921 3.47869 102.535 9.58912 113.5H9.45002L77 250L144.55 113.5H144.411Z" fill="white"/>
<path d="M144.411 113.5L143.537 113.013L142.709 114.5H144.411V113.5ZM9.58912 113.5V114.5H11.2912L10.4626 113.013L9.58912 113.5ZM9.45002 113.5V112.5H7.8394L8.55377 113.944L9.45002 113.5ZM77 250L76.1037 250.444L77 252.255L77.8963 250.444L77 250ZM144.55 113.5L145.446 113.944L146.161 112.5H144.55V113.5ZM153 76.5C153 89.7461 149.567 102.193 143.537 113.013L145.284 113.987C151.476 102.877 155 90.096 155 76.5H153ZM77 1C118.98 1 153 34.8086 153 76.5H155C155 33.6918 120.072 -1 77 -1V1ZM1 76.5C1 34.8086 35.0202 1 77 1V-1C33.9279 -1 -1 33.6918 -1 76.5H1ZM10.4626 113.013C4.4329 102.193 1 89.7461 1 76.5H-1C-1 90.096 2.52448 102.877 8.71559 113.987L10.4626 113.013ZM9.45002 114.5H9.58912V112.5H9.45002V114.5ZM77.8963 249.556L10.3463 113.056L8.55377 113.944L76.1037 250.444L77.8963 249.556ZM143.654 113.056L76.1037 249.556L77.8963 250.444L145.446 113.944L143.654 113.056ZM144.411 114.5H144.55V112.5H144.411V114.5Z" fill="white" mask="url(#path-1-inside-1_359_85)"/>
<path d="M147.5 76.5C147.5 115.157 115.939 146.5 77 146.5C38.0606 146.5 6.5 115.157 6.5 76.5C6.5 37.8434 38.0606 6.5 77 6.5C115.939 6.5 147.5 37.8434 147.5 76.5Z" fill="black" stroke="black"/>
<path d="M90.6775 58.5358V61.9292H75.2005V71.116H88.8566V74.3852H75.2005V88H71.3106V58.5358H90.6775ZM114.44 58.5358V61.9292H98.963V71.116H112.619V74.3852H98.963V88H95.073V58.5358H114.44Z" fill="white"/>
<path d="M107.906 49.1555C119.956 48.9977 129.88 59.5686 130.021 72.9795C130.163 86.3903 120.665 97.4346 108.614 97.5923C108.331 97.5923 108.189 97.5923 107.906 97.5923H45.3856C33.3352 98.0657 23.4114 87.337 23.2697 73.9261C23.1279 60.5153 32.6264 49.471 44.6767 49.1555C44.9603 49.1555 45.102 49.1555 45.3856 49.1555L107.906 49.1555ZM107.906 46L45.3856 46C31.7758 46.1578 20.8596 58.7798 21.0014 73.9261C21.1431 88.757 31.9175 100.748 45.3856 101.063H107.906C121.515 101.221 132.715 89.2303 132.999 73.9261C133.14 58.7798 122.366 46.3155 108.614 46C108.473 46 108.189 46 107.906 46Z" fill="white"/>
<path d="M48.2704 92.4405C58.5702 92.4405 66.9198 84.0211 66.9198 73.6353C66.9198 63.2495 58.5702 54.8301 48.2704 54.8301C37.9707 54.8301 29.6211 63.2495 29.6211 73.6353C29.6211 84.0211 37.9707 92.4405 48.2704 92.4405Z" fill="white"/>
</svg>
