<svg width="294" height="145" viewBox="0 0 294 145" fill="none" xmlns="http://www.w3.org/2000/svg">
<path d="M228.127 8.28318C259.759 7.86902 285.809 35.6177 286.181 70.8212C286.553 106.025 261.62 135.016 229.988 135.43C229.244 135.43 228.871 135.43 228.127 135.43H64.0121C32.38 136.672 6.32998 108.51 5.95783 73.3061C5.58569 38.1026 30.5193 9.11149 62.1514 8.28318C62.8957 8.28318 63.2678 8.28318 64.0121 8.28318L228.127 8.28318ZM228.127 0L64.0121 0C28.2864 0.414159 -0.368559 33.5469 0.0035841 73.3061C0.375727 112.237 28.6586 143.713 64.0121 144.541H228.127C263.853 144.956 293.252 113.48 293.996 73.3061C294.368 33.5469 266.086 0.828318 229.988 0C229.616 0 228.871 0 228.127 0Z" fill="#FFED00"/>
<path d="M211.986 24.5449L224.727 24.5449V120.545H212.808L149.104 46.476V120.131H136.364V24.5449H147.46L211.575 99.0277L211.986 24.5449Z" fill="white"/>
<path d="M71.5909 121.909C98.6277 121.909 120.545 99.8081 120.545 72.5453C120.545 45.2825 98.6277 23.1816 71.5909 23.1816C44.554 23.1816 22.6364 45.2825 22.6364 72.5453C22.6364 99.8081 44.554 121.909 71.5909 121.909Z" fill="#FFED00"/>
</svg>
