<svg width="2108" height="2475" viewBox="0 0 2108 2475" fill="none" xmlns="http://www.w3.org/2000/svg">
<path d="M39.232 8.83518H102.984L215.286 304.546L323.664 8.83518H387.906V358H344.261V66.7024L234.902 358H194.689L83.368 66.7024V358H39.232V8.83518ZM613.046 0.498367C666.009 0.498367 707.203 17.172 736.627 50.5192C766.051 83.5394 780.763 126.858 780.763 180.475C780.763 234.419 766.214 278.882 737.117 313.864C708.02 348.846 666.827 366.337 613.536 366.337C586.401 366.337 562.044 361.433 540.467 351.625C518.889 341.817 501.235 328.249 487.504 310.922C474.099 293.594 463.801 273.815 456.608 251.583C449.743 229.352 446.31 205.322 446.31 179.494C446.31 124.897 461.349 81.4144 491.427 49.048C521.832 16.6816 562.371 0.498367 613.046 0.498367ZM613.046 40.7112C574.141 40.7112 544.227 54.4424 523.303 81.9048C502.706 109.04 492.408 142.714 492.408 182.927C492.408 226.736 503.36 261.718 525.264 287.873C547.496 313.701 577.083 326.614 614.027 326.614C650.643 326.614 679.904 313.537 701.808 287.382C723.713 261.228 734.665 226.409 734.665 182.927C734.665 139.772 723.549 105.281 701.318 79.4528C679.413 53.625 649.989 40.7112 613.046 40.7112ZM1146 444.801H1101.37V358H848.813V444.801H804.187V317.787H838.515C851.919 293.921 862.872 259.757 871.372 215.294C879.872 170.504 884.122 124.243 884.122 76.5104V8.83518H1107.25V317.787H1146V444.801ZM1061.16 317.787V49.048H929.239V96.6168C929.239 138.791 925.316 180.639 917.469 222.159C909.95 263.353 900.632 295.229 889.517 317.787H1061.16ZM1434.19 8.83518V49.048H1238.52V158.407H1421.44V197.149H1238.52V317.787H1436.65V358H1192.43V8.83518H1434.19ZM1749.68 8.83518V358H1703.58V49.048H1574.61L1567.74 245.698C1566.44 282.315 1558.92 311.412 1545.19 332.99C1531.78 354.567 1512.33 365.356 1486.83 365.356C1476.37 365.356 1465.25 363.067 1453.48 358.49V319.258C1458.71 322.528 1467.05 324.162 1478.49 324.162C1487.97 324.162 1495.49 322.037 1501.05 317.787C1506.93 313.21 1512 303.075 1516.25 287.382C1520.83 271.69 1523.44 249.785 1524.1 221.669L1530.47 8.83518H1749.68ZM2088.34 254.526C2088.34 287.219 2078.86 312.72 2059.89 331.028C2041.26 349.009 2014.94 358 1980.94 358H1827.94V8.83518H1874.03V150.561H1980.94C2015.27 150.561 2041.75 159.715 2060.39 178.023C2079.02 196.005 2088.34 221.505 2088.34 254.526ZM2041.75 254.526C2041.75 211.697 2016.25 190.283 1965.25 190.283H1874.03V317.787H1965.25C2016.25 317.787 2041.75 296.7 2041.75 254.526Z" fill="white"/>
<path d="M983.08 1545.31V1765H66.792C67.9828 1709.03 75.1273 1657.83 88.2257 1611.39C102.515 1563.76 118.59 1523.87 136.451 1491.72C155.503 1459.57 184.082 1425.63 222.186 1389.91C260.29 1354.19 293.631 1325.61 322.209 1304.18C351.978 1282.74 394.846 1252.97 450.811 1214.87C457.956 1210.11 477.008 1197.6 507.968 1177.36C538.927 1157.12 560.361 1142.83 572.269 1134.49C584.176 1126.16 602.037 1111.87 625.853 1091.63C649.668 1070.19 666.338 1051.74 675.864 1036.26C686.581 1020.78 696.703 1001.72 706.229 979.1C715.755 955.285 720.518 930.875 720.518 905.869C720.518 851.094 703.847 807.631 670.506 775.481C638.356 742.139 595.488 725.469 541.904 725.469C413.302 725.469 345.429 815.966 338.285 996.962H95.3702V970.169C95.3702 828.469 136.451 715.943 218.614 632.59C300.776 548.046 411.516 505.774 550.835 505.774C677.055 505.774 779.46 541.497 858.05 612.942C936.64 683.197 975.935 774.885 975.935 888.007C975.935 979.696 955.097 1052.93 913.42 1107.7C871.744 1162.48 806.252 1220.23 716.946 1280.96C705.038 1289.29 683.009 1304.18 650.858 1325.61C618.708 1345.85 593.107 1362.52 574.055 1375.62C556.193 1388.72 534.164 1405.39 507.968 1425.63C481.771 1445.88 459.147 1466.12 440.094 1486.36C421.042 1505.41 404.967 1525.06 391.869 1545.31H983.08ZM1530.82 507.56C1599.89 507.56 1661.21 520.659 1714.8 546.855C1769.57 573.052 1813.63 606.989 1846.97 648.665C1880.31 690.342 1907.7 739.758 1929.13 796.914C1951.76 854.071 1967.24 911.227 1975.57 968.383C1983.91 1025.54 1988.07 1085.67 1988.07 1148.78C1988.07 1347.64 1947.59 1503.63 1866.62 1616.75C1785.65 1729.87 1674.31 1786.43 1532.61 1786.43C1387.34 1786.43 1273.62 1730.47 1191.46 1618.54C1110.49 1505.41 1070 1348.83 1070 1148.78C1070 1069 1077.74 993.985 1093.22 923.73C1108.7 852.285 1133.11 784.411 1166.45 720.11C1199.79 654.619 1247.42 602.821 1309.34 564.717C1372.45 526.612 1446.28 507.56 1530.82 507.56ZM1529.04 716.538C1495.7 716.538 1466.52 723.683 1441.52 737.972C1416.51 752.261 1396.27 773.695 1380.79 802.273C1366.5 829.66 1354.59 856.452 1345.07 882.649C1336.73 907.655 1330.78 940.996 1327.2 982.672C1323.63 1023.16 1321.25 1054.12 1320.06 1075.55C1320.06 1096.99 1320.06 1125.56 1320.06 1161.29C1320.06 1441.11 1390.31 1581.03 1530.82 1581.03C1668.95 1581.03 1738.02 1436.95 1738.02 1148.78C1738.02 999.938 1721.34 890.984 1688 821.92C1654.66 751.666 1601.67 716.538 1529.04 716.538Z" fill="white"/>
<path d="M1007.66 1927.59V2475H887.718V2029.85H663.988V2475H544.05V1927.59H1007.66ZM1600.59 1927.59L1386.08 2143.63L1620.58 2475H1469.89L1303.82 2228.97L1233.86 2298.17V2475H1115.46V1927.59H1233.86V2155.17L1449.13 1927.59H1600.59Z" fill="#FFED00"/>
</svg>
