<svg width="54" height="55" viewBox="0 0 54 55" fill="none" xmlns="http://www.w3.org/2000/svg">
<mask id="mask0_2_424" style="mask-type:luminance" maskUnits="userSpaceOnUse" x="11" y="15" width="32" height="25">
<path d="M42.0263 15.5987H11.9873V39.1289H42.0263V15.5987Z" fill="white"/>
</mask>
<g mask="url(#mask0_2_424)">
<path d="M26.7909 19.1689C27.0135 19.2931 27.2876 19.2845 27.506 19.156C30.8589 17.1477 34.6786 16.0473 38.5881 15.9573C38.9863 15.9487 39.3161 16.2614 39.3246 16.6596C39.3246 16.6638 39.3246 16.6724 39.3246 16.6767V32.7047C39.3246 33.0772 39.042 33.3855 38.6738 33.4198C34.777 33.7838 30.996 34.9271 27.5531 36.7812C27.3347 36.9011 27.0692 36.9011 26.8551 36.7812C24.9624 35.715 22.937 34.9014 20.8302 34.3576C19.0831 33.9037 17.2889 33.6425 15.4861 33.5739C15.0964 33.5611 14.7881 33.2442 14.7881 32.8546V16.7409C14.7881 16.3427 15.1093 16.0215 15.5075 16.0215C15.5204 16.0215 15.5332 16.0215 15.5417 16.0215C19.477 16.2143 23.3224 17.2891 26.7866 19.1689H26.7909Z" stroke="#FFED00" stroke-width="0.719396" stroke-miterlimit="10"/>
<path d="M27.0598 36.8654V19.2488" stroke="#FFED00" stroke-width="0.719396" stroke-miterlimit="10"/>
<path d="M12.4497 18.1084V35.1684C12.4497 36.1104 13.212 36.8727 14.154 36.8727H39.8638C40.8059 36.8727 41.5681 36.1104 41.5681 35.1684V18.1084" stroke="#FFED00" stroke-width="0.924936" stroke-miterlimit="10" stroke-linecap="round"/>
<path d="M27.0129 39.1286C28.3302 39.1286 29.398 38.4154 29.398 37.5356C29.398 36.6559 28.3302 35.9427 27.0129 35.9427C25.6957 35.9427 24.6278 36.6559 24.6278 37.5356C24.6278 38.4154 25.6957 39.1286 27.0129 39.1286Z" fill="#FFED00"/>
<path d="M25.1635 25.5961C25.5832 25.7717 25.8529 26.187 25.84 26.6452C25.8443 26.9493 25.6045 27.1976 25.3048 27.2019C25.2235 27.2019 25.1421 27.1848 25.0693 27.1548C24.3713 26.915 23.669 26.7009 22.971 26.5211C22.5514 26.3969 22.2688 25.9986 22.2859 25.5576C22.2816 25.2193 22.5514 24.9409 22.8897 24.9366C22.9497 24.9366 23.0095 24.9452 23.0652 24.9581C23.7632 25.1422 24.4655 25.3563 25.1635 25.6004M25.1635 25.4976C24.4655 25.2536 23.7632 25.0395 23.0652 24.851C22.6927 24.7483 22.3073 24.9667 22.2045 25.3392C22.1874 25.4034 22.1789 25.4677 22.1789 25.5319C22.1617 26.0286 22.4872 26.4739 22.9668 26.611C23.6648 26.7908 24.367 27.0049 25.0649 27.249C25.3776 27.3903 25.7416 27.249 25.8829 26.9407C25.9214 26.855 25.9386 26.7651 25.9386 26.6709C25.9514 26.157 25.6474 25.686 25.172 25.4848L25.1635 25.4933V25.4976Z" fill="#F4E836"/>
<path d="M23.1209 25.1394C23.4677 25.2336 23.7032 25.5591 23.6861 25.9145C23.6861 26.0686 23.6133 26.2142 23.4849 26.2999C23.3521 26.3855 23.1851 26.4027 23.0353 26.3555C22.8683 26.3127 22.7227 26.2142 22.6242 26.0772C22.5214 25.9444 22.47 25.7775 22.4829 25.6061C22.4829 25.4477 22.5556 25.3021 22.6799 25.2037C22.8083 25.1137 22.971 25.088 23.1209 25.1394Z" fill="#F4E836"/>
<path d="M24.8677 25.6849L25.0175 25.7363C24.9918 26.1302 24.9704 26.5285 24.9447 26.9225L24.8077 26.8753C24.5765 26.4856 24.3495 26.1003 24.1183 25.7192C24.1012 26.0232 24.0798 26.3315 24.0626 26.6356L23.9127 26.5884L23.9855 25.398L24.114 25.4366C24.3452 25.8219 24.5808 26.2116 24.812 26.6013C24.8248 26.2973 24.8419 25.9889 24.8634 25.6806L24.8677 25.6849Z" fill="white"/>
<path d="M17.0832 25.2157L17.0747 25.404C16.9505 25.4725 16.8135 25.5068 16.6721 25.5026C16.5651 25.5111 16.458 25.4854 16.3639 25.434C16.2825 25.3826 16.2183 25.3056 16.1754 25.2157C16.1327 25.1214 16.1112 25.0144 16.1198 24.9116C16.1284 24.7446 16.1969 24.5862 16.3167 24.4662C16.4281 24.3507 16.5865 24.2864 16.7449 24.2907C16.8777 24.2907 17.0062 24.3292 17.1218 24.3935L17.1133 24.5776C17.0062 24.5006 16.8777 24.4577 16.7449 24.4534C16.6251 24.4534 16.5095 24.5006 16.4238 24.5862C16.3382 24.6718 16.2868 24.7917 16.2825 24.9116C16.2697 25.0272 16.3082 25.1471 16.3852 25.2328C16.4623 25.3184 16.5737 25.3612 16.6893 25.357C16.8349 25.3484 16.972 25.3013 17.0875 25.2114L17.0832 25.2157Z" fill="white"/>
<path d="M18.1236 24.3405L18.3162 24.3533C18.1706 24.529 18.0208 24.7045 17.8752 24.8929C17.8624 25.1028 17.8495 25.3126 17.8367 25.5224H17.6739L17.7125 24.8929C17.5883 24.6917 17.4641 24.5032 17.34 24.3105H17.5283L17.7981 24.7301L18.1236 24.3405Z" fill="white"/>
<path d="M18.8683 25.5939L18.4957 25.5682C18.5214 25.17 18.5428 24.776 18.5685 24.3777L18.8596 24.4035C18.9324 24.4035 19.0053 24.4291 19.0695 24.4634C19.1166 24.4934 19.1552 24.5362 19.1809 24.5833C19.2022 24.6347 19.2151 24.6904 19.2108 24.7461C19.2108 24.8573 19.1337 24.9516 19.0267 24.9815C19.0995 25.0029 19.168 25.0458 19.2151 25.1058C19.2579 25.1657 19.2793 25.2385 19.275 25.3113C19.275 25.3669 19.2536 25.4226 19.2194 25.4697C19.1851 25.5168 19.138 25.5511 19.0867 25.5724C19.0182 25.5982 18.9454 25.6025 18.8726 25.5939H18.8683ZM18.8511 24.5448L18.7141 24.532L18.6927 24.8831L18.7998 24.8916C18.864 24.9088 18.9282 24.9002 18.9881 24.8702C19.0267 24.836 19.0481 24.7888 19.0481 24.7418C19.0481 24.6261 18.9881 24.5662 18.8511 24.5533V24.5448ZM18.834 25.0501L18.6884 25.0372L18.667 25.414L18.8212 25.4269C18.8769 25.4397 18.9368 25.4397 18.9967 25.4269C19.0267 25.414 19.0566 25.3969 19.0738 25.3669C19.1166 25.3113 19.1209 25.2299 19.0824 25.1657C19.0652 25.1314 19.0353 25.1058 19.001 25.0886C18.9454 25.0629 18.8897 25.0501 18.8297 25.0501H18.834Z" fill="white"/>
<path d="M19.6053 24.4744C19.8152 24.5 20.025 24.5257 20.2348 24.5557V24.7056C20.0764 24.6842 19.9222 24.6627 19.7637 24.6414L19.7424 25.0053L20.1962 25.0653L20.1877 25.2194C20.0335 25.198 19.8837 25.1767 19.7338 25.1595L19.7124 25.5278C19.8751 25.5449 20.0335 25.5706 20.1962 25.5919L20.1877 25.7419C19.9736 25.7119 19.7595 25.6862 19.5454 25.6605C19.5625 25.2666 19.584 24.8683 19.6096 24.4744H19.6053Z" fill="white"/>
<path d="M20.6026 24.5616L20.9665 24.6216C21.202 24.6601 21.3691 24.7844 21.3519 25.0455C21.3348 25.3067 21.1593 25.3795 20.9237 25.3367L20.7096 25.2982L20.6796 25.8248L20.5298 25.8035C20.5554 25.3881 20.5812 24.9727 20.6068 24.5616H20.6026ZM20.9066 25.204C21.0822 25.2339 21.1892 25.174 21.202 25.0156C21.2149 24.8571 21.1164 24.7757 20.9366 24.7458L20.7439 24.7116C20.7353 24.8657 20.7268 25.0156 20.7139 25.1697L20.9066 25.1996V25.204ZM21.0137 25.2254L21.3305 25.9405L21.155 25.9105L20.898 25.2896L21.0179 25.2254H21.0137Z" fill="white"/>
<path d="M21.7509 24.8256L21.9093 24.8599C21.8836 25.2538 21.8622 25.6478 21.8365 26.0417L21.6781 26.0075C21.7037 25.6135 21.7252 25.2153 21.7509 24.8256Z" fill="white"/>
<path d="M35.5993 22.5731C36.5671 22.4789 37.3679 23.4081 37.3892 24.5514C37.4107 25.6947 36.6528 26.6325 35.685 26.7182C33.9721 26.8766 32.2807 27.2278 30.6407 27.7544C29.6729 28.0627 28.8764 27.4632 28.855 26.3242C28.8335 25.1852 29.5915 23.939 30.5593 23.6222C32.1951 23.0912 33.8865 22.74 35.5993 22.5731ZM35.5993 22.2947C33.8865 22.4617 32.1951 22.8128 30.555 23.3439C29.4588 23.695 28.6023 25.1252 28.6324 26.4141C28.658 27.703 29.5573 28.3711 30.6578 28.0242C32.2978 27.4975 33.9892 27.1507 35.7021 26.9922C36.7983 26.8894 37.6548 25.8489 37.6248 24.5429C37.5991 23.2453 36.6998 22.1834 35.5993 22.2904V22.299V22.2947Z" fill="#F4E836"/>
<path d="M30.7173 24.0346C31.0685 23.8933 31.471 23.9532 31.7665 24.193C32.0619 24.4585 32.2204 24.8439 32.2032 25.2421C32.2161 25.6961 32.0791 26.1414 31.8093 26.5054C31.5524 26.8693 31.1841 27.1391 30.7602 27.2676C30.3576 27.3961 30.0194 27.3618 29.7454 27.152C29.4713 26.9421 29.3343 26.6167 29.3257 26.1628C29.3129 25.696 29.4456 25.2336 29.7068 24.8439C29.938 24.4628 30.2977 24.1759 30.7217 24.0346H30.7173Z" fill="#F4E836"/>
<path d="M34.9305 23.1457L35.2944 23.1028C35.3159 24.152 35.3373 25.2054 35.3587 26.2673L35.029 26.3059C34.4166 25.5651 33.8 24.8542 33.1834 24.1691C33.2005 24.987 33.2176 25.7963 33.2347 26.6014L32.8708 26.6784C32.8494 25.6293 32.8279 24.5802 32.8065 23.531L33.1192 23.4626C33.74 24.1562 34.3609 24.8713 34.9819 25.6165C34.9648 24.79 34.9476 23.9679 34.9305 23.15V23.1457Z" fill="white"/>
</g>
</svg>
