<svg width="54" height="55" viewBox="0 0 54 55" fill="none" xmlns="http://www.w3.org/2000/svg">
<path d="M40.0501 36.9649C39.9209 37.1243 39.7529 37.2449 39.5634 37.3181C35.8077 38.9419 32.0561 40.5657 28.3089 42.198C27.5595 42.5254 26.7541 42.6976 25.9401 42.7105C25.6256 42.7105 25.3112 42.6933 24.9968 42.6589C24.2861 42.5986 23.584 42.4306 22.9208 42.1722C22.4254 41.987 21.9689 41.7114 21.5726 41.3625C21.1849 41.0136 20.9654 40.5182 20.9654 39.9971V22.4327C20.9481 21.946 21.1548 21.4722 21.5295 21.1621C21.7535 20.9726 22.012 20.8175 22.2833 20.7055L27.1288 18.6123C29.3814 17.6345 31.634 16.6612 33.8867 15.6877C34.2657 15.5155 34.7136 15.6834 34.8859 16.0625C34.9548 16.2089 34.9893 16.364 34.9893 16.5191V18.3496C34.9893 18.3883 34.9806 18.4228 34.972 18.4573L34.8342 18.4056C34.3949 18.216 33.9556 18.0266 33.512 17.8413C33.3698 17.7811 23.0543 22.3422 23.0543 22.3422C23.0543 22.3422 22.7958 22.4887 22.826 22.506C23.0284 22.6179 23.2394 22.7213 23.4548 22.8117C24.3335 23.152 25.281 23.2942 26.22 23.2252C26.6894 23.1951 27.146 23.0874 27.581 22.9065L36.0402 19.2282L39.0595 17.906C39.2016 17.8542 39.361 17.8542 39.5032 17.906C39.8003 18.0007 40.0027 18.2807 40.0027 18.5951C40.0157 20.8692 40.0372 31.4001 40.0372 36.9692L40.0501 36.9649Z" fill="#FFED00" stroke="#010101" stroke-width="0.262734" stroke-miterlimit="10"/>
<path d="M28.0375 12.8804C28.0462 13.5265 28.0375 14.1768 28.0375 14.8186C28.0375 14.8358 28.0332 14.853 28.0246 14.8703C27.9815 14.853 27.9428 14.8401 27.904 14.8229C27.4647 14.6333 27.0254 14.4439 26.5817 14.2586C26.5042 14.2199 26.418 14.2199 26.3405 14.2586L15.9603 18.7552L15.7752 18.8457C15.8311 18.8844 15.8743 18.9147 15.9173 18.9405C16.3049 19.1645 16.7184 19.3281 17.1535 19.4315C17.6875 19.5736 18.2388 19.6468 18.7944 19.6468C19.4836 19.6555 20.1641 19.5133 20.7929 19.242C24.566 17.6009 28.3304 15.9772 32.0948 14.3362C32.4867 14.1553 32.9476 14.3276 33.1285 14.7152C33.1802 14.8272 33.2017 14.9435 33.2017 15.0684C33.1673 15.0856 33.1285 15.1072 33.0897 15.1244L22.5417 19.7072C22.2186 19.8364 21.9128 20 21.62 20.1896C20.9351 20.6332 20.4484 21.3224 20.2589 22.1148C20.2028 22.3561 20.177 22.6016 20.1813 22.847V38.8135C20.1813 38.9212 20.0995 39.0116 19.9919 39.0289C19.8023 39.059 19.6128 39.0891 19.4276 39.1063C18.1657 39.2054 16.8951 38.9987 15.7321 38.4991C15.3401 38.3354 14.9784 38.1072 14.6596 37.8271C14.3237 37.5515 14.104 37.1638 14.0437 36.7332C14.0308 36.6858 14.0179 36.6341 13.9963 36.591V18.639C14.0179 18.583 14.0394 18.527 14.0523 18.4667C14.0696 18.3289 14.1126 18.191 14.1815 18.0704C14.4486 17.6484 14.8449 17.321 15.3143 17.1401L19.5525 15.3053L27.1331 12.0319C27.6413 11.838 28.0332 12.4669 28.0375 12.8804Z" fill="#FFED00" stroke="#010101" stroke-width="0.262734" stroke-miterlimit="10"/>
<path d="M15.4476 22.9728C15.4476 22.3828 15.8481 22.133 16.3564 22.2751C16.8948 22.4388 17.2609 22.9341 17.2609 23.4983V26.5563C17.2609 27.1421 16.8603 27.6116 16.3564 27.4694C15.8525 27.3273 15.4519 26.6167 15.4519 26.0352V22.9771M15.3313 22.9126V25.9706C15.3313 26.6339 15.7836 27.4522 16.3564 27.6159C16.9207 27.7839 17.3815 27.2369 17.3815 26.5649V23.5069C17.3815 22.8737 16.9637 22.3138 16.3564 22.1373C15.7922 21.9736 15.3313 22.2407 15.3313 22.9126Z" fill="#010101"/>
<path d="M15.642 26.0371C15.6205 25.8347 15.698 25.6365 15.8444 25.503C15.9909 25.391 16.1847 25.3652 16.357 25.4298C16.5638 25.4901 16.7446 25.6193 16.8652 25.7959C17.0031 25.9898 17.072 26.2224 17.0677 26.4636C17.0806 26.6789 17.0074 26.8899 16.8695 27.0493C16.7446 27.1914 16.5422 27.2431 16.3656 27.1828C16.1459 27.1096 15.9607 26.9588 15.8487 26.7564C15.7152 26.541 15.642 26.2955 15.642 26.0414V26.0371Z" fill="#010101"/>
<path d="M15.6627 23.492V23.2681C16.0978 23.479 16.5672 23.6126 17.0496 23.6686V23.8667C16.718 24.1725 16.3605 24.4525 15.9815 24.6937C16.326 24.8272 16.6835 24.9177 17.0496 24.9564V25.1761C16.5672 25.1201 16.0978 24.9865 15.6627 24.7756V24.586C16.0461 24.3706 16.4079 24.1208 16.7439 23.8409C16.3691 23.7677 16.0073 23.6514 15.6627 23.4876V23.492Z" fill="#010101"/>
<path d="M16.71 35.098C16.7833 35.1109 16.8521 35.1238 16.9254 35.1324C17.003 35.3219 17.046 35.5287 17.0417 35.7312C17.046 35.8862 17.0159 36.0369 16.9512 36.1747C16.8953 36.2867 16.8091 36.3772 16.6971 36.4289C16.5894 36.4806 16.4602 36.4892 16.3439 36.4504C16.1286 36.3772 15.9476 36.2222 15.84 36.0154C15.7107 35.8043 15.6376 35.5588 15.6376 35.309C15.6376 35.1324 15.6763 34.9602 15.7496 34.7964C15.8184 34.8267 15.8917 34.8568 15.9606 34.8869C15.8702 35.0334 15.8227 35.2057 15.8227 35.3823C15.8227 35.5674 15.8745 35.7441 15.9736 35.9034C16.0553 36.0498 16.1889 36.1618 16.3525 36.2135C16.4861 36.2609 16.6325 36.2265 16.7315 36.1231C16.8349 36.0025 16.8867 35.8475 16.878 35.688C16.8694 35.4813 16.8134 35.2746 16.7143 35.0937L16.71 35.098Z" fill="#010101"/>
<path d="M15.6543 33.3028V33.0229C15.8697 33.3245 16.0851 33.6044 16.3005 33.8671C16.5373 33.9403 16.7828 33.992 17.0283 34.0179V34.2548C16.7828 34.2289 16.5373 34.1772 16.3005 34.104C16.0937 34.2333 15.8783 34.3496 15.6543 34.4485V34.1686C15.818 34.0997 15.9731 34.0265 16.1281 33.9403C15.9688 33.7293 15.8094 33.5225 15.6543 33.2985V33.3028Z" fill="#010101"/>
<path d="M17.0243 32.5173V33.0643C16.5462 33.0083 16.0854 32.8704 15.6503 32.6638V32.2503C15.646 32.1512 15.6589 32.0521 15.6978 31.9616C15.7193 31.9057 15.7666 31.867 15.8227 31.8453C15.8872 31.8281 15.9519 31.8324 16.0121 31.8627C16.1586 31.9229 16.2663 32.0521 16.3007 32.2072C16.3094 32.1125 16.3567 32.0263 16.4256 31.9616C16.4903 31.91 16.5721 31.8928 16.6539 31.91C16.7272 31.9229 16.7917 31.9573 16.8435 32.0091C16.9037 32.065 16.9468 32.134 16.977 32.2115C17.0114 32.3105 17.0286 32.4139 17.0243 32.5173ZM15.827 32.3105V32.5001C15.9648 32.5604 16.1026 32.612 16.2404 32.6508V32.5001C16.2447 32.401 16.2232 32.3062 16.1802 32.2201C16.1457 32.1598 16.0897 32.1125 16.0251 32.0866C15.8915 32.0478 15.827 32.1168 15.827 32.3149V32.3105ZM16.417 32.5001V32.7154C16.5591 32.7542 16.7056 32.7844 16.8521 32.8102V32.5819C16.8521 32.4958 16.8478 32.4053 16.8262 32.3235C16.8089 32.2761 16.7831 32.2331 16.7487 32.2029C16.7185 32.1727 16.6797 32.1512 16.6367 32.1426C16.5979 32.134 16.5548 32.1383 16.5204 32.1598C16.4816 32.1856 16.4558 32.2201 16.4429 32.2632C16.4213 32.3407 16.4127 32.4225 16.417 32.5044V32.5001Z" fill="#010101"/>
<path d="M15.6546 31.1465V30.2334L15.8268 30.311V30.9915C15.9646 31.0518 16.1068 31.0992 16.2446 31.1465V30.4876C16.3006 30.5048 16.3609 30.522 16.4212 30.5393V31.1983C16.5634 31.237 16.7055 31.2671 16.8476 31.2887V30.5866L17.0199 30.6125V31.5558C16.5418 31.4954 16.0809 31.3533 15.6503 31.1422L15.6546 31.1465Z" fill="#010101"/>
<path d="M15.5896 29.6678V29.1423C15.5896 28.7977 15.693 28.6083 15.9902 28.7289C16.2745 28.8538 16.4467 29.1466 16.4166 29.4567V29.7626C16.6147 29.8185 16.8172 29.8573 17.0239 29.8789V30.0985C16.5243 30.0382 16.0376 29.8918 15.5896 29.6678ZM16.2702 29.4438C16.3003 29.2328 16.1883 29.0303 15.9945 28.9441C15.805 28.871 15.7404 28.983 15.7404 29.2457V29.5213C15.9127 29.5988 16.0892 29.6678 16.2745 29.7237V29.4481L16.2702 29.4438ZM16.2702 29.2887C16.5329 29.194 16.7827 29.0734 17.0239 28.9355V29.1811C16.8129 29.2974 16.5932 29.4007 16.3693 29.4869L16.2702 29.2887Z" fill="#010101"/>
<path d="M15.6543 28.0329V27.8046C16.0851 28.0113 16.5502 28.1448 17.0283 28.2051V28.4334C16.5502 28.3731 16.0894 28.2396 15.6543 28.0329Z" fill="#010101"/>
<path d="M36.2297 26.5213C37.3625 26.0949 38.2928 26.8271 38.2928 28.158C38.2928 29.4888 37.3668 30.9145 36.2297 31.3366L30.3246 33.5505C29.1919 33.9768 28.2615 33.2447 28.2615 31.9138C28.2615 30.5829 29.1875 29.1616 30.3246 28.7351L36.2297 26.5213ZM36.2297 26.2026L30.3246 28.4164C29.0368 28.9031 27.9901 30.5139 27.9901 32.0214C27.9901 33.5333 29.0368 34.3559 30.3246 33.8736L36.2297 31.6596C37.5175 31.1773 38.5641 29.5621 38.5641 28.0546C38.5641 26.5428 37.5175 25.7202 36.2297 26.2026Z" fill="#010101"/>
<path d="M30.5013 29.1939C30.9837 29.013 31.3886 29.0388 31.7159 29.28C32.039 29.5213 32.2026 29.9089 32.1983 30.4516C32.1983 30.9985 32.0261 31.5326 31.7116 31.9806C31.4144 32.4329 30.9837 32.7817 30.4755 32.9756C30.0017 33.1521 29.6054 33.1263 29.291 32.8851C28.9766 32.6439 28.8173 32.2605 28.8173 31.7265C28.8173 31.1752 28.9852 30.6411 29.291 30.1845C29.5753 29.7322 30.0017 29.3834 30.5013 29.1939Z" fill="#010101"/>
<path d="M35.4329 27.3944L35.8593 27.2351V30.9134L35.4803 31.0598L33.3698 29.0182V31.848L32.9434 32.0073V28.3291L33.3095 28.1913L35.4286 30.2501V27.3944H35.4329Z" fill="#010101"/>
<path d="M22.9895 22.3956C26.4697 20.8967 30.0144 19.3246 33.4903 17.83C33.5075 17.8214 33.529 17.8214 33.5463 17.83C34.4895 18.2177 35.4026 18.5838 36.3415 18.9628C36.3804 18.98 36.3976 19.0231 36.3804 19.0619C36.3718 19.0791 36.3589 19.092 36.3415 19.1007C33.4084 20.3713 30.5012 21.6677 27.568 22.9383C26.7712 23.2182 25.9227 23.3044 25.0828 23.1924C24.3463 23.1019 23.6356 22.878 22.9809 22.5334C22.9465 22.5119 22.9336 22.4645 22.9551 22.43C22.9637 22.4171 22.9766 22.4042 22.9895 22.3999V22.3956Z" fill="white" stroke="#010101" stroke-width="0.262734" stroke-miterlimit="10"/>
<path d="M15.7798 18.8468L26.4183 14.2597C26.4485 14.2468 26.4872 14.2468 26.5173 14.2597L29.4031 15.5174L20.9095 19.2C20.1386 19.5531 19.2943 19.7039 18.4501 19.6436C17.5155 19.5703 16.6067 19.299 15.7798 18.8511V18.8468Z" fill="white" stroke="#010101" stroke-width="0.262734" stroke-miterlimit="10"/>
<path d="M26.577 23.1739V42.6809L25.7371 42.711C25.3064 42.7282 24.88 42.7497 24.4579 42.7714V23.0663C25.1342 23.3333 25.8835 23.3721 26.5813 23.1739H26.577Z" fill="#010101"/>
</svg>
