<svg width="54" height="55" viewBox="0 0 54 55" fill="none" xmlns="http://www.w3.org/2000/svg">
<mask id="mask0_2_454" style="mask-type:luminance" maskUnits="userSpaceOnUse" x="13" y="15" width="28" height="25">
<path d="M40.1469 15.4871H13.8132V39.0814H40.1469V15.4871Z" fill="white"/>
</mask>
<g mask="url(#mask0_2_454)">
<path d="M29.7491 25.9414C29.4476 25.8466 29.1546 25.7174 28.8575 25.6055C28.3019 25.3944 28.0392 24.9464 27.8539 24.4123C27.686 23.9256 27.8281 23.4949 28.0089 23.06C28.1123 22.8188 28.2372 22.5819 28.3449 22.3449C28.5043 22.0607 28.444 21.7032 28.1942 21.4921C28.0089 21.3069 27.8195 21.1174 27.6342 20.9322C27.5093 20.803 27.3327 20.7297 27.1519 20.7254C27.0399 20.7254 26.9322 20.7514 26.8288 20.803C26.5403 20.9365 26.2431 21.0614 25.9631 21.2122C25.7521 21.3242 25.5152 21.3802 25.274 21.3802C24.9682 21.3672 24.6666 21.2983 24.3867 21.1734C23.8784 20.9667 23.6415 20.5618 23.4521 20.0966C23.3745 19.9114 23.3056 19.7177 23.2496 19.5238C23.1893 19.218 22.9955 18.9553 22.7241 18.8088H21.432C21.2252 18.9079 21.0659 19.0802 20.984 19.2955C20.9152 19.5066 20.829 19.709 20.7687 19.92C20.6137 20.5876 20.1012 21.1131 19.4421 21.2897C19.2741 21.3457 19.0976 21.3802 18.9166 21.3845C18.7831 21.3845 18.6496 21.3586 18.5247 21.3113C18.1328 21.1519 17.7451 20.9882 17.3575 20.803C17.2455 20.7514 17.1249 20.7254 17 20.7254C16.8062 20.7254 16.6209 20.8116 16.4917 20.9537L15.9447 21.5007C15.6906 21.7161 15.6304 22.0822 15.7983 22.3708C15.9275 22.6421 16.0481 22.9135 16.1817 23.1849C16.3754 23.5596 16.4143 23.9946 16.2893 24.3951C16.1213 24.7785 15.7639 25.4374 15.3331 25.6011C14.9972 25.7304 14.6569 25.8596 14.3209 25.9844C14.0238 26.0749 13.8127 26.3591 13.8127 26.6822V27.4489C13.7998 27.7719 14.0109 28.0648 14.3209 28.1595C14.5794 28.2543 14.8378 28.3534 15.1005 28.4352C15.6218 28.5817 16.0438 28.9693 16.229 29.4776C16.2548 29.5464 16.285 29.6154 16.3066 29.6799C16.4315 29.9643 16.4444 30.283 16.3453 30.5758C16.1773 30.9764 16.018 31.377 15.8371 31.7732C15.6734 32.0618 15.738 32.4236 15.9878 32.6433C16.1687 32.8242 16.3496 33.0093 16.5306 33.1903C16.6598 33.3281 16.8363 33.4099 17.0259 33.4186C17.1421 33.4186 17.2584 33.3841 17.3618 33.3324C17.6288 33.2075 17.9001 33.0912 18.1586 32.9534C18.3869 32.8285 18.6453 32.7595 18.9037 32.7595C19.2268 32.7681 19.5412 32.85 19.8297 32.9964C20.1485 33.1299 20.4069 33.3797 20.5447 33.6985C20.6998 34.0646 20.8462 34.435 20.984 34.8054C21.0702 35.1371 21.3804 35.3654 21.7249 35.3482H22.4571C22.7888 35.3568 23.0817 35.1414 23.1721 34.8227C23.2195 34.6848 23.2668 34.547 23.3143 34.4134C23.3616 34.2799 23.4003 34.1765 23.4478 34.0646C23.5555 33.8191 23.6415 33.5262 23.8311 33.3625C24.2273 33.0265 24.6666 32.7552 25.1663 32.7509V32.7638C25.3601 32.7638 25.5539 32.8026 25.7349 32.8758C26.1009 33.0179 26.4541 33.1903 26.8116 33.3496C26.915 33.397 27.027 33.4229 27.139 33.4272C27.3284 33.4272 27.5093 33.341 27.6342 33.1989C27.8195 33.0179 28.0003 32.8371 28.1813 32.6519C28.4354 32.4365 28.5 32.0704 28.3363 31.7819C28.2286 31.5493 28.1123 31.321 28.0003 31.0841C27.8066 30.6663 27.6773 30.2399 27.8324 29.7747C28.0089 29.232 28.2545 28.7625 28.8187 28.5515C29.1288 28.4352 29.4303 28.2974 29.7447 28.1983C30.0032 28.1294 30.2143 27.9485 30.3262 27.7073V26.4195C30.2099 26.1869 29.9989 26.0103 29.7447 25.9414H29.7491ZM25.9028 30.4768C24.938 31.5622 23.5555 32.1824 22.0996 32.1867C19.2784 32.1867 16.9914 29.9039 16.9827 27.0828C16.9827 26.9148 16.9827 26.7555 17.0043 26.596C17.1335 25.6528 17.4738 24.7569 18.0078 23.9688C18.9813 22.6982 20.4888 21.9573 22.0867 21.9616C24.9121 21.9616 27.1992 24.2616 27.1949 27.0871C27.1949 28.3405 26.7297 29.5464 25.8985 30.4811L25.9028 30.4768Z" fill="#FFED00"/>
<path d="M39.7501 20.1789C39.5519 20.1144 39.358 20.0325 39.1642 19.9593C38.7981 19.8215 38.6259 19.5243 38.5053 19.1755C38.3933 18.8567 38.4881 18.5724 38.6087 18.2882C38.6775 18.1202 38.7594 17.9737 38.8326 17.8187C38.936 17.6335 38.8972 17.3966 38.7336 17.2545C38.613 17.1296 38.4881 17.009 38.3675 16.8884C38.2856 16.7979 38.1693 16.7462 38.0444 16.7462C37.9712 16.7462 37.8979 16.7635 37.8334 16.7936C37.6438 16.8798 37.4501 16.9615 37.2648 17.0606C37.127 17.1339 36.9719 17.1726 36.8126 17.1726C36.6101 17.164 36.4163 17.121 36.2311 17.0348C35.9339 16.897 35.7099 16.6429 35.6152 16.3284C35.5635 16.2078 35.5204 16.0786 35.4816 15.9537C35.4429 15.7513 35.3137 15.5833 35.137 15.4843H34.2929C34.1594 15.5488 34.0517 15.6651 34.0001 15.8072C33.9569 15.9451 33.8967 16.0786 33.8579 16.2164C33.7545 16.6558 33.4229 17.0004 32.9879 17.1167C32.8802 17.1511 32.7639 17.1726 32.6519 17.1769C32.5657 17.1769 32.4753 17.1597 32.3935 17.1296C32.135 17.0262 31.8852 16.9185 31.6268 16.8022C31.5536 16.7678 31.4718 16.7462 31.3899 16.7462C31.265 16.7462 31.1444 16.8022 31.0626 16.897C30.942 17.0133 30.8257 17.1339 30.7051 17.2545C30.5371 17.3966 30.4983 17.6378 30.6103 17.8273C30.6965 18.0082 30.7783 18.1848 30.8644 18.3614C30.9936 18.6069 31.0195 18.8911 30.9334 19.1582C30.8214 19.408 30.5974 19.843 30.3045 19.9507L29.6413 20.2006C29.4388 20.2608 29.301 20.4504 29.3053 20.6614V21.1653C29.301 21.3807 29.4388 21.5702 29.6413 21.6305C29.8092 21.6908 29.9772 21.7554 30.1495 21.8114C30.4897 21.9018 30.7653 22.156 30.8903 22.4876C30.9075 22.535 30.9248 22.578 30.942 22.6211C31.0238 22.8063 31.0324 23.0174 30.9635 23.2112C30.8601 23.4739 30.7481 23.7366 30.6275 23.9951C30.5198 24.1846 30.563 24.4258 30.7266 24.568C30.8472 24.6843 30.9635 24.8092 31.0841 24.9254C31.1703 25.0158 31.2865 25.0719 31.4114 25.0762C31.489 25.0762 31.5665 25.0547 31.6397 25.0202C31.8077 24.9384 31.9929 24.8608 32.1609 24.7703C32.3116 24.6886 32.4796 24.6454 32.6519 24.6454C32.863 24.6497 33.0697 24.7058 33.2592 24.8006C33.4702 24.8866 33.6382 25.0547 33.7287 25.2614C33.832 25.5026 33.9268 25.7438 34.0173 25.9893C34.0732 26.209 34.2757 26.3597 34.504 26.3468H34.9863C35.2017 26.3554 35.3956 26.2176 35.4558 26.0108C35.486 25.9246 35.5161 25.8299 35.5506 25.7438C35.585 25.6576 35.6066 25.5887 35.6367 25.5155C35.6841 25.3475 35.7702 25.1882 35.8865 25.0547C36.1234 24.8178 36.4336 24.6756 36.7652 24.654C36.8944 24.654 37.0193 24.6799 37.1399 24.7273C37.3811 24.8221 37.6094 24.9341 37.8463 25.0417C37.9152 25.0719 37.9884 25.0891 38.0616 25.0891C38.1865 25.0891 38.3028 25.0331 38.389 24.9427L38.7508 24.5809C38.9187 24.4387 38.9575 24.1975 38.8498 24.008C38.7766 23.8529 38.7034 23.7022 38.6302 23.5515C38.4794 23.2887 38.4406 22.9786 38.5225 22.69C38.6388 22.3368 38.7981 22.031 39.1729 21.8846C39.3753 21.8071 39.5734 21.7166 39.7845 21.652C39.9524 21.6047 40.0946 21.4884 40.1678 21.3289V20.4848C40.0859 20.3298 39.9438 20.2178 39.7716 20.1746L39.7501 20.1789ZM37.2175 23.1595C36.5843 23.8702 35.6755 24.275 34.7236 24.275C32.8716 24.275 31.3684 22.7762 31.3641 20.9198C31.3641 20.8121 31.3641 20.7045 31.3813 20.5968C31.4631 19.9766 31.6914 19.3865 32.0403 18.8696C32.6777 18.0341 33.6684 17.5473 34.7193 17.5517C36.5757 17.5517 38.0831 19.0506 38.0831 20.9069C38.0831 21.7382 37.7773 22.5393 37.2218 23.1552H37.2175V23.1595Z" fill="#FFED00"/>
<path d="M39.638 32.9064C39.4399 32.8462 39.2461 32.76 39.0522 32.6868C38.6861 32.549 38.5139 32.2517 38.3932 31.9029C38.2813 31.5842 38.376 31.2999 38.4966 31.0157C38.5655 30.8562 38.6474 30.7012 38.7205 30.5462C38.8239 30.361 38.7852 30.1241 38.6215 29.982L38.2554 29.6159C38.1736 29.5254 38.0573 29.478 37.9324 29.4737C37.8592 29.4737 37.7859 29.4909 37.7214 29.5254C37.5318 29.6115 37.338 29.6933 37.1528 29.7924C37.0106 29.8657 36.8556 29.9044 36.6963 29.9044C36.4938 29.8958 36.3 29.8528 36.1148 29.7709C35.8176 29.6331 35.5936 29.3789 35.4988 29.0645C35.4472 28.9396 35.4041 28.8148 35.3653 28.6898C35.3266 28.4917 35.2017 28.3194 35.0294 28.2203H34.1852C34.0517 28.2849 33.944 28.4012 33.8923 28.5433C33.8492 28.6811 33.7889 28.8148 33.7502 28.9526C33.5994 29.5039 33.1041 29.8915 32.5356 29.913C32.4494 29.913 32.359 29.8958 32.2771 29.8657C32.0187 29.7623 31.7646 29.6546 31.5105 29.5383C31.4373 29.5039 31.3554 29.4823 31.2736 29.4823C31.1486 29.4823 31.0323 29.5383 30.9463 29.6331L30.5845 29.9906C30.4165 30.1327 30.3777 30.3739 30.4897 30.5634C30.5758 30.74 30.6576 30.9209 30.7395 31.0974C30.8687 31.343 30.8945 31.6272 30.8084 31.8943C30.6965 32.1441 30.4725 32.5705 30.1796 32.6868C29.9599 32.7729 29.7359 32.8548 29.512 32.9366C29.3095 32.9969 29.1717 33.1865 29.176 33.3974V33.8928C29.1674 34.1082 29.3095 34.2976 29.512 34.358C29.68 34.4225 29.8479 34.4829 30.0202 34.5388C30.3648 34.6336 30.6404 34.8877 30.761 35.2237C30.7782 35.2668 30.7955 35.3141 30.8128 35.3572C30.8945 35.5424 30.9031 35.7535 30.8343 35.943C30.7266 36.21 30.6189 36.4684 30.4983 36.7311C30.3906 36.9207 30.4337 37.1576 30.5974 37.304C30.718 37.4246 30.8343 37.5452 30.9592 37.6615C31.041 37.7519 31.1616 37.808 31.2822 37.8123C31.3597 37.8123 31.4373 37.7908 31.5105 37.7562C31.6784 37.6745 31.8637 37.5969 32.0359 37.5064C32.1867 37.4246 32.3547 37.3815 32.5269 37.3815C32.738 37.3858 32.9447 37.4419 33.1343 37.5366C33.3453 37.6227 33.5133 37.7865 33.6037 37.9974C33.7071 38.2387 33.8019 38.4799 33.8923 38.7254C33.9483 38.9451 34.1508 39.0958 34.3791 39.0829H34.8614C35.0768 39.0915 35.2705 38.9537 35.3309 38.7469C35.361 38.6564 35.3911 38.566 35.4257 38.4756C35.4558 38.3851 35.4816 38.3205 35.5117 38.2473C35.5592 38.0793 35.6453 37.92 35.7616 37.7865C35.9985 37.5539 36.3086 37.4117 36.6402 37.3858C36.7694 37.3858 36.8943 37.4117 37.015 37.4591C37.2562 37.5539 37.4888 37.6659 37.7214 37.7691C37.7902 37.7994 37.8635 37.8166 37.9367 37.8209C38.0616 37.8209 38.1779 37.7648 38.264 37.6702C38.3846 37.5539 38.5052 37.4332 38.6215 37.3083C38.7895 37.1662 38.8282 36.925 38.7205 36.7354C38.6517 36.5804 38.5741 36.4297 38.5009 36.2789C38.3502 36.0162 38.3114 35.7061 38.3932 35.4175C38.5095 35.0643 38.6689 34.7585 39.0436 34.6164C39.2461 34.5388 39.4442 34.4485 39.6552 34.3838C39.8232 34.3365 39.9653 34.2202 40.0386 34.0607V33.2166C39.9567 33.0615 39.8103 32.9495 39.638 32.9064ZM37.1054 35.887C36.4723 36.6019 35.5635 37.0069 34.6073 37.0069C32.7552 37.0069 31.252 35.5037 31.2477 33.6516C31.2477 33.5396 31.252 33.432 31.2649 33.3329C31.3468 32.7126 31.5751 32.1225 31.9239 31.6057C32.5614 30.7745 33.552 30.2834 34.603 30.2877C36.4594 30.2877 37.9626 31.7909 37.9626 33.6473C37.9626 34.4743 37.6567 35.2711 37.1097 35.887H37.1054Z" fill="#FFED00"/>
<path d="M24.6368 28.3289C24.6411 28.3677 24.6454 28.4064 24.6497 28.4452V29.9139C24.6497 30.0173 24.6195 30.0561 24.5162 30.0561C23.1293 30.0561 21.7381 30.0561 20.3512 30.0561C20.1832 30.0561 20.2306 29.9441 20.2134 29.8493H20.0109C19.6707 29.8665 19.3778 29.6038 19.3605 29.2636C19.3605 29.2421 19.3605 29.2205 19.3605 29.2032V24.9306C19.339 24.5946 19.5931 24.3018 19.9291 24.2759C19.9592 24.2759 19.9851 24.2759 20.0153 24.2759H21.0447C21.1351 24.2759 21.1825 24.2587 21.2126 24.1596C21.2945 23.7849 21.6648 23.548 22.0439 23.6299C22.3109 23.6901 22.522 23.9012 22.578 24.1683C22.5995 24.2587 22.6426 24.2759 22.7244 24.2759H23.784C24.12 24.2587 24.4042 24.5172 24.4214 24.8574C24.4214 24.8789 24.4214 24.8962 24.4214 24.9177V25.034C24.4128 25.1244 24.4472 25.1675 24.5377 25.1589C24.6282 25.1503 24.6583 25.1976 24.654 25.2838V25.8523C24.654 26.0419 24.598 26.1064 24.3956 26.1883V25.6973C24.3956 25.5077 24.2994 25.413 24.107 25.413H20.6613C20.5378 25.413 20.4761 25.4761 20.4761 25.6025V29.6081C20.4761 29.7287 20.5364 29.789 20.657 29.789H24.2146C24.3266 29.789 24.3827 29.733 24.3827 29.6211V28.6476C24.387 28.4969 24.4903 28.3677 24.6325 28.3246L24.6368 28.3289ZM20.7863 24.8229H20.1272C19.9205 24.8229 19.9162 24.8229 19.9162 25.0254V29.0697C19.9162 29.1085 19.9162 29.1473 19.9162 29.186C19.9205 29.2161 19.9377 29.2421 19.9635 29.2593C20.0454 29.3066 20.1488 29.2808 20.1961 29.1989C20.2134 29.1688 20.222 29.1344 20.2177 29.1041V25.4819C20.2177 25.2694 20.3225 25.1603 20.5321 25.1546C20.5537 25.1589 20.5752 25.1589 20.5967 25.1546C20.6225 25.146 20.6483 25.1287 20.6657 25.1072C20.7087 25.0211 20.7431 24.9349 20.7863 24.8229ZM22.9958 24.8229C23.0345 24.9005 23.0646 24.978 23.0906 25.0598C23.0992 25.1244 23.1594 25.1675 23.2198 25.1546H23.7452C23.8313 25.1546 23.8701 25.1244 23.8615 25.0383C23.8528 24.9521 23.9089 24.8272 23.7624 24.8229C23.5126 24.8143 23.2628 24.8229 22.9958 24.8229ZM21.8931 24.0692C21.7596 24.0692 21.6476 24.1726 21.6433 24.3061C21.6433 24.4396 21.751 24.5473 21.8845 24.5559C22.018 24.5559 22.1257 24.4525 22.13 24.319C22.1343 24.1855 22.0309 24.0735 21.9017 24.0692H21.8974H21.8931Z" fill="white"/>
<path d="M23.1034 28.1728C23.3575 27.8498 23.5901 27.5353 23.8443 27.2339C24.2879 26.7127 24.7833 26.2432 25.326 25.8254C25.4379 25.7221 25.6016 25.7048 25.7308 25.7824C25.86 25.847 25.9246 25.9891 25.8901 26.1312C25.8686 26.2174 25.8213 26.2906 25.7566 26.3466C24.8521 27.0486 24.0812 27.9058 23.4781 28.8792C23.3878 29.0428 23.181 29.0988 23.0173 29.0084C22.9915 28.9955 22.9656 28.974 22.9441 28.9524C22.5607 28.638 22.1817 28.3278 21.7984 28.0178C21.6477 27.9101 21.6132 27.6991 21.7252 27.5482C21.8329 27.3975 22.0439 27.3674 22.1946 27.4751C22.466 27.6689 22.7288 27.8799 22.9958 28.0824C23.0346 28.1082 23.069 28.1384 23.1034 28.1728Z" fill="white"/>
<path d="M36.9763 32.955C37.2261 33.5753 37.1443 34.5702 36.5069 35.2981C35.8952 36.0002 34.939 36.2887 34.0388 36.0475C34.082 35.9011 34.1207 35.759 34.168 35.6125C34.3447 35.031 34.5255 34.4496 34.7064 33.8724C34.7237 33.8208 34.7581 33.7776 34.8055 33.7561C35.5162 33.4891 36.2311 33.222 36.9418 32.9593C36.9504 32.9593 36.9634 32.9593 36.972 32.9593L36.9763 32.955Z" fill="white"/>
<path d="M33.8926 36.0054C32.2386 35.4412 31.8424 33.559 32.5745 32.4564C32.6047 32.4736 32.6392 32.4909 32.6693 32.5124C33.2809 32.9086 33.8883 33.3092 34.4998 33.6968C34.5644 33.727 34.5903 33.8002 34.5601 33.8648C34.3534 34.5238 34.151 35.1871 33.9442 35.8504C33.927 35.9021 33.9141 35.9538 33.8926 36.0054Z" fill="white"/>
<path d="M35.1332 31.3131C34.9954 32.0884 34.8532 32.868 34.7111 33.6648L32.6566 32.3253C33.195 31.5113 34.1769 31.1107 35.1332 31.3088V31.3131Z" fill="white"/>
<path d="M34.7111 23.0082C35.8623 23.0082 36.7957 22.0748 36.7957 20.9235C36.7957 19.7722 35.8623 18.8389 34.7111 18.8389C33.5597 18.8389 32.6263 19.7722 32.6263 20.9235C32.6263 22.0748 33.5597 23.0082 34.7111 23.0082Z" fill="white"/>
</g>
</svg>
