<svg width="54" height="55" viewBox="0 0 54 55" fill="none" xmlns="http://www.w3.org/2000/svg">
<path d="M33.968 28.7205C34.6442 28.4148 35.1826 28.6775 35.1826 29.3623C35.1309 30.1505 34.67 30.8483 33.968 31.2144C32.8266 31.7355 31.6336 32.1318 30.406 32.4031C29.8633 32.5409 29.3121 32.2094 29.1742 31.6666C29.1483 31.5719 29.1397 31.4728 29.144 31.378C29.144 30.6889 29.7126 30.0601 30.406 29.9094C31.6336 29.6379 32.8266 29.2374 33.968 28.7119M33.968 28.5483C32.8266 29.0737 31.6336 29.4743 30.406 29.7456C29.6178 29.918 28.9761 30.62 28.9761 31.4039C28.9502 32.0413 29.4413 32.5754 30.0744 32.6056C30.1863 32.6099 30.294 32.6013 30.4017 32.5711C31.6293 32.2997 32.8223 31.8992 33.9637 31.3737C34.7562 30.9603 35.2774 30.1635 35.3377 29.2719C35.3377 28.4879 34.739 28.2037 33.9637 28.5483H33.968Z" fill="#FFED00"/>
<path d="M30.5137 30.1536C30.7635 30.0805 31.0306 30.1149 31.2502 30.2484C31.4527 30.3862 31.5647 30.6231 31.5475 30.8643C31.5475 31.1529 31.4398 31.4285 31.2502 31.6439C31.0608 31.8765 30.7937 32.0402 30.5008 32.1047C30.251 32.1737 29.9839 32.1263 29.7772 31.9712C29.5834 31.8162 29.4757 31.5793 29.4886 31.3294C29.4886 31.0495 29.592 30.7825 29.7815 30.5757C29.9753 30.3561 30.2337 30.2054 30.5181 30.1493L30.5137 30.1536Z" fill="#FFED00"/>
<path d="M33.4947 29.2385L33.7488 29.1308V31.0302L33.5205 31.1292C33.1027 30.8192 32.6806 30.4875 32.2628 30.143V31.6074L32.0087 31.6892V29.7769L32.2284 29.7036C32.6547 30.0525 33.0769 30.3842 33.499 30.7029V29.2342L33.4947 29.2385Z" fill="white"/>
<path d="M20.254 30.5723V30.8694C20.0214 30.8867 19.7889 30.835 19.5821 30.7273C19.3839 30.6326 19.2117 30.5034 19.0653 30.3397C18.9231 30.1846 18.8068 30.0081 18.725 29.8142C18.6475 29.642 18.6044 29.4567 18.6001 29.2672C18.5699 29.0475 18.6862 28.8323 18.8844 28.7289C19.1169 28.647 19.3753 28.6728 19.5864 28.8063C19.819 28.9269 20.0387 29.0777 20.2325 29.2543V29.5429C20.0516 29.3491 19.8362 29.1897 19.6036 29.0648C19.4486 28.9658 19.2547 28.9442 19.0825 29.0088C18.9404 29.0907 18.8628 29.2457 18.8844 29.4094C18.8844 29.6291 18.9576 29.8443 19.0825 30.0253C19.2117 30.2234 19.3926 30.3828 19.6036 30.4861C19.8061 30.5938 20.0387 30.624 20.2583 30.5766L20.254 30.5723Z" fill="white"/>
<path d="M21.9172 29.7585L22.2446 29.8617C22.012 30.0857 21.7837 30.3054 21.5511 30.5208V31.52L21.2798 31.421V30.4217C21.0515 30.0427 20.8232 29.6594 20.595 29.2717C20.7026 29.3148 20.8103 29.3579 20.918 29.4009C21.0816 29.6809 21.2496 29.9608 21.4133 30.2365C21.5855 30.0814 21.7536 29.9221 21.9215 29.7628L21.9172 29.7585Z" fill="white"/>
<path d="M23.3172 32.0316C23.1019 31.9799 22.8908 31.9282 22.6754 31.868V29.9814C22.8392 30.0288 23.0028 30.0676 23.1707 30.1107C23.3 30.1365 23.4249 30.1881 23.5369 30.2571C23.6187 30.313 23.6876 30.3863 23.735 30.4725C23.7824 30.5542 23.8039 30.6447 23.8039 30.7395C23.8168 30.9118 23.6876 31.0625 23.511 31.0754C23.6403 31.1228 23.7522 31.2046 23.8427 31.3123C23.9202 31.4071 23.9632 31.5234 23.9632 31.6483C23.9632 31.7345 23.9417 31.8205 23.8901 31.8938C23.834 31.9627 23.7566 32.0144 23.6704 32.0316C23.5541 32.0618 23.4292 32.0618 23.3129 32.0316H23.3172ZM23.1794 30.3605L22.9468 30.3044V30.8687L23.1277 30.9118C23.2268 30.9548 23.3388 30.9548 23.4335 30.9118C23.4981 30.8687 23.5369 30.7912 23.524 30.7137C23.524 30.5241 23.4077 30.4078 23.175 30.3519V30.3605H23.1794ZM23.2009 31.1573L22.9511 31.097V31.6956C23.0372 31.7215 23.1277 31.7431 23.2182 31.7603C23.3172 31.7904 23.4206 31.799 23.5196 31.7904C23.5713 31.7818 23.6144 31.756 23.6489 31.7129C23.679 31.6698 23.6962 31.6182 23.6962 31.5664C23.6962 31.5062 23.679 31.4501 23.6446 31.3985C23.6058 31.3425 23.5584 31.2951 23.4981 31.2607C23.4033 31.2132 23.3043 31.1788 23.2009 31.1573Z" fill="white"/>
<path d="M24.462 30.3649C24.8238 30.4209 25.1814 30.464 25.5432 30.4984V30.7396C25.2717 30.7138 25.0047 30.6836 24.7463 30.6492V31.222C25.0047 31.2564 25.2674 31.2867 25.5259 31.3125V31.5537C25.2674 31.5278 25.0047 31.4977 24.7463 31.4632V32.049C25.022 32.0878 25.302 32.1179 25.5819 32.1437V32.3849C25.2115 32.3505 24.8411 32.3031 24.4749 32.2471L24.4663 30.3735L24.462 30.3649Z" fill="white"/>
<path d="M26.1765 30.4558C26.3746 30.4558 26.5943 30.473 26.8011 30.4773C27.2016 30.4773 27.5031 30.6152 27.5031 31.0243C27.5031 31.4335 27.2059 31.623 26.8011 31.623H26.4349V32.4327H26.1765V30.4601V30.4558ZM26.7751 31.4076C27.0853 31.4076 27.2576 31.2827 27.2576 31.0286C27.2576 30.7745 27.0896 30.6797 26.7751 30.6797H26.4479V31.4076C26.5469 31.4076 26.6589 31.4076 26.7665 31.4076H26.7751ZM26.9604 31.4076C27.1629 31.7522 27.3696 32.0881 27.572 32.4241H27.2834C27.1068 32.127 26.9346 31.8297 26.7622 31.5282L26.9647 31.4076H26.9604Z" fill="white"/>
<path d="M28.1619 30.5224L28.4332 30.4966V32.3745L28.1619 32.4003V30.5224Z" fill="white"/>
<path d="M27.1715 18.3149C26.8183 18.19 26.4307 18.19 26.0775 18.3149C23.42 19.284 11.9975 22.0405 9.65016 22.833C9.54249 22.8718 9.48219 22.9924 9.52095 23.1C9.54249 23.1647 9.59418 23.212 9.65878 23.2336L26.7063 28.0446C26.8915 28.0963 27.0853 28.0963 27.2705 28.0446C32.0601 26.576 41.6391 23.9658 44.2621 23.2552C44.3741 23.2206 44.4344 23.1 44.3999 22.988C44.3784 22.9278 44.3353 22.8761 44.275 22.8545L27.1715 18.3149Z" stroke="#FFED00" stroke-width="1.11984" stroke-miterlimit="10"/>
<path d="M37.0003 25.2282V31.7189C37.0003 32.0549 36.8194 32.3694 36.5308 32.5416C30.8024 35.9701 23.9282 35.9615 17.459 32.5158C17.1445 32.3521 16.9507 32.0248 16.9464 31.6716V25.4694L26.1895 27.8943C26.5254 27.9804 26.8742 27.9761 27.2059 27.8814L36.9916 25.2239L37.0003 25.2282Z" stroke="#FFED00" stroke-width="1.11984" stroke-miterlimit="10"/>
<path d="M43.6423 24.6759V31.5672C44.0816 31.6577 44.3917 32.0496 44.3788 32.4976C44.4348 32.9498 44.1677 33.3761 43.737 33.5227C43.9179 34.4056 44.0989 35.2713 44.2797 36.1586C44.3272 36.374 44.1892 36.585 43.974 36.6324C43.9438 36.641 43.9136 36.641 43.8792 36.641H42.8153C42.5957 36.6453 42.4105 36.473 42.4062 36.249C42.4062 36.2189 42.4062 36.1887 42.4148 36.1543C42.5957 35.2799 42.7722 34.4099 42.9532 33.5313C42.5181 33.3675 42.2554 32.924 42.3157 32.4674C42.3157 32.0324 42.6215 31.6577 43.0479 31.5715V24.8309L43.6294 24.6716" fill="white"/>
</svg>
