<svg width="54" height="55" viewBox="0 0 54 55" fill="none" xmlns="http://www.w3.org/2000/svg">
<path d="M10.7913 20.3379V18.447C10.8472 18.2877 10.9722 18.1628 11.1358 18.1154C15.4731 16.5563 19.8103 14.997 24.1433 13.4293C24.3027 13.369 24.4793 13.3776 24.63 13.4508C27.1239 14.5965 29.6133 15.7422 32.1028 16.8922C32.723 17.1764 33.339 17.4608 33.9549 17.745C34.1099 17.801 34.2133 17.9474 34.2176 18.1111V19.9761C34.2176 20.1914 34.0454 20.3637 33.83 20.3637C33.787 20.3637 33.7438 20.3551 33.7051 20.3422L33.5328 20.2948V30.2959C33.5501 30.5027 33.4251 30.6965 33.2313 30.7697C31.1036 31.7689 28.9759 32.7682 26.8481 33.7718L24.4707 34.8916H24.2811C24.0916 34.8184 23.9064 34.7452 23.7169 34.6762L11.9585 30.3562C11.6139 30.2313 11.5622 30.1538 11.5622 29.7834V20.5576L11.3986 20.592C11.0755 20.6696 10.9506 20.6221 10.7913 20.3336V20.3379ZM23.9667 17.478L23.8504 17.5038L19.5519 18.5676L12.4968 20.3164C12.4022 20.3379 12.3633 20.3723 12.3633 20.48V29.5465C12.3504 29.624 12.4022 29.6929 12.4753 29.7101C13.199 29.9729 13.9139 30.2399 14.6375 30.5027L15.2491 30.7266V24.7397C15.2491 24.5545 15.2836 24.5201 15.4645 24.5244L17.2304 24.5761C17.4457 24.5761 17.4716 24.6062 17.4716 24.8173V31.4158C17.4587 31.489 17.506 31.5622 17.5793 31.5794L23.2905 33.6856L23.971 33.9354V17.478H23.9667ZM28.9457 21.5611V19.7349C28.9457 19.5626 28.9328 19.5411 28.7691 19.5023L26.7664 19.0156C26.6199 18.9768 26.551 19.0285 26.551 19.1793C26.551 20.5834 26.551 21.9789 26.551 23.3744C26.551 23.5036 26.594 23.5467 26.7146 23.551C27.3823 23.5768 28.0499 23.5984 28.7218 23.6156C28.9113 23.6156 28.9414 23.5898 28.9414 23.3959C28.9457 22.78 28.9457 22.1727 28.9457 21.5611ZM28.9457 26.6694C28.9457 26.0491 28.9457 25.4332 28.9457 24.8173C28.9457 24.6536 28.8983 24.6192 28.7433 24.6235L26.7362 24.7096C26.5897 24.7096 26.5467 24.7527 26.5467 24.8905V29.0727C26.5467 29.2364 26.6113 29.2794 26.7664 29.2364L28.7519 28.7282C28.9242 28.685 28.9371 28.6678 28.9371 28.4956C28.9371 27.8882 28.9371 27.2766 28.9371 26.6651V26.6737L28.9457 26.6694ZM30.8882 26.3463C30.8882 26.8804 30.8882 27.4144 30.8882 27.9486C30.8882 28.1294 30.9485 28.1811 31.1208 28.1381C31.5214 28.039 31.9219 27.9313 32.3225 27.8323C32.4259 27.8151 32.4991 27.7203 32.4861 27.6126V24.6838C32.4861 24.5201 32.4474 24.477 32.2838 24.4857C31.8875 24.5029 31.487 24.5158 31.0907 24.533C30.927 24.533 30.8925 24.5804 30.8925 24.7441C30.8968 25.2696 30.9012 25.7993 30.9012 26.3377L30.8925 26.3463H30.8882ZM32.4905 22.0565V20.5877C32.5034 20.4929 32.4388 20.4025 32.3397 20.3896H32.3268C31.9262 20.2948 31.5171 20.1914 31.1208 20.0924C30.9399 20.045 30.8839 20.0924 30.8839 20.2819V23.4261C30.8839 23.6113 30.9098 23.6414 31.095 23.6501C31.4913 23.663 31.8918 23.6759 32.2881 23.6888C32.4517 23.6888 32.4818 23.6544 32.4818 23.495C32.4948 23.0169 32.4948 22.5345 32.4948 22.0521L32.4861 22.0608L32.4905 22.0565Z" fill="#FFED00"/>
<path d="M21.779 21.2438V23.3112C21.779 23.5137 21.7531 23.5352 21.5507 23.5395L18.9836 23.6042C18.7726 23.6042 18.7424 23.5826 18.7424 23.3673V19.7105C18.7424 19.5167 18.7553 19.5038 18.9406 19.465L21.5679 18.9567C21.7315 18.9266 21.779 18.974 21.779 19.1377V21.2438Z" fill="#F3E84F"/>
<path d="M21.7791 27.0181V29.0597C21.7791 29.2966 21.7446 29.3267 21.512 29.2794C20.642 29.1071 19.7719 28.9262 18.9019 28.7668C18.8028 28.7582 18.7296 28.6763 18.7382 28.5773V24.8215C18.7382 24.6578 18.7856 24.6277 18.9407 24.632L21.5809 24.7181C21.7446 24.7181 21.7748 24.7569 21.7748 24.9206V27.0181H21.7791Z" fill="#F3E84F"/>
<path d="M17.4628 21.7131V23.4447C17.4628 23.6083 17.4369 23.6384 17.2689 23.6427L15.4428 23.6902C15.2791 23.6902 15.2403 23.6556 15.2403 23.4963V20.3436C15.2274 20.2488 15.292 20.1583 15.3911 20.1454C15.3997 20.1454 15.404 20.1454 15.4126 20.1454C16.0113 20.0291 16.6186 19.9128 17.213 19.7965C17.4154 19.7577 17.4628 19.7965 17.4628 20.0033V21.7131Z" fill="#F3E84F"/>
<path d="M14.3957 22.0472V23.5031C14.3957 23.671 14.3655 23.7098 14.1976 23.7141L12.8581 23.7486C12.7203 23.7486 12.6772 23.7098 12.6772 23.5719V20.8111C12.6642 20.7293 12.7246 20.6518 12.8064 20.6388H12.815C13.2716 20.5527 13.7281 20.4622 14.189 20.3718C14.3397 20.3459 14.3957 20.3891 14.3957 20.5441C14.3957 21.048 14.3957 21.5477 14.3957 22.0429V22.0472Z" fill="#F3E84F"/>
<path d="M14.3959 26.1516V27.6074C14.3959 27.8099 14.3443 27.8486 14.1504 27.8099C13.7197 27.7237 13.2934 27.6375 12.854 27.5557C12.6903 27.5212 12.6688 27.4997 12.6688 27.336V24.6355C12.6688 24.4718 12.7076 24.4287 12.8712 24.4373L14.1677 24.4761C14.3486 24.4761 14.383 24.5149 14.383 24.6958L14.3959 26.1516Z" fill="#F3E84F"/>
<path d="M33.2532 34.958C36.2909 34.958 38.7534 32.4956 38.7534 29.4578C38.7534 26.4202 36.2909 23.9577 33.2532 23.9577C30.2155 23.9577 27.7531 26.4202 27.7531 29.4578C27.7531 32.4956 30.2155 34.958 33.2532 34.958Z" fill="white" stroke="#010101" stroke-width="0.555617" stroke-miterlimit="10"/>
<path d="M33.253 33.4757C35.4723 33.4757 37.2715 31.6765 37.2715 29.4572C37.2715 27.2378 35.4723 25.4386 33.253 25.4386C31.0336 25.4386 29.2344 27.2378 29.2344 29.4572C29.2344 31.6765 31.0336 33.4757 33.253 33.4757Z" fill="#FFED00"/>
<path d="M34.6532 27.3159H35.2347V31.6015H34.7048L31.8449 28.3022V31.6015H31.2678V27.3159H31.7631L34.6532 30.6453V27.3159Z" fill="#020C01"/>
<path d="M38.0729 35.5178L36.6903 33.7562" stroke="white" stroke-width="0.753745" stroke-miterlimit="10"/>
<path d="M39.2101 34.5704L37.104 36.2071C36.8886 36.3708 36.8499 36.6722 37.0092 36.8876C37.0135 36.8919 37.0178 36.9005 37.0221 36.9048L40.3085 40.9104C40.8597 41.5824 41.8547 41.6857 42.5309 41.1344C43.2114 40.5874 43.3148 39.5882 42.7678 38.912L40.709 36.3578" stroke="white" stroke-width="0.753745" stroke-miterlimit="10" stroke-linecap="round"/>
</svg>
