<svg width="54" height="55" viewBox="0 0 54 55" fill="none" xmlns="http://www.w3.org/2000/svg">
<mask id="mask0_2_515" style="mask-type:luminance" maskUnits="userSpaceOnUse" x="15" y="10" width="24" height="35">
<path d="M38.3128 10.9937H15.6118V44.3938H38.3128V10.9937Z" fill="white"/>
</mask>
<g mask="url(#mask0_2_515)">
<path d="M34.7757 24.4181H19.1527C18.6382 24.4181 18.2211 24.8352 18.2211 25.3497V40.9728C18.2211 41.4872 18.6382 41.9044 19.1527 41.9044H34.7757C35.2902 41.9044 35.7073 41.4872 35.7073 40.9728V25.3497C35.7073 24.8352 35.2902 24.4181 34.7757 24.4181Z" stroke="white" stroke-width="0.467932" stroke-miterlimit="10"/>
<path d="M36.1922 17.0194H32.3939V15.3669C32.3939 14.8737 31.9934 14.4774 31.5044 14.4774H29.4514C29.7128 13.1031 28.8107 11.7752 27.4363 11.5138C26.062 11.2525 24.7341 12.1546 24.4728 13.5289C24.4138 13.8409 24.4138 14.1612 24.4728 14.4732H22.4114C21.9181 14.4732 21.5218 14.8737 21.5218 15.3627V17.0151H17.7278C16.8215 17.0151 16.0837 17.753 16.0837 18.6593V42.275C16.0837 43.1814 16.8215 43.9192 17.7278 43.9192H36.1922C37.0985 43.9192 37.8362 43.1814 37.8362 42.275V18.6551C37.832 17.7487 37.0943 17.0194 36.1922 17.0194Z" stroke="#FFED00" stroke-width="0.944295" stroke-miterlimit="10"/>
<path d="M21.7368 30.4846C20.7672 30.4846 19.9832 29.7004 19.9832 28.7308C19.9832 27.7612 20.7672 26.9772 21.7368 26.9772C22.7064 26.9772 23.4906 27.7612 23.4906 28.7308C23.4906 29.7004 22.7064 30.4846 21.7368 30.4846Z" fill="#FFED00"/>
<path d="M21.7368 35.23C20.7672 35.23 19.9832 34.4459 19.9832 33.4763C19.9832 32.5067 20.7672 31.7225 21.7368 31.7225C22.7064 31.7225 23.4906 32.5067 23.4906 33.4763C23.4906 34.4459 22.7064 35.23 21.7368 35.23Z" fill="#FFED00"/>
<path d="M21.7368 40.0656C20.7672 40.0656 19.9832 39.2815 19.9832 38.3119C19.9832 37.3423 20.7672 36.5582 21.7368 36.5582C22.7064 36.5582 23.4906 37.3423 23.4906 38.3119C23.4906 39.2815 22.7064 40.0656 21.7368 40.0656Z" fill="#FFED00"/>
<path d="M24.8055 27.4586H33.9408" stroke="white" stroke-width="0.269799" stroke-miterlimit="10" stroke-linecap="round"/>
<path d="M24.8055 28.624H33.9408" stroke="white" stroke-width="0.269799" stroke-miterlimit="10" stroke-linecap="round"/>
<path d="M24.8055 29.7931H33.9408" stroke="white" stroke-width="0.269799" stroke-miterlimit="10" stroke-linecap="round"/>
<path d="M24.8055 32.2169H33.9408" stroke="white" stroke-width="0.269799" stroke-miterlimit="10" stroke-linecap="round"/>
<path d="M24.8055 33.3831H33.9408" stroke="white" stroke-width="0.269799" stroke-miterlimit="10" stroke-linecap="round"/>
<path d="M24.8055 34.5529H33.9408" stroke="white" stroke-width="0.269799" stroke-miterlimit="10" stroke-linecap="round"/>
<path d="M24.8055 37.0854H33.9408" stroke="white" stroke-width="0.269799" stroke-miterlimit="10" stroke-linecap="round"/>
<path d="M24.8055 38.2545H33.9408" stroke="white" stroke-width="0.269799" stroke-miterlimit="10" stroke-linecap="round"/>
<path d="M24.8055 39.4199H33.9408" stroke="white" stroke-width="0.269799" stroke-miterlimit="10" stroke-linecap="round"/>
<path d="M26.9344 15.2943C27.6026 15.2943 28.1443 14.7526 28.1443 14.0844C28.1443 13.4162 27.6026 12.8745 26.9344 12.8745C26.2662 12.8745 25.7245 13.4162 25.7245 14.0844C25.7245 14.7526 26.2662 15.2943 26.9344 15.2943Z" fill="#F4E836"/>
<path d="M34.0255 19.7317C34.7252 19.7317 35.2902 20.2966 35.2902 20.9964C35.2902 21.6963 34.7252 22.2611 34.0255 22.2611H30.4001C29.7003 22.2611 29.1354 21.6963 29.1354 20.9964C29.1354 20.2966 29.7003 19.7317 30.4001 19.7317H34.0255ZM34.0255 19.5631H30.4001C29.6118 19.5631 28.9709 20.2081 28.9709 20.9964C28.9709 21.7889 29.6118 22.4297 30.4043 22.4297H34.0255C34.818 22.4297 35.4588 21.7889 35.4588 20.9964C35.4588 20.2039 34.818 19.5631 34.0255 19.5631Z" fill="#FFED00"/>
<path d="M30.5048 20.0094C30.7788 20.001 31.0486 20.1021 31.2468 20.296C31.445 20.4773 31.5503 20.7387 31.5461 21.0085C31.5546 21.2783 31.445 21.5354 31.2468 21.7125C31.0402 21.9022 30.7704 22.0034 30.488 21.9949C30.2182 22.0034 29.9568 21.9022 29.7587 21.7125C29.5689 21.5312 29.4635 21.274 29.4678 21.0127C29.4593 20.7429 29.5647 20.4858 29.7587 20.296C29.9568 20.1063 30.2266 20.001 30.5006 20.0094H30.5048Z" fill="#FFED00"/>
<path d="M33.5361 20.0382H33.7976V21.9689H33.5615L32.2715 20.4808V21.9689H32.0101V20.0382H32.2336L33.5319 21.5347V20.0382H33.5361Z" fill="white"/>
<path d="M20.1817 21.488V21.7874C19.9667 21.9012 19.7306 21.956 19.4861 21.9518C19.3006 21.9518 19.1151 21.9096 18.9507 21.8211C18.6514 21.6441 18.4701 21.3237 18.4659 20.978C18.4617 20.7124 18.5713 20.4552 18.7652 20.2782C18.9634 20.0885 19.2247 19.9873 19.4987 19.9957C19.7306 20.0042 19.9582 20.0548 20.1648 20.1517V20.4468C19.9667 20.3246 19.7432 20.2613 19.5114 20.2571C19.3091 20.2487 19.1151 20.3246 18.9676 20.4637C18.8243 20.5986 18.7399 20.7841 18.7441 20.9822C18.7441 21.1803 18.8201 21.3658 18.9676 21.5007C19.1151 21.6357 19.3133 21.7115 19.5114 21.7031C19.7474 21.6988 19.9793 21.6229 20.1775 21.488H20.1817Z" fill="white"/>
<path d="M21.8892 20.0253H22.2222L21.5182 20.9147V21.9266H21.2358V20.9232L20.5317 20.0337H20.8606L21.3707 20.6998L21.8892 20.0253Z" fill="white"/>
<path d="M23.3008 21.9326H22.6558V20.023H23.1533C23.2798 20.0187 23.4062 20.0399 23.5243 20.0862C23.6043 20.1241 23.676 20.1874 23.7266 20.2632C23.773 20.3391 23.7983 20.4319 23.7983 20.5204C23.7983 20.7059 23.6802 20.866 23.5073 20.9209C23.6338 20.942 23.7518 21.0009 23.8404 21.0937C23.9205 21.178 23.9668 21.2919 23.9668 21.4099C23.9668 21.5027 23.9416 21.5954 23.891 21.6713C23.8362 21.7556 23.7603 21.8188 23.6676 21.8567C23.5537 21.9073 23.4315 21.9326 23.305 21.9284L23.3008 21.9326ZM23.1617 20.2674H22.9256V20.8408H23.1069C23.2165 20.8534 23.3261 20.8239 23.4146 20.7564C23.4778 20.7017 23.5115 20.6173 23.5073 20.5331C23.5073 20.356 23.402 20.2674 23.1575 20.2674H23.1617ZM23.1828 21.0853H22.9256V21.6965H23.1954C23.2966 21.7008 23.402 21.6881 23.4989 21.6628C23.5537 21.6418 23.5959 21.6038 23.6296 21.5532C23.6634 21.5069 23.6802 21.452 23.6802 21.3931C23.6802 21.334 23.6634 21.275 23.6296 21.2286C23.5917 21.178 23.5411 21.1401 23.4863 21.1232C23.3893 21.0937 23.2882 21.0811 23.187 21.0895L23.1828 21.0853Z" fill="white"/>
<path d="M24.4517 20.0253H25.5351V20.2698H24.7257V20.8516H25.5057V21.0961H24.7257V21.6989H25.5604V21.9434H24.4475V20.0295L24.4517 20.0253Z" fill="white"/>
<path d="M26.1633 19.9365H26.7872C27.1919 19.9365 27.487 20.0841 27.487 20.5014C27.487 20.9188 27.1877 21.0917 26.7872 21.0917H26.4204V21.9348H26.1591V19.9365H26.1633ZM26.745 20.8808C27.0528 20.8808 27.2256 20.7544 27.2256 20.4972C27.2256 20.2401 27.0613 20.1347 26.745 20.1347H26.4247V20.8724L26.745 20.8808ZM26.9306 20.8808L27.5418 21.9263H27.2593L26.7493 21.0242L26.9348 20.8808H26.9306Z" fill="white"/>
<path d="M28.1443 20.0253H28.4183V21.935H28.1443V20.0253Z" fill="white"/>
</g>
</svg>
