<svg width="54" height="55" viewBox="0 0 54 55" fill="none" xmlns="http://www.w3.org/2000/svg">
<path d="M27.1441 35.0317C22.88 38.2276 16.8371 37.3661 13.6369 33.1064C10.4411 28.8423 11.3025 22.7951 15.5665 19.595C19.8262 16.3991 25.8735 17.2605 29.0737 21.5245C30.004 22.7607 30.6199 24.2036 30.874 25.7326" stroke="#FFED00" stroke-width="0.852808" stroke-miterlimit="10" stroke-linecap="round"/>
<path d="M18.4352 23.2374H16.6348V31.3907H18.4352V23.2374Z" fill="white"/>
<path d="M26.0716 24.7578H23.6209V31.3907H21.8205V24.7578H19.3698V23.2374H26.0716V24.7578Z" fill="white"/>
<path d="M30.34 31.9915V32.9864H26.1923C26.1966 32.7323 26.231 32.4998 26.2913 32.2887C26.3516 32.0776 26.4249 31.8968 26.5109 31.7503C26.5971 31.6039 26.722 31.4531 26.8943 31.2894C27.0666 31.1258 27.2174 30.9966 27.3509 30.9018C27.4844 30.8027 27.6739 30.6692 27.928 30.4969C27.9625 30.4754 28.0486 30.4194 28.1864 30.329C28.3285 30.2385 28.4233 30.1739 28.4793 30.1351C28.531 30.0964 28.6129 30.0317 28.7205 29.937C28.8282 29.8423 28.9057 29.7604 28.9488 29.6915C28.9919 29.6226 29.0392 29.5321 29.0823 29.4288C29.1254 29.3254 29.1469 29.2134 29.1469 29.1014C29.1469 28.8516 29.0737 28.6535 28.9229 28.507C28.7722 28.3606 28.5783 28.2831 28.3371 28.2831C27.7557 28.2831 27.45 28.6923 27.4154 29.5106H26.3172V29.39C26.3172 28.7482 26.5023 28.24 26.8728 27.8566C27.2432 27.4776 27.7471 27.2881 28.376 27.2881C28.9488 27.2881 29.4097 27.4475 29.7672 27.7706C30.1246 28.0892 30.3012 28.507 30.3012 29.0196C30.3012 29.4331 30.2065 29.7647 30.017 30.0145C29.8274 30.2643 29.5303 30.5228 29.1297 30.7984C29.078 30.8372 28.9746 30.9018 28.8325 30.9966C28.686 31.0914 28.574 31.1688 28.488 31.2249C28.4061 31.2851 28.3027 31.3584 28.1864 31.4531C28.0701 31.5479 27.9668 31.634 27.8806 31.7245C27.7945 31.8149 27.7213 31.9054 27.6609 31.9958H30.3357L30.34 31.9915Z" fill="white"/>
<path d="M34.9229 30.7287V31.6806H34.1648V32.9814H33.0967V31.6806H30.6718V30.6211L33.1311 27.3046H34.1648V30.7244H34.9229V30.7287ZM33.0967 30.7287V28.6269L31.5935 30.7287H33.0967Z" fill="white"/>
<path d="M37.1624 27.0892H38.1488L35.9478 33.1192H34.9529L37.1581 27.0892H37.1624Z" fill="white"/>
<path d="M42.2232 27.3718V28.3194C41.5987 29.0042 41.1422 29.7106 40.8621 30.4342C40.5779 31.1578 40.4099 32.0106 40.3582 32.984H39.1694C39.1694 32.3035 39.3633 31.498 39.7466 30.5634C40.13 29.6288 40.5693 28.9095 41.0603 28.4098H38.3597V27.3761H42.2232V27.3718Z" fill="white"/>
</svg>
