<svg width="246" height="246" viewBox="0 0 246 246" fill="none" xmlns="http://www.w3.org/2000/svg">
<path fill-rule="evenodd" clip-rule="evenodd" d="M111.475 135.006C99.2029 122.733 89.9985 109.438 84.8849 96.1428C83.8622 93.0746 83.8622 90.0065 86.9304 87.9611L95.112 79.7794C102.271 72.6205 102.271 63.4161 96.1347 57.2798L83.8622 45.0073C75.6806 36.8257 63.4081 36.8257 55.2264 45.0073L48.0675 52.1663C40.9085 59.3253 36.8177 70.575 38.8631 81.8248C43.9766 108.415 59.3172 138.074 84.8849 162.619C109.43 187.164 139.088 203.527 165.679 208.641C176.929 210.686 187.156 207.618 195.337 199.436L202.496 192.277C210.678 184.096 210.678 171.823 202.496 163.642L190.224 151.369C184.088 145.233 174.883 145.233 168.747 151.369L159.543 160.573C157.497 162.619 154.429 163.642 151.361 162.619C137.043 155.46 122.725 146.255 111.475 135.006Z" stroke="black" stroke-width="15.34" stroke-linecap="round" stroke-linejoin="round"/>
</svg>
