<svg width="900" height="600" viewBox="0 0 900 600" fill="none" xmlns="http://www.w3.org/2000/svg">
<g clip-path="url(#clip0_292_12)">
<path d="M543.172 216.133H524.879V252.038C524.879 263.741 537.378 273.74 552.831 273.74C568.283 273.74 581.805 263.628 581.805 252.038V216.133H563.511V248.516C563.511 253.856 558.966 258.174 553.399 258.174C547.717 258.174 543.172 253.856 543.172 248.402V216.133Z" fill="#E21B4D"/>
<path d="M252.975 196.365V270.902H234V181.025H268.201C283.086 181.025 295.244 193.07 295.244 207.727C295.244 220.226 286.494 230.679 274.678 233.406L301.038 270.902H278.427L259.452 241.474V219.999H263.883C270.928 219.999 276.609 214.772 276.609 208.295C276.609 201.819 271.269 196.365 264.224 196.365H252.975Z" fill="#E21B4D"/>
<path d="M427.616 270.9V176.705H409.664V221.132C404.892 216.474 398.869 213.86 391.938 213.86C377.167 213.86 365.123 226.927 365.123 243.175C365.123 259.31 377.167 272.49 391.938 272.49C398.983 272.49 405.573 269.763 409.664 264.764V270.9H427.616ZM397.052 257.151C389.78 257.151 383.871 250.675 383.871 242.721C383.871 234.767 389.78 228.291 397.052 228.291C404.323 228.291 410.232 234.767 410.232 242.721C410.118 250.675 404.21 257.151 397.052 257.151Z" fill="#E21B4D"/>
<path d="M503.061 222.044C507.947 217.499 511.014 211.363 511.014 204.659C511.014 198.524 508.628 192.956 504.538 188.525C500.22 183.866 492.721 181.025 482.495 181.025H451.93V270.902H491.471C506.583 270.675 518.854 259.199 518.854 245.11C518.741 234.883 515.105 227.611 503.061 222.044ZM487.835 255.336H470.678V197.16H482.722C487.949 197.16 492.38 201.137 492.38 206.477C492.38 211.818 487.949 216.135 482.722 216.135H476.359V232.384H488.062C494.425 232.384 499.197 237.61 499.197 243.973C498.97 250.336 494.766 254.995 487.835 255.336Z" fill="#E21B4D"/>
<path d="M316.947 236.471C316.947 230.449 321.833 225.563 327.855 225.563C333.877 225.563 338.763 230.449 338.763 236.471H316.947ZM356.489 246.698C356.602 245.448 356.716 244.198 356.716 242.948C356.943 223.518 344.217 212.951 327.855 212.951C311.493 212.951 298.199 226.359 298.199 242.948C298.199 259.537 311.493 272.945 327.855 272.945C340.354 272.945 350.126 267.264 355.125 258.401L340.581 251.697C338.763 255.674 334.445 258.515 329.332 258.515C322.628 258.515 317.061 253.401 317.061 246.698C317.515 246.698 356.489 246.698 356.489 246.698Z" fill="#E21B4D"/>
<path d="M608.166 176.705H590.213V270.9H608.166V176.705Z" fill="#E21B4D"/>
<path d="M638.728 176.705H620.775V270.9H638.728V176.705Z" fill="#E21B4D"/>
<path d="M395.119 333.162C395.119 308.846 414.776 289.189 439.092 289.189C463.407 289.189 483.064 308.846 483.064 333.162C483.064 357.478 463.407 377.135 439.092 377.135C414.776 377.135 395.119 357.364 395.119 333.162Z" fill="#FFD300"/>
<path fill-rule="evenodd" clip-rule="evenodd" d="M403.757 307.032C404.438 307.372 405.12 307.713 405.916 308.168C409.211 310.44 411.37 312.372 416.369 316.576C417.846 318.053 419.551 320.439 420.8 321.916C423.527 325.325 425.459 327.711 425.8 330.552C426.595 336.233 427.391 339.415 429.549 345.209C429.777 345.778 430.686 346.573 431.254 347.255C432.617 348.959 433.185 351.686 435.685 353.163C437.049 353.959 437.276 354.072 437.73 354.413C438.412 354.981 437.276 357.026 433.754 356.572C435.572 357.481 435.344 359.526 432.731 359.64C427.618 359.867 424.436 356.913 423.755 356.117C423.414 355.776 422.391 357.14 420.573 357.822C418.755 358.731 416.255 357.822 414.324 358.163C412.506 358.503 410.12 359.64 408.188 359.753C404.779 359.867 404.325 357.481 404.325 355.436C404.325 354.981 404.325 354.64 404.325 354.527C403.984 355.776 402.734 357.935 402.734 357.935C402.28 358.958 401.598 360.208 400.348 360.662L396.712 361.117C393.871 362.367 391.031 363.276 388.077 364.298C386.372 364.639 384.441 364.298 383.191 363.276C382.168 362.48 381.6 361.458 381.032 360.435C380.464 360.208 379.668 360.435 378.987 360.208C378.418 360.094 378.078 359.64 377.737 359.299L375.237 355.095C375.01 354.527 375.01 353.731 375.237 353.163C375.692 352.254 376.714 351.8 377.737 351.8C379.555 351.686 381.6 351.118 383.418 351.8C384.213 350.891 385.463 351.004 386.599 350.777C386.145 350.095 385.463 349.754 384.895 349.186C381.6 349.982 377.964 349.414 374.783 348.845C371.828 348.164 369.329 349.868 366.374 349.414L365.465 351.345C364.102 352.822 363.988 355.322 361.943 356.345C360.466 356.685 359.33 357.708 358.08 358.39C355.807 359.64 352.739 359.072 350.24 358.617C349.217 358.503 348.535 358.617 347.626 358.958C346.831 359.526 345.922 360.435 345.013 361.117C343.536 361.685 342.286 362.935 340.695 363.048C339.786 363.048 338.877 362.48 337.968 362.708C336.832 363.957 336.264 366.003 334.446 366.571C332.628 367.139 330.355 366.684 328.537 366.23C327.969 366.457 327.628 366.912 326.947 366.798C325.697 366.457 324.447 366.116 323.311 365.435C322.856 364.98 322.743 364.412 322.629 363.957C322.629 363.162 323.311 362.48 323.652 361.799C323.765 361.003 323.765 359.867 324.106 359.072C324.674 357.822 325.924 357.026 327.174 356.458C327.288 355.549 327.856 354.754 328.651 354.299C330.128 353.504 331.719 351.686 333.65 352.709L335.696 354.413C337.514 353.618 337.059 351.8 337.968 350.323C338.423 349.3 338.991 348.164 340.127 348.164C340.922 348.05 341.831 348.277 342.627 348.164C343.763 347.823 345.013 347.368 345.808 346.459L345.695 345.778C344.558 343.619 344.218 341.005 344.104 338.392C342.059 338.619 339.9 338.96 337.741 338.506C334.559 338.051 331.492 335.551 330.242 332.37C328.878 329.302 329.446 324.984 331.605 322.371C333.31 320.326 335.241 318.508 337.286 316.917C336.605 316.69 335.809 316.803 335.128 316.576C332.173 316.122 329.219 313.508 328.537 310.554C328.083 308.622 328.537 306.804 329.446 305.214C329.787 304.873 330.128 304.532 330.696 304.759C332.173 305.327 332.628 306.123 333.991 306.804L334.787 307.259C338.536 308.509 343.536 308.509 345.013 313.167C345.922 316.803 343.649 319.53 341.036 321.576C338.991 323.053 336.946 324.871 335.923 327.03C335.468 328.62 335.696 330.211 337.059 331.347C338.423 332.711 340.809 332.711 342.513 332.029C345.695 330.665 348.649 328.62 351.49 326.461C354.216 324.416 357.512 323.621 361.034 323.507C362.625 323.166 363.988 322.485 365.238 321.462C367.397 319.417 369.669 317.712 372.396 317.031C373.646 316.803 374.896 316.69 376.146 316.576C377.169 316.122 377.85 314.872 378.646 314.304C382.395 311.008 387.395 311.122 391.372 308.509C393.644 306.804 396.144 305.668 399.098 305.782C400.462 305.895 401.711 306.123 402.848 306.577L403.757 307.032ZM407.506 345.664C405.007 345.778 403.416 346.346 401.711 346.573C401.825 348.164 402.734 349.527 403.984 351.232C404.666 348.618 406.825 347.596 407.506 345.664Z" fill="#FFD300"/>
<path fill-rule="evenodd" clip-rule="evenodd" d="M471.478 346.231C472.614 347.935 473.296 349.64 474.318 351.458C475.341 349.526 476.25 347.708 477.159 346.572C477.045 346.458 474.091 346.799 471.478 346.231ZM473.864 354.639C473.75 354.98 473.523 355.094 473.068 355.094C473.409 356.684 472.273 359.639 469.432 359.752C467.501 359.866 464.319 357.934 462.501 357.821C460.57 357.707 457.047 359.184 455.002 356.116C452.275 359.411 449.094 360.32 446.367 360.207C444.776 360.207 443.072 359.298 445.458 357.252C440.231 358.957 440.231 355.435 441.14 354.753C441.708 354.298 442.39 353.957 444.321 352.026C451.593 344.413 448.866 331.233 456.82 322.483C459.888 319.075 462.388 317.143 468.637 312.712C470.796 311.235 472.955 309.076 475 307.599L475.114 307.826V307.712C476.363 306.803 477.5 305.894 478.863 305.553C481.704 305.213 484.317 306.122 486.476 307.599C487.612 308.394 488.521 309.303 489.43 310.439C490.112 311.121 491.135 311.121 492.044 311.462C494.657 311.916 496.929 312.939 499.088 314.302C500.565 315.211 501.815 316.802 503.633 317.029C505.792 317.37 507.724 318.052 509.655 319.188C511.928 320.665 513.973 322.483 516.7 322.938C522.154 323.506 526.699 326.574 531.017 329.642C533.517 331.119 536.471 332.823 539.539 331.801C540.448 331.46 541.129 330.664 541.357 329.869C541.584 327.824 540.334 326.233 539.084 324.756C536.471 321.688 531.926 319.075 532.494 314.643C533.289 311.348 536.925 309.417 539.766 308.508C541.357 307.94 543.288 308.167 544.652 306.803C545.333 306.349 545.674 304.758 546.811 305.326C547.72 305.894 547.833 307.031 547.947 308.053C548.401 311.235 547.72 314.416 544.765 316.234C543.402 317.143 541.925 317.484 540.334 317.825C542.72 319.756 545.106 322.143 546.47 324.87C547.265 326.46 547.72 327.824 547.833 329.642C547.72 333.051 545.674 336.005 542.72 337.709C541.016 338.618 539.084 338.959 537.039 338.959C536.244 338.959 535.562 338.732 534.88 338.732C535.221 340.322 535.221 342.481 534.88 344.299C534.766 345.208 534.198 346.231 534.198 347.367C534.653 347.935 535.335 347.935 535.903 347.935C537.38 347.935 539.198 347.822 539.993 349.412C540.675 350.89 541.016 352.594 541.584 354.071C541.811 354.298 541.925 354.866 542.266 354.753C543.288 353.844 544.311 352.594 545.788 352.935C547.151 353.844 548.515 354.866 549.878 355.889C550.219 356.23 550.333 356.684 550.447 357.252C551.583 357.707 553.06 358.502 553.401 359.866C553.628 360.775 553.514 361.684 553.742 362.479C554.083 363.388 554.992 364.524 554.31 365.661L553.855 366.002L549.538 367.365C549.197 367.365 548.856 367.138 548.515 366.797C546.242 366.683 543.515 367.365 541.697 365.774C540.902 365.093 540.334 364.297 539.766 363.388C538.402 364.07 536.471 364.524 535.107 363.615C532.267 361.457 529.426 359.298 525.563 359.411C523.858 359.752 521.813 360.207 520.109 359.525C518.518 358.389 516.7 357.821 515.45 356.116C513.632 354.185 513.632 351.912 512.951 349.526C510.451 350.094 507.724 349.753 505.224 349.64C503.179 349.526 501.247 349.867 499.316 350.321C496.929 350.776 494.316 351.003 491.816 350.89L490.567 351.799C491.135 351.912 491.703 351.912 492.157 352.367L492.612 352.821C494.657 353.048 497.043 352.708 498.975 353.162C499.429 353.276 499.884 353.73 500.111 354.185C500.338 354.753 500.338 355.435 499.997 355.889C498.975 357.252 498.407 358.843 497.043 359.979C496.702 360.434 495.68 359.866 495.566 360.661C495.111 362.706 493.18 364.411 491.248 364.865C490.453 364.979 489.544 364.865 488.862 364.638C486.476 363.843 484.09 363.161 481.704 362.479C480.908 362.252 480.227 361.457 479.545 361.002C478.522 361.002 477.045 361.343 476.363 360.434C476.023 360.207 475.682 359.411 475.568 359.07C474.773 358.048 474.205 356.23 473.864 354.639Z" fill="#FFD300"/>
<path fill-rule="evenodd" clip-rule="evenodd" d="M402.62 321.349C403.302 323.054 403.302 325.326 402.847 327.144C402.734 327.258 402.62 327.258 402.506 327.144C402.165 325.554 401.825 323.963 401.256 322.372C400.916 321.463 399.779 320.668 400.234 319.645C400.461 319.418 400.916 319.418 401.256 319.531C401.825 320.1 402.165 320.668 402.62 321.349ZM420.8 337.257C422.05 338.734 422.959 340.325 422.504 342.256C422.277 342.597 422.391 343.279 421.822 343.393C421.595 343.506 421.368 343.279 421.368 343.052C421.254 342.029 421.254 340.893 420.686 340.097C420.005 339.416 419.209 338.052 418.073 338.052C417.278 338.279 416.709 339.188 416.255 339.757C416.255 339.87 416.141 339.87 416.028 339.757C415.573 338.62 416.482 337.711 416.823 336.802C417.505 336.121 417.391 334.189 418.868 334.757C419.891 335.439 420.118 336.575 420.8 337.257ZM418.414 350.778C418.527 351.46 418.527 352.483 417.846 352.937C417.164 353.164 416.255 353.278 415.46 353.164C415.232 353.051 415.005 352.937 415.119 352.71C415.46 351.687 416.482 350.551 417.618 350.324C417.846 350.324 418.3 350.324 418.414 350.778ZM335.468 309.305C338.195 309.987 341.149 309.987 343.194 312.146C344.331 313.509 344.444 315.895 343.535 317.259C341.945 319.986 338.763 321.349 336.831 323.736C334.9 325.326 334.218 327.826 334.786 330.326C335.468 332.485 337.627 333.962 339.786 334.075C343.194 334.189 345.694 332.485 348.421 330.894C351.148 328.962 353.648 326.463 356.716 325.667C358.761 324.985 361.033 325.326 363.079 324.531C365.238 324.076 366.942 322.258 368.646 320.668C370.578 319.077 372.85 318.168 375.35 318.282C377.623 318.622 378.872 316.577 380.463 315.214C383.077 312.828 386.485 312.6 389.553 311.237C391.712 310.555 393.416 308.964 395.462 307.942C397.393 307.146 400.007 306.919 401.938 307.714C403.188 308.283 404.552 308.851 405.688 309.76L414.891 317.486C415.005 317.827 415.346 318.054 415.573 318.168C418.187 321.349 420.913 324.417 423.072 327.94C423.754 329.189 424.095 330.439 424.436 331.803C424.89 337.03 426.254 341.575 427.958 346.12C428.413 346.801 429.322 347.369 429.776 348.051C431.253 350.096 432.162 352.71 434.548 354.073L435.912 354.755C436.026 354.869 436.026 355.096 435.912 355.209L435.685 355.437C432.844 355.891 430.685 354.187 429.208 352.142C428.299 350.324 427.049 348.392 425.004 347.597C424.89 347.597 424.777 347.71 424.777 347.71C425.004 348.392 425.686 348.847 425.913 349.415C426.708 350.665 427.39 352.028 427.731 353.391C428.185 354.869 429.776 355.891 431.026 356.687L432.844 357.596C433.071 357.709 433.185 358.05 432.958 358.277L432.73 358.391C429.663 358.505 426.936 357.482 424.777 355.209C424.322 354.641 423.64 354.187 422.845 354.187C421.482 355.437 420.118 356.573 418.3 356.687C416.369 356.346 414.323 356.346 412.619 357.027C411.028 357.596 409.437 358.277 407.733 358.277C406.938 358.277 406.029 357.936 405.688 357.141C405.688 356.118 405.006 354.982 405.574 353.96L406.71 352.255C406.71 352.028 406.597 351.801 406.37 351.801C405.915 351.687 405.12 352.482 404.892 351.687C405.006 349.983 406.71 348.847 407.847 347.71C408.074 346.347 408.642 345.097 409.665 343.961C409.665 343.847 409.551 343.62 409.324 343.62C407.847 343.847 406.37 344.188 404.779 344.188C403.529 344.87 401.938 345.324 400.461 344.87C400.12 344.642 400.234 344.302 400.347 344.074C401.938 341.915 402.506 339.188 402.052 336.575C401.938 336.461 401.938 336.234 401.711 336.234C401.484 336.234 401.484 336.461 401.37 336.575C401.029 339.075 400.234 341.006 398.87 343.165C397.848 344.188 396.257 344.188 394.894 344.529C394.553 344.642 394.212 344.983 394.212 345.324C394.212 346.233 394.78 346.801 395.121 347.597L398.075 353.051C398.189 354.528 397.507 356.005 397.166 357.368C397.28 357.596 397.507 357.482 397.734 357.368C398.757 356.459 399.438 355.209 399.893 353.846C400.007 353.278 399.779 352.596 399.552 352.142L396.484 346.006C396.711 345.665 397.166 345.665 397.507 345.551C398.189 345.551 398.87 345.892 399.552 346.12C400.234 347.938 401.029 349.869 402.279 351.46C402.506 352.482 402.847 353.846 402.165 354.641C401.484 356.005 400.802 357.141 399.893 358.391C399.098 359.186 397.961 359.073 396.825 359.186H396.484C393.757 360.663 390.917 361.572 387.962 362.481C386.713 363.05 385.235 362.595 384.213 361.8C383.19 361.004 382.736 359.868 382.054 358.845C381.259 357.823 380.009 358.732 379.1 358.164C378.304 356.914 377.509 355.664 376.827 354.3C376.827 353.96 376.827 353.619 377.168 353.391C378.191 353.051 379.327 353.051 380.463 352.937C381.486 352.823 382.622 353.051 383.304 353.732C384.667 355.323 385.235 357.482 387.281 358.505C388.871 358.618 390.235 358.164 391.598 357.482C392.394 357.027 393.303 356.346 393.303 355.323C393.189 353.278 391.826 351.687 390.121 350.551C388.417 349.642 386.599 348.392 385.349 346.801C384.667 345.892 384.554 344.87 384.213 343.961C384.099 343.733 383.645 343.733 383.531 343.847C382.849 344.415 383.417 345.438 383.417 346.12C383.531 346.574 383.758 347.142 383.531 347.483C382.508 348.278 381.145 347.824 379.895 347.938C377.395 347.824 375.009 346.801 372.396 347.029C369.896 347.142 366.487 348.847 364.669 346.347C363.76 343.961 363.988 341.12 364.442 338.734C364.442 338.507 364.215 338.279 363.988 338.279C363.76 338.166 363.533 338.279 363.42 338.507C362.738 340.893 362.624 343.506 362.056 346.006C361.147 348.165 359.556 350.437 357.397 351.573C355.466 352.596 353.193 352.937 350.807 353.164C346.49 353.278 342.513 354.073 339.786 357.823C339.558 358.164 339.218 358.505 339.331 358.959C339.445 359.073 339.786 359.186 339.899 359.073C342.854 355.778 346.603 354.414 350.921 354.641C355.011 354.641 359.102 353.96 361.715 350.437C362.397 349.642 362.851 348.847 363.42 347.938C363.874 347.938 364.215 348.506 364.556 348.733C364.669 349.983 363.647 350.778 363.192 351.801C362.624 352.937 362.056 354.3 360.92 354.982C359.556 355.323 358.42 356.232 357.17 356.914C355.92 357.482 354.33 357.709 352.852 357.368C351.034 357.027 348.535 356.573 346.717 357.368C345.808 357.936 345.012 358.959 344.103 359.527C342.854 360.095 341.717 361.118 340.24 361.004C339.218 360.777 337.968 360.095 337.059 361.004C335.922 362.027 335.695 363.845 334.218 364.527C332.514 365.436 330.696 364.527 328.991 364.413C329.219 362.709 329.446 361.118 330.582 359.868C331.264 359.754 331.832 359.641 332.4 359.186C333.082 358.618 333.536 357.823 333.991 357.027C335.468 356.118 337.172 355.437 338.081 353.846C338.763 352.369 338.763 351.005 339.899 349.642L340.467 349.415L343.535 349.187C344.785 348.619 345.921 348.051 347.058 347.142C347.398 346.801 347.512 346.233 347.398 345.665C346.83 344.188 346.376 343.165 346.035 341.575C345.694 339.984 345.921 338.393 345.694 336.575C345.581 336.461 345.467 336.121 345.24 336.121C343.194 336.575 341.263 337.143 338.99 336.802C335.922 336.461 332.741 334.416 331.605 331.348C330.582 328.735 330.809 324.985 332.741 322.827C334.559 320.554 336.831 318.85 339.104 316.918C339.445 316.691 339.445 316.236 339.558 315.895C339.558 315.441 339.104 315.1 338.763 314.873C337.4 314.532 335.809 314.986 334.445 314.418C332.059 313.623 330.241 311.35 329.9 308.851C329.787 307.714 330.014 306.805 330.582 305.896C332.4 307.487 333.764 308.851 335.468 309.305ZM328.65 360.095V360.436C328.082 361.8 327.741 363.39 327.287 364.981C326.264 364.868 325.355 364.527 324.56 364.186C324.333 363.959 324.56 363.731 324.56 363.504C325.583 362.595 325.242 361.459 325.469 360.209C325.583 359.527 326.264 358.959 326.946 358.618C327.741 358.732 328.196 359.527 328.65 360.095ZM333.65 355.323C333.082 356.459 332.286 357.823 331.037 358.505C330.582 358.618 330.014 358.618 329.559 358.391C329.332 358.164 328.878 357.936 328.878 357.482C328.991 357.027 328.764 356.459 329.219 356.232C330.128 355.664 331.037 355.096 331.946 354.3C332.173 354.187 332.627 354.073 332.741 354.3C333.195 354.641 333.536 354.869 333.65 355.323ZM390.576 354.869C390.689 355.323 391.371 355.891 390.917 356.346C390.008 357.027 388.985 357.482 387.735 357.368C386.826 356.687 386.94 355.437 386.144 354.528C385.917 353.846 384.895 353.846 385.122 353.164L385.463 352.937C386.713 352.937 387.962 352.937 389.212 352.71C390.462 352.596 390.121 354.073 390.576 354.869Z" fill="#E21B4D"/>
<path fill-rule="evenodd" clip-rule="evenodd" d="M462.386 336.343C463.068 337.252 463.636 338.161 464.09 339.297C464.204 339.524 464.09 339.751 463.977 339.979C463.863 340.206 463.636 340.433 463.295 340.206C462.5 339.979 462.613 338.729 461.591 338.842C460.909 338.842 460.454 339.411 459.886 339.751C458.864 340.66 457.5 341.569 457.273 342.933C457.046 343.387 457.159 344.183 456.705 344.41C456.478 344.524 456.137 344.296 456.137 344.069C456.023 342.251 456.591 340.547 457.841 339.297C459.091 338.274 460 336.797 461.023 335.547C461.704 335.434 462.159 335.888 462.386 336.343ZM462.841 351.455C463.068 351.909 463.522 352.477 463.181 353.045C462.727 353.386 461.932 353.159 461.363 353.159C460.682 352.818 460.454 351.909 460.454 351.114C460.454 350.887 460.454 350.773 460.682 350.546C461.477 350.546 462.272 350.773 462.841 351.455ZM479.884 316.686C480.225 317.14 479.884 317.595 479.657 317.936C478.066 319.413 476.135 321.003 474.998 322.821C474.544 323.39 474.203 324.071 473.976 324.753C473.976 324.867 473.862 324.867 473.748 324.867C473.408 323.958 473.862 322.935 474.089 322.026C474.885 319.867 476.703 317.822 478.634 316.345C478.862 316.231 479.657 316.118 479.884 316.686ZM486.361 309.414C487.611 310.209 488.065 311.913 489.542 312.254C492.042 312.822 494.542 313.391 496.814 314.527C498.405 315.322 499.882 316.458 501.359 317.708C502.723 318.39 504.427 318.39 505.904 318.845C508.063 319.413 509.767 321.003 511.699 322.253C514.199 324.185 517.721 323.958 520.562 325.208C525.107 326.685 528.743 330.207 532.947 332.252C535.106 333.388 538.401 333.843 540.56 332.593C542.037 331.57 542.946 330.207 542.605 328.275C541.81 323.617 536.696 321.231 534.31 317.367C533.856 316.458 533.515 315.209 533.742 314.186C534.651 311.913 537.037 310.664 539.083 309.868C540.673 309.073 542.719 309.3 544.196 308.391C544.764 308.05 545.218 307.596 545.559 307.255C545.9 307.255 545.9 307.596 546.014 307.823C546.468 310.55 546.014 313.391 543.628 314.981C542.719 315.663 541.582 315.89 540.56 316.118C539.651 316.458 537.833 315.777 537.946 317.367C538.174 318.163 538.855 318.617 539.423 319.185C542.605 321.799 545.559 325.208 545.9 329.298C546.014 332.479 543.855 335.206 541.128 336.57C539.083 337.365 536.583 337.706 534.424 337.138C533.856 337.024 532.947 336.456 532.492 337.252C532.379 338.161 532.947 338.842 532.947 339.638C533.174 341.115 533.174 343.047 532.72 344.524C532.492 345.66 531.356 347.023 532.379 348.16C533.401 349.75 535.447 349.296 537.151 349.523C538.06 349.637 538.401 350.659 538.628 351.341C538.969 352.25 538.969 353.273 539.31 353.954C539.31 355.659 541.241 356.341 542.15 357.477C543.287 358.727 544.309 360.886 546.241 360.772C546.923 362.135 547.263 363.385 547.491 364.976L547.264 365.203C545.673 365.203 543.514 365.658 542.378 364.522C541.014 363.613 540.56 361.113 538.514 361.795C537.605 362.476 536.356 362.704 535.333 362.249C534.31 361.908 533.629 360.999 532.72 360.431C529.993 358.386 526.357 357.363 522.834 358.159C520.789 358.727 519.198 357.25 517.608 356.341C515.449 355.432 514.881 353.159 514.426 351.228L514.085 348.841C514.085 348.614 514.312 348.387 514.54 348.273H514.881C516.13 351.114 518.517 354.295 521.584 355.318C524.425 356.454 527.038 354.977 530.106 355.545C532.947 355.886 535.219 357.704 537.378 359.408C537.605 359.408 537.719 359.295 537.833 359.068V358.84C535.219 355.545 531.583 353.841 527.379 354.182C523.857 354.863 520.448 353.727 518.403 350.773C517.267 349.069 516.471 347.251 516.13 345.319C515.79 343.047 515.335 340.547 514.54 338.502C514.312 338.388 514.085 338.161 513.858 338.274L513.631 338.615C513.972 340.774 514.653 343.387 513.858 345.66C513.29 347.478 511.472 348.16 509.767 348.273C508.063 348.387 506.472 348.046 504.654 348.046C500.564 347.932 496.928 349.523 492.724 349.182C493.065 348.16 493.746 347.137 493.406 346.001C493.292 345.774 492.951 345.774 492.724 345.774C491.928 346.228 492.042 347.251 491.588 347.932C490.679 349.41 488.974 350.773 487.27 351.114C486.02 352.023 484.884 353.273 483.861 354.409C483.52 354.75 483.52 355.432 483.634 355.886C484.429 357.931 486.815 358.159 488.633 358.727C489.542 358.84 490.338 358.499 490.792 357.704C491.588 356.454 491.701 354.409 493.519 354.182H497.496C497.837 354.295 498.064 354.523 498.291 354.863L498.178 355.432C497.269 356.454 496.928 357.931 495.792 358.613C495.11 358.84 494.315 358.613 493.86 359.181C493.633 360.545 493.292 362.022 491.928 362.704C490.906 363.613 489.429 363.158 488.292 362.817C486.134 362.022 483.975 361.567 481.816 360.886C480.907 360.658 480.566 359.522 479.543 359.295C478.634 359.068 477.612 359.749 476.816 358.954C476.362 357.931 476.135 357.25 475.907 356.113C475.566 355.432 475.339 354.636 475.226 353.841C475.112 353.159 475.226 352.705 475.453 352.137L478.407 346.796C478.634 346.455 478.862 346.114 479.202 346.001C479.884 346.114 480.68 346.455 481.361 346.796L481.248 347.137L478.18 351.796C477.498 353.273 478.18 354.977 478.862 356.227C478.975 356.341 479.089 356.568 479.202 356.454C479.089 355.545 478.975 354.636 479.202 353.614C479.43 352.705 479.998 351.909 480.452 351.114L482.838 347.592C483.066 347.023 483.066 346.114 482.611 345.546C481.589 344.524 480.111 344.183 479.202 342.819C477.271 340.206 477.044 337.138 476.816 333.843C476.816 333.616 476.589 333.275 476.248 333.161C476.021 333.048 475.794 333.388 475.68 333.502C475.112 335.661 475.453 338.274 476.021 340.206C476.362 341.683 477.044 343.16 477.725 344.524C477.839 344.751 477.612 345.092 477.384 345.205C475.794 345.319 474.203 345.205 472.726 344.978C470.681 344.637 469.204 343.047 467.499 341.797C467.272 341.683 467.158 341.91 467.045 342.024C467.499 344.296 469.999 345.66 470.794 347.705C471.249 349.41 472.953 350.659 473.294 352.477C473.294 352.705 473.067 353.046 472.839 353.159C472.271 353.273 471.703 352.932 471.135 353.273C471.022 354.295 471.703 355.318 471.249 356.227C470.681 357.136 469.885 358.159 468.863 358.159C466.817 357.477 464.772 356.568 462.727 356C461.25 355.886 459.773 356.113 458.409 356.227C457.046 356 456.137 354.75 455.114 354.068C454.773 353.955 454.432 353.954 454.205 354.182C451.933 356.454 449.433 358.954 446.024 358.84C445.797 358.84 445.683 358.613 445.683 358.386V358.159C447.16 356.795 448.978 355.432 449.66 353.5C450.115 351.909 451.478 350.773 452.046 349.296C452.16 349.069 451.933 348.955 451.705 348.841L451.364 349.069C449.66 350.773 448.41 352.705 447.16 354.523C445.911 355.772 444.093 356.568 442.161 356.113C441.934 356 441.934 355.659 442.047 355.432C449.092 351.114 449.887 343.387 451.819 336.343C453.182 331.684 454.205 326.912 457.841 323.162C463.295 317.14 470.113 313.618 476.135 308.391C477.044 307.596 477.953 306.8 479.089 306.8C482.043 306.573 484.316 307.709 486.361 309.414ZM551.24 359.636C551.808 360.431 551.581 361.681 551.808 362.59C551.922 363.272 552.831 363.84 552.377 364.522L549.877 365.317C549.422 365.317 549.65 364.749 549.422 364.522C549.195 363.044 548.854 362.022 548.4 360.658C548.286 359.863 549.081 359.295 549.65 358.84C550.218 358.613 550.672 359.295 551.24 359.636ZM545.446 354.523C546.354 355.318 547.604 355.886 548.286 356.909C548.4 357.363 548.059 357.818 547.832 358.159C547.491 358.499 547.036 358.727 546.468 358.727C545.9 358.727 545.445 358.386 545.105 357.931C544.536 357.022 543.741 356.227 543.514 355.318C543.855 354.75 544.65 353.841 545.446 354.523ZM490.679 353.614C490.565 354.75 490.224 355.772 489.77 356.795C489.429 357.477 488.406 357.25 487.724 357.136C487.043 356.909 485.906 356.795 485.793 355.772C485.679 354.863 486.134 353.954 486.588 353.273C487.611 353.159 488.861 353.386 489.883 353.159C490.338 353.159 490.679 353.273 490.679 353.614Z" fill="#E21B4D"/>
<path d="M256.725 424.405H272.518V421.109H260.361V409.974H272.064V406.679H260.361V398.498H272.518V395.203H256.725V424.405Z" fill="#E21B4D"/>
<path d="M287.969 424.405H291.605V402.589L313.648 425.655V395.204H310.012V416.792L287.969 393.727V424.405Z" fill="#E21B4D"/>
<path d="M329.33 424.405H345.01V421.109H332.966V409.974H344.669V406.679H332.966V398.498H345.01V395.203H329.33V424.405Z" fill="#E21B4D"/>
<path d="M368.873 411.679C373.077 411.225 375.918 407.702 375.918 403.498C375.918 400.657 374.554 397.93 372.054 396.453C369.782 395.09 366.941 395.09 364.328 395.09H359.896V424.405H363.532V412.02H365.01L373.645 424.405H378.076L368.873 411.679ZM363.532 398.385H364.555C368.191 398.385 372.509 399.067 372.509 403.612C372.509 408.27 368.418 408.952 364.782 408.952H363.646V398.385H363.532Z" fill="#E21B4D"/>
<path d="M404.325 409.632V412.927H411.937C411.824 417.7 406.938 421.563 402.393 421.563C396.03 421.563 391.031 415.768 391.031 409.632C391.031 403.042 396.144 397.702 402.734 397.702C406.37 397.702 409.892 399.633 411.937 402.474L414.551 399.974C411.71 396.338 407.165 394.293 402.62 394.293C394.212 394.293 387.395 401.224 387.395 409.632C387.395 417.7 393.985 424.858 402.166 424.858C410.347 424.858 416.028 418.722 416.028 410.655V409.519H404.325V409.632Z" fill="#E21B4D"/>
<path d="M436.027 411.679V424.405H439.663V411.679L449.208 395.203H445.004L437.845 407.702L430.573 395.203H426.369L436.027 411.679Z" fill="#E21B4D"/>
<path d="M474.314 424.405H480.223C489.426 424.405 496.812 419.633 496.812 409.634C496.812 399.862 489.313 395.09 480.337 395.09H474.314V424.405ZM477.95 398.499H479.2C486.7 398.499 493.062 401.226 493.062 409.861C493.062 418.383 486.586 421.11 479.2 421.11H477.95V398.499Z" fill="#E21B4D"/>
<path d="M519.654 411.679C523.858 411.225 526.699 407.702 526.699 403.498C526.699 400.657 525.335 397.93 522.836 396.453C520.563 395.09 517.722 395.09 515.109 395.09H510.678V424.405H514.314V412.02H515.791L524.426 424.405H528.858L519.654 411.679ZM514.314 398.385H515.336C518.972 398.385 523.29 399.067 523.29 403.612C523.29 408.27 519.2 408.952 515.564 408.952H514.427V398.385H514.314Z" fill="#E21B4D"/>
<path d="M543.966 395.203H540.33V424.518H543.966V395.203Z" fill="#E21B4D"/>
<path d="M558.623 424.405H562.259V402.589L584.189 425.655V395.204H580.553V416.792L558.623 393.727V424.405Z" fill="#E21B4D"/>
<path d="M602.597 407.815V395.203H598.961V424.405H602.597V412.247L604.074 410.77L615.096 424.405H619.981L606.574 408.27L619.754 395.203H614.982L602.597 407.815Z" fill="#E21B4D"/>
<path d="M657.479 176.137C659.524 176.137 661.228 176.818 662.592 178.295C663.955 179.659 664.751 181.477 664.751 183.409C664.751 185.454 664.069 187.158 662.592 188.522C661.228 189.999 659.41 190.681 657.479 190.681C655.434 190.681 653.729 189.999 652.252 188.522C650.889 187.158 650.093 185.34 650.093 183.409C650.093 181.363 650.775 179.659 652.252 178.295C653.729 176.932 655.434 176.137 657.479 176.137ZM666.001 183.409C666.001 181.136 665.205 179.091 663.501 177.386C661.797 175.796 659.865 174.887 657.479 174.887C655.093 174.887 653.161 175.682 651.457 177.386C649.752 179.091 648.957 181.022 648.957 183.409C648.957 185.795 649.752 187.726 651.457 189.431C653.161 191.135 655.093 191.93 657.479 191.93C659.865 191.93 661.797 191.135 663.501 189.431C665.092 187.84 666.001 185.795 666.001 183.409ZM659.751 181.591C659.751 182.272 659.41 182.84 658.729 183.068C658.388 183.181 657.82 183.295 657.138 183.295H655.661V179.886H657.024C657.933 179.886 658.615 180 659.07 180.227C659.524 180.568 659.751 180.909 659.751 181.591ZM654.07 178.75V188.067H655.661V184.431H656.911C657.82 184.431 658.388 184.545 658.729 184.772C659.297 185.113 659.638 185.795 659.638 186.931V187.613V187.84V187.954V188.067H661.228L661.115 187.954C661.115 187.84 661.001 187.726 661.001 187.499C661.001 187.272 661.001 187.045 661.001 186.817V186.136C661.001 185.681 660.774 185.227 660.547 184.658C660.206 184.204 659.638 183.863 658.956 183.749C659.524 183.636 659.979 183.522 660.319 183.295C660.888 182.954 661.228 182.272 661.228 181.477C661.228 180.341 660.774 179.545 659.751 179.091C659.183 178.864 658.388 178.75 657.138 178.75H654.07Z" fill="#E21B4D"/>
</g>
<defs>
<clipPath id="clip0_292_12">
<rect width="432" height="250.655" fill="white" transform="translate(234 175)"/>
</clipPath>
</defs>
</svg>
