<svg width="54" height="55" viewBox="0 0 54 55" fill="none" xmlns="http://www.w3.org/2000/svg">
<path d="M20.9992 36.9069C22.1967 36.9069 23.1676 35.9361 23.1676 34.7385C23.1676 33.541 22.1967 32.5701 20.9992 32.5701C19.8016 32.5701 18.8308 33.541 18.8308 34.7385C18.8308 35.9361 19.8016 36.9069 20.9992 36.9069Z" stroke="#FFED00" stroke-width="0.428965" stroke-miterlimit="10"/>
<path d="M23.8224 40.5612C23.9497 40.5612 24.0534 40.4575 24.0534 40.3303C24.0534 40.3255 24.0534 40.3161 24.0534 40.3114C23.9214 38.6238 22.4412 37.3605 20.7537 37.4924C19.2499 37.6103 18.0526 38.8076 17.9347 40.3114C17.9253 40.4387 18.0196 40.5518 18.1469 40.5612C18.1516 40.5612 18.161 40.5612 18.1657 40.5612H23.8224Z" stroke="#FFED00" stroke-width="0.428965" stroke-miterlimit="10"/>
<path d="M33.0003 37.2489C34.1978 37.2489 35.1686 36.2781 35.1686 35.0805C35.1686 33.8829 34.1978 32.9121 33.0003 32.9121C31.8027 32.9121 30.8319 33.8829 30.8319 35.0805C30.8319 36.2781 31.8027 37.2489 33.0003 37.2489Z" stroke="#FFED00" stroke-width="0.428965" stroke-miterlimit="10"/>
<path d="M35.8292 40.896C35.9564 40.896 36.0601 40.7924 36.0601 40.6651C36.0601 40.6603 36.0601 40.6509 36.0601 40.6462C35.9282 38.9587 34.4479 37.6953 32.7604 37.8272C31.2566 37.9451 30.0593 39.1424 29.9414 40.6462C29.932 40.7735 30.0263 40.8866 30.1583 40.896H35.8292Z" stroke="#FFED00" stroke-width="0.428965" stroke-miterlimit="10"/>
<path d="M26.9946 38.0298C28.6243 38.0298 29.9454 36.7086 29.9454 35.0789C29.9454 33.4491 28.6243 32.128 26.9946 32.128C25.3649 32.128 24.0437 33.4491 24.0437 35.0789C24.0437 36.7086 25.3649 38.0298 26.9946 38.0298Z" stroke="white" stroke-width="0.428965" stroke-miterlimit="10"/>
<path d="M29.3521 39.5589C28.0464 38.668 26.3494 38.5878 24.9635 39.3562" stroke="white" stroke-width="0.428965" stroke-miterlimit="10" stroke-linecap="round"/>
<path d="M23.134 41.3978C22.9643 41.8032 22.8605 42.2322 22.8276 42.6659C22.8135 42.8402 22.9454 42.9911 23.1199 43.0006C23.1293 43.0006 23.134 43.0006 23.1434 43.0006H30.8412C31.0157 43.0006 31.1571 42.8639 31.1571 42.6894C31.1571 42.68 31.1571 42.6753 31.1571 42.6659C31.1288 42.2888 31.0439 41.9117 30.9167 41.5581" stroke="white" stroke-width="0.428965" stroke-miterlimit="10" stroke-linecap="round"/>
<path d="M27.0045 21.978C29.3425 21.978 31.2377 20.0827 31.2377 17.7448C31.2377 15.407 29.3425 13.5117 27.0045 13.5117C24.6667 13.5117 22.7715 15.407 22.7715 17.7448C22.7715 20.0827 24.6667 21.978 27.0045 21.978Z" stroke="white" stroke-width="0.617521" stroke-miterlimit="10"/>
<path d="M21.4651 26.811C21.3992 26.9665 21.3474 27.1174 21.2766 27.3342C20.9372 28.3335 21.0362 28.5363 21.0268 28.6305C21.0079 28.8803 21.1965 29.0972 21.4464 29.1114C21.4557 29.1114 21.4699 29.1114 21.4793 29.1114H32.524C32.7738 29.1114 32.9765 28.9134 32.9813 28.6636C32.9813 28.6542 32.9813 28.64 32.9813 28.6305C32.7267 25.5194 30.1293 23.12 27.004 23.12C26.4007 23.1294 25.8019 23.219 25.2174 23.3887C24.8262 23.5113 24.4443 23.6716 24.0861 23.8695C24.0861 23.8695 22.2665 24.8877 21.4651 26.8063V26.811Z" stroke="white" stroke-width="0.617521" stroke-miterlimit="10" stroke-linecap="round"/>
<path d="M20.9324 17.7464C20.8852 14.3948 23.5628 11.6371 26.9143 11.5901C30.2659 11.5429 33.0235 14.2204 33.0707 17.5719C33.0707 17.6285 33.0707 17.6898 33.0707 17.7464" stroke="#FFED00" stroke-width="0.617521" stroke-miterlimit="10" stroke-linecap="round"/>
<path d="M33.7736 17.8971C33.7736 17.5274 33.4738 17.2277 33.1041 17.2277C32.7345 17.2277 32.4348 17.5274 32.4348 17.8971V19.0049C32.4348 19.3746 32.7345 19.6742 33.1041 19.6742C33.4738 19.6742 33.7736 19.3746 33.7736 19.0049V17.8971Z" fill="#FFED00"/>
</svg>
