<svg width="900" height="600" viewBox="0 0 900 600" fill="none" xmlns="http://www.w3.org/2000/svg">
<g clip-path="url(#clip0_292_70)">
<path d="M621.717 389.159H611.248V301.886C611.248 282.018 626.763 265.906 645.893 265.906H729.99V276.779H645.905C632.553 276.779 621.717 288.019 621.717 301.898V389.159Z" fill="white"/>
<path d="M608.731 389.136H598.262V301.874C598.262 274.644 619.519 252.568 645.739 252.568H730.001V263.441H645.751C625.309 263.441 608.743 280.645 608.743 301.874V389.123L608.731 389.136Z" fill="white"/>
<path d="M729.997 290.199V279.326H645.96C633.979 279.326 624.254 289.413 624.254 301.869V312.753H668.447V301.881H634.723C634.723 295.426 639.757 290.199 645.972 290.199H729.997Z" fill="white"/>
<path d="M668.447 328.814H624.254V389.152H634.723V339.687H668.447V328.814Z" fill="white"/>
<path d="M668.447 315.367H624.254V326.24H668.447V315.367Z" fill="white"/>
<path d="M550.357 265.836H498.188C481.527 265.836 468.021 279.862 468.021 297.165V306.969C468.021 317.572 476.293 326.162 486.502 326.162H555.284C559.716 326.162 563.296 329.892 563.296 334.482V344.299C563.296 355.6 554.481 364.755 543.598 364.755H491.429C484.281 364.755 478.491 358.742 478.491 351.318V351.293H468.021V351.318C468.021 364.743 478.502 375.627 491.429 375.627H543.598C560.259 375.627 573.765 361.601 573.765 344.299V334.494C573.765 323.891 565.494 315.302 555.284 315.302H486.502C482.071 315.302 478.491 311.571 478.491 306.982V297.165C478.491 285.863 487.306 276.708 498.188 276.708H550.357C557.506 276.708 563.296 282.721 563.296 290.145H573.765C573.765 276.721 563.284 265.836 550.357 265.836Z" fill="white"/>
<path d="M560.779 290.156C560.779 284.143 556.1 279.283 550.321 279.283H498.259C488.747 279.283 481.043 287.284 481.043 297.162V306.955C481.043 310.133 483.524 312.698 486.573 312.698H555.331C566.923 312.698 576.317 322.454 576.317 334.492V344.284C576.317 363.022 561.689 378.202 543.645 378.202H491.417C477.108 378.202 465.504 366.152 465.504 351.291H455.035C455.035 372.152 471.318 389.062 491.406 389.062H543.645C567.467 389.062 586.775 369.011 586.775 344.272V334.516C586.775 316.477 572.701 301.862 555.331 301.862H491.5V297.15C491.5 293.272 494.525 290.131 498.259 290.131H560.779V290.156Z" fill="white"/>
<path d="M550.404 252.375H498.164C474.343 252.375 455.035 272.426 455.035 297.165V306.97C455.035 325.009 469.108 339.624 486.478 339.624H550.31V344.299C550.31 348.177 547.285 351.318 543.551 351.318H481.031C481.031 357.319 485.71 362.179 491.488 362.179H543.551C553.063 362.179 560.767 354.178 560.767 344.299V334.507C560.767 331.328 558.286 328.764 555.237 328.764H486.478C474.886 328.764 465.493 319.008 465.493 306.97V297.177C465.493 278.439 480.121 263.247 498.164 263.247H550.392C564.702 263.247 576.305 275.298 576.305 290.158H586.775C586.775 269.297 570.492 252.387 550.404 252.387V252.375Z" fill="white"/>
<path d="M443.517 375.678H359.456C340.302 375.678 324.764 359.554 324.764 339.65V301.904C324.764 282.012 340.29 265.875 359.456 265.875H443.517V276.747H359.456C346.08 276.747 335.233 288.012 335.233 301.904V339.662C335.233 353.553 346.08 364.818 359.456 364.818H443.517V375.691V375.678Z" fill="white"/>
<path d="M380.757 315.322H337.77V326.195H380.757V315.322Z" fill="white"/>
<path d="M359.5 290.156H443.525V279.283H359.5C347.506 279.283 337.77 289.382 337.77 301.85V312.747H380.757V301.85H348.239C348.239 295.395 353.284 290.156 359.5 290.156Z" fill="white"/>
<path d="M359.5 351.317C353.284 351.317 348.239 346.077 348.239 339.622H380.757V328.75H337.77V339.622C337.77 352.078 347.494 362.189 359.5 362.189H443.525V351.317H359.5Z" fill="white"/>
<path d="M443.529 389.102H359.42C333.106 389.102 311.777 366.952 311.777 339.624V301.853C311.777 274.525 333.106 252.375 359.42 252.375H443.529V263.247H359.42C338.896 263.247 322.247 280.525 322.247 301.853V339.624C322.247 360.939 338.884 378.229 359.42 378.229H443.529V389.102Z" fill="white"/>
<path d="M181.986 339.624V252.375H192.456V339.624C192.456 353.515 203.291 364.768 216.667 364.768H253.049C266.425 364.768 277.261 353.515 277.261 339.636V252.375H287.73V339.624C287.73 359.516 272.203 375.652 253.037 375.652H216.667C197.513 375.652 181.986 359.528 181.986 339.636V339.624Z" fill="white"/>
<path d="M253.014 362.179H216.691C204.697 362.179 194.973 352.079 194.973 339.624V252.375H205.442V339.612C205.442 346.066 210.487 351.306 216.703 351.306H253.002C259.218 351.306 264.263 346.066 264.263 339.612V252.375H274.732V339.624C274.732 352.079 265.008 362.179 253.014 362.179Z" fill="white"/>
<path d="M253.12 389.089H216.619C190.317 389.089 169 366.952 169 339.636V252.375H179.469V339.624C179.469 360.939 196.106 378.217 216.631 378.217H253.132C273.657 378.217 290.282 360.939 290.282 339.636V252.375H300.751V339.636C300.751 366.952 279.435 389.089 253.132 389.089H253.12Z" fill="white"/>
<path d="M449.294 245.129C441.649 245.129 440.431 238.379 440.431 238.379C426.583 238.379 415.357 226.722 415.357 212.34V156.996H420.084V212.352C420.084 224.01 429.194 233.471 440.42 233.471H445.158V235.925C445.158 238.293 447.013 240.22 449.294 240.22C451.574 240.22 453.429 238.293 453.429 235.925V233.471H458.168C469.393 233.471 478.503 224.022 478.503 212.352V156.996H483.23V212.34C483.23 226.722 472.005 238.379 458.156 238.379C458.156 238.379 456.939 245.129 449.294 245.129Z" fill="white"/>
<path d="M471.988 166.074V212.386C471.988 220.301 465.808 226.719 458.187 226.719H440.368C432.746 226.719 426.566 220.301 426.566 212.386V166.074H421.84V212.951C421.84 223.271 429.887 231.627 439.824 231.627H446.914V235.91C446.914 237.26 447.977 238.364 449.277 238.364C450.577 238.364 451.64 237.26 451.64 235.91V231.627H458.73C468.668 231.627 476.715 223.271 476.715 212.951V166.074H471.988Z" fill="white"/>
<path d="M451.666 177.146H446.939V224.894H451.666V177.146Z" fill="white"/>
<path d="M445.158 188.797H440.432V219.978C436.438 219.978 433.188 216.616 433.188 212.456V175.176H428.344V212.346C428.344 219.279 433.756 224.899 440.432 224.887H445.158V188.797Z" fill="white"/>
<path d="M465.51 175.176V212.468C465.51 216.616 462.272 219.991 458.267 219.991H458.148V188.809H453.422V224.899H458.148C464.825 224.899 470.225 219.279 470.225 212.358V175.176H465.498H465.51Z" fill="white"/>
<path d="M408.279 236.793H169V238.376H408.279H421.832V236.793H408.279Z" fill="white"/>
<path d="M730.017 236.793H478.508V238.376H730.017V236.793Z" fill="white"/>
<path d="M729.988 404.535H169V442.49H729.988V404.535Z" fill="#E51616"/>
<path d="M197.408 426.115C197.408 428.422 196.734 430.189 195.375 431.429C194.016 432.656 192.031 433.269 189.396 433.269C186.761 433.269 184.764 432.656 183.417 431.429C182.07 430.202 181.396 428.434 181.396 426.127V414.188H186.064V425.845C186.064 427.146 186.324 428.103 186.844 428.741C187.364 429.379 188.214 429.698 189.396 429.698C190.578 429.698 191.405 429.392 191.937 428.778C192.468 428.164 192.74 427.195 192.74 425.845V414.188H197.408V426.115Z" fill="white"/>
<path d="M220.51 432.864H214.802L209.426 425.391L208.351 426.778V432.877H203.707V414.188H208.351V422.655L214.779 414.188H220.155L213.125 422.839L220.51 432.877V432.864Z" fill="white"/>
<path d="M242.092 432.877H236.42L231.529 426.029H229.378V432.877H224.758V414.188H232.545C233.608 414.188 234.518 414.249 235.286 414.372C236.054 414.494 236.763 414.764 237.437 415.194C238.11 415.611 238.654 416.151 239.055 416.814C239.457 417.476 239.658 418.311 239.658 419.317C239.658 420.691 239.351 421.82 238.736 422.691C238.122 423.563 237.236 424.287 236.101 424.864L242.104 432.864L242.092 432.877ZM234.849 419.918C234.849 419.452 234.754 419.047 234.577 418.716C234.388 418.384 234.069 418.114 233.62 417.93C233.301 417.795 232.935 417.709 232.521 417.685C232.108 417.66 231.611 417.636 231.056 417.636H229.378V422.667H230.808C231.552 422.667 232.167 422.63 232.663 422.557C233.159 422.483 233.585 422.311 233.915 422.041C234.234 421.783 234.471 421.501 234.624 421.182C234.778 420.863 234.849 420.446 234.849 419.918Z" fill="white"/>
<path d="M262.732 432.877H257.934L256.682 429.097H250.029L248.777 432.877H244.098L250.738 414.188H256.079L262.72 432.877H262.732ZM255.571 425.673L253.362 418.973L251.152 425.673H255.583H255.571Z" fill="white"/>
<path d="M277.044 432.877H266.504V429.563H269.458V417.501H266.504V414.188H277.044V417.501H274.09V429.563H277.044V432.877Z" fill="white"/>
<path d="M299.176 432.877H294.709L287.076 420.053V432.877H282.822V414.188H288.364L294.922 424.888V414.188H299.176V432.877Z" fill="white"/>
<path d="M315.46 432.877H304.92V429.563H307.874V417.501H304.92V414.188H315.46V417.501H312.506V429.563H315.46V432.877Z" fill="white"/>
<path d="M337.843 432.877H333.046L331.793 429.097H325.141L323.888 432.877H319.209L325.85 414.188H331.191L337.831 432.877H337.843ZM330.683 425.673L328.473 418.973L326.263 425.673H330.694H330.683Z" fill="white"/>
<path d="M358.774 432.877H354.307L346.674 420.053V432.877H342.42V414.188H347.962L354.52 424.888V414.188H358.774V432.877Z" fill="white"/>
<path d="M388.82 432.877H375.811V414.188H388.82V417.808H380.419V421.035H388.218V424.643H380.419V429.257H388.82V432.877Z" fill="white"/>
<path d="M409.074 426.987C409.074 428.828 408.318 430.325 406.817 431.478C405.317 432.632 403.272 433.209 400.696 433.209C399.208 433.209 397.908 433.074 396.797 432.804C395.686 432.534 394.647 432.19 393.689 431.773V427.294H394.198C395.155 428.092 396.23 428.705 397.423 429.122C398.617 429.552 399.751 429.76 400.85 429.76C401.134 429.76 401.5 429.736 401.961 429.687C402.422 429.638 402.8 429.552 403.083 429.441C403.438 429.294 403.733 429.098 403.958 428.877C404.182 428.656 404.3 428.312 404.3 427.871C404.3 427.466 404.135 427.11 403.804 426.815C403.473 426.521 402.977 426.288 402.339 426.128C401.665 425.956 400.945 425.809 400.188 425.662C399.432 425.515 398.723 425.331 398.073 425.097C396.561 424.582 395.474 423.895 394.8 423.024C394.138 422.152 393.808 421.06 393.808 419.772C393.808 418.029 394.564 416.606 396.065 415.513C397.565 414.421 399.503 413.869 401.854 413.869C403.036 413.869 404.206 413.992 405.364 414.225C406.522 414.458 407.526 414.765 408.365 415.121V419.428H407.869C407.148 418.827 406.25 418.324 405.21 417.919C404.17 417.514 403.083 417.305 401.984 417.305C401.595 417.305 401.216 417.33 400.826 417.391C400.448 417.44 400.07 417.551 399.716 417.698C399.397 417.82 399.137 418.017 398.9 418.262C398.676 418.52 398.558 418.814 398.558 419.134C398.558 419.624 398.735 420.005 399.101 420.275C399.468 420.532 400.153 420.778 401.157 420.999C401.819 421.146 402.457 421.281 403.06 421.416C403.662 421.551 404.324 421.735 405.021 421.968C406.404 422.435 407.42 423.073 408.07 423.883C408.72 424.692 409.051 425.735 409.051 427.024L409.074 426.987Z" fill="white"/>
<path d="M429.076 420.09C429.076 420.924 428.934 421.747 428.65 422.544C428.367 423.342 427.965 424.017 427.445 424.557C426.724 425.293 425.933 425.845 425.046 426.226C424.16 426.606 423.061 426.79 421.75 426.79H418.866V432.877H414.223V414.188H421.856C423.002 414.188 423.959 414.286 424.751 414.494C425.531 414.703 426.228 415.01 426.831 415.415C427.551 415.905 428.107 416.544 428.497 417.304C428.887 418.065 429.076 418.998 429.076 420.078V420.09ZM424.278 420.2C424.278 419.673 424.136 419.219 423.865 418.838C423.593 418.458 423.274 418.188 422.908 418.041C422.423 417.844 421.95 417.734 421.49 417.709C421.029 417.685 420.414 417.673 419.658 417.673H418.866V423.256H420.19C420.982 423.256 421.631 423.207 422.14 423.109C422.648 423.011 423.085 422.802 423.428 422.507C423.723 422.237 423.947 421.918 424.077 421.55C424.207 421.182 424.278 420.728 424.278 420.188V420.2Z" fill="white"/>
<path d="M451.843 423.53C451.843 426.512 451.015 428.868 449.373 430.623C447.731 432.378 445.462 433.249 442.555 433.249C439.648 433.249 437.391 432.378 435.749 430.623C434.106 428.868 433.279 426.5 433.279 423.53C433.279 420.56 434.106 418.155 435.749 416.413C437.391 414.67 439.66 413.799 442.555 413.799C445.45 413.799 447.707 414.67 449.361 416.413C451.015 418.155 451.843 420.536 451.843 423.53ZM445.686 428.267C446.135 427.702 446.478 427.027 446.691 426.254C446.903 425.481 447.022 424.573 447.022 423.53C447.022 422.413 446.892 421.456 446.643 420.671C446.395 419.885 446.064 419.247 445.663 418.769C445.249 418.266 444.777 417.897 444.245 417.677C443.713 417.456 443.146 417.333 442.567 417.333C441.988 417.333 441.421 417.443 440.901 417.664C440.381 417.885 439.908 418.241 439.471 418.744C439.069 419.21 438.738 419.861 438.49 420.683C438.242 421.505 438.112 422.462 438.112 423.554C438.112 424.647 438.23 425.616 438.478 426.401C438.727 427.187 439.046 427.825 439.447 428.316C439.849 428.807 440.322 429.175 440.865 429.408C441.409 429.641 441.976 429.764 442.567 429.764C443.158 429.764 443.725 429.641 444.268 429.408C444.812 429.175 445.285 428.794 445.686 428.291V428.267Z" fill="white"/>
<path d="M474.719 432.877H469.047L464.155 426.029H462.005V432.877H457.385V414.188H465.172C466.235 414.188 467.145 414.249 467.913 414.372C468.681 414.494 469.39 414.764 470.064 415.194C470.737 415.611 471.281 416.151 471.682 416.814C472.084 417.476 472.285 418.311 472.285 419.317C472.285 420.691 471.978 421.82 471.363 422.691C470.749 423.563 469.863 424.287 468.728 424.864L474.731 432.864L474.719 432.877ZM467.476 419.918C467.476 419.452 467.381 419.047 467.204 418.716C467.015 418.384 466.696 418.114 466.247 417.93C465.928 417.795 465.562 417.709 465.148 417.685C464.734 417.66 464.238 417.636 463.683 417.636H462.005V422.667H463.435C464.179 422.667 464.794 422.63 465.302 422.557C465.798 422.483 466.223 422.311 466.554 422.041C466.873 421.783 467.11 421.501 467.263 421.182C467.417 420.863 467.488 420.446 467.488 419.918H467.476Z" fill="white"/>
<path d="M492.793 417.808H487.169V432.877H482.525V417.808H476.912V414.188H492.793V417.808Z" fill="white"/>
<path d="M538.345 417.808H530.073V421.28H537.742V424.9H530.073V432.877H525.453V414.188H538.345V417.808Z" fill="white"/>
<path d="M556.525 432.877H543.516V414.188H556.525V417.808H548.124V421.035H555.923V424.643H548.124V429.257H556.525V432.877Z" fill="white"/>
<path d="M579.416 423.55C579.416 425.293 579.037 426.851 578.269 428.226C577.501 429.6 576.532 430.656 575.374 431.392C574.5 431.944 573.531 432.324 572.491 432.545C571.44 432.766 570.199 432.877 568.769 432.877H562.424V414.188H568.946C570.412 414.188 571.676 414.31 572.739 414.568C573.803 414.826 574.701 415.181 575.422 415.648C576.662 416.433 577.643 417.488 578.352 418.826C579.061 420.164 579.416 421.734 579.416 423.538V423.55ZM574.618 423.514C574.618 422.287 574.405 421.231 573.968 420.36C573.531 419.489 572.858 418.802 571.924 418.311C571.451 418.065 570.967 417.906 570.471 417.82C569.974 417.734 569.23 417.685 568.226 417.685H567.056V429.379H568.226C569.325 429.379 570.14 429.33 570.66 429.22C571.18 429.122 571.676 428.925 572.172 428.655C573.023 428.152 573.637 427.477 574.039 426.643C574.429 425.808 574.63 424.765 574.63 423.526L574.618 423.514Z" fill="white"/>
<path d="M597.941 432.877H584.932V414.188H597.941V417.808H589.54V421.035H597.339V424.643H589.54V429.257H597.941V432.877Z" fill="white"/>
<path d="M621.153 432.877H615.481L610.589 426.029H608.439V432.877H603.818V414.188H611.605C612.669 414.188 613.579 414.249 614.347 414.372C615.115 414.494 615.824 414.764 616.497 415.194C617.171 415.611 617.714 416.151 618.116 416.814C618.518 417.476 618.719 418.311 618.719 419.317C618.719 420.691 618.411 421.82 617.797 422.691C617.183 423.563 616.296 424.287 615.162 424.864L621.165 432.864L621.153 432.877ZM613.909 419.918C613.909 419.452 613.815 419.047 613.626 418.716C613.437 418.384 613.118 418.114 612.669 417.93C612.35 417.795 611.983 417.709 611.57 417.685C611.156 417.66 610.66 417.636 610.105 417.636H608.427V422.667H609.856C610.601 422.667 611.215 422.63 611.712 422.557C612.208 422.483 612.633 422.311 612.964 422.041C613.283 421.783 613.519 421.501 613.673 421.182C613.827 420.863 613.898 420.446 613.898 419.918H613.909Z" fill="white"/>
<path d="M641.781 432.877H636.983L635.731 429.097H629.078L627.826 432.877H623.146L629.787 414.188H635.128L641.769 432.877H641.781ZM634.62 425.673L632.41 418.973L630.201 425.673H634.632H634.62Z" fill="white"/>
<path d="M657.662 417.808H652.05V432.877H647.406V417.808H641.781V414.188H657.662V417.808Z" fill="white"/>
<path d="M672.413 432.877H661.873V429.563H664.827V417.501H661.873V414.188H672.413V417.501H669.459V429.563H672.413V432.877Z" fill="white"/>
<path d="M695.679 423.53C695.679 426.512 694.851 428.868 693.209 430.623C691.566 432.378 689.298 433.249 686.391 433.249C683.484 433.249 681.227 432.378 679.585 430.623C677.942 428.868 677.115 426.5 677.115 423.53C677.115 420.56 677.942 418.155 679.585 416.413C681.227 414.67 683.496 413.799 686.391 413.799C689.286 413.799 691.543 414.67 693.197 416.413C694.851 418.155 695.679 420.536 695.679 423.53ZM689.522 428.267C689.971 427.702 690.314 427.027 690.527 426.254C690.739 425.481 690.858 424.573 690.858 423.53C690.858 422.413 690.728 421.456 690.479 420.671C690.231 419.885 689.9 419.247 689.499 418.769C689.085 418.266 688.612 417.897 688.081 417.677C687.549 417.456 686.982 417.333 686.403 417.333C685.824 417.333 685.257 417.443 684.737 417.664C684.217 417.885 683.744 418.241 683.307 418.744C682.905 419.21 682.574 419.861 682.326 420.683C682.078 421.505 681.948 422.462 681.948 423.554C681.948 424.647 682.066 425.616 682.314 426.401C682.563 427.187 682.882 427.825 683.283 428.316C683.685 428.807 684.158 429.175 684.701 429.408C685.245 429.641 685.812 429.764 686.403 429.764C686.994 429.764 687.561 429.641 688.104 429.408C688.648 429.175 689.121 428.794 689.522 428.291V428.267Z" fill="white"/>
<path d="M717.574 432.877H713.108L705.475 420.053V432.877H701.221V414.188H706.763L713.321 424.888V414.188H717.574V432.877Z" fill="white"/>
<path d="M511.34 426.99C511.34 428.831 510.584 430.341 509.083 431.494C507.571 432.648 505.527 433.224 502.939 433.224C501.438 433.224 500.138 433.089 499.028 432.819C497.917 432.549 496.877 432.206 495.908 431.776V427.285H496.416C497.373 428.083 498.46 428.696 499.642 429.126C500.836 429.555 501.982 429.764 503.081 429.764C503.364 429.764 503.731 429.739 504.191 429.69C504.652 429.641 505.03 429.555 505.314 429.432C505.668 429.285 505.964 429.089 506.188 428.868C506.413 428.647 506.531 428.303 506.531 427.862C506.531 427.457 506.366 427.101 506.023 426.794C505.692 426.5 505.196 426.266 504.546 426.107C503.872 425.935 503.152 425.788 502.395 425.641C501.639 425.493 500.93 425.309 500.268 425.076C498.744 424.561 497.657 423.874 496.983 422.99C496.322 422.119 495.979 421.027 495.979 419.726C495.979 417.983 496.735 416.56 498.236 415.455C499.737 414.351 501.686 413.799 504.05 413.799C505.231 413.799 506.413 413.922 507.571 414.155C508.729 414.388 509.733 414.695 510.584 415.05V419.37H510.088C509.355 418.769 508.469 418.266 507.417 417.848C506.366 417.431 505.29 417.235 504.191 417.235C503.801 417.235 503.412 417.259 503.033 417.321C502.643 417.37 502.277 417.48 501.923 417.627C501.604 417.75 501.332 417.947 501.107 418.204C500.883 418.462 500.765 418.756 500.765 419.075C500.765 419.566 500.942 419.947 501.308 420.217C501.675 420.474 502.36 420.72 503.364 420.941C504.026 421.088 504.664 421.223 505.278 421.358C505.893 421.493 506.543 421.677 507.252 421.91C508.634 422.376 509.65 423.015 510.312 423.824C510.974 424.634 511.305 425.69 511.305 426.978L511.34 426.99Z" fill="white"/>
</g>
<defs>
<clipPath id="clip0_292_70">
<rect width="561" height="285.479" fill="white" transform="translate(169 157)"/>
</clipPath>
</defs>
</svg>
