<svg width="381" height="381" viewBox="0 0 381 381" fill="none" xmlns="http://www.w3.org/2000/svg">
<path fill-rule="evenodd" clip-rule="evenodd" d="M342.893 100.74C339.72 84.8755 328.615 72.1839 314.337 67.4245C288.953 59.4922 190.593 59.4922 190.593 59.4922C190.593 59.4922 90.6462 59.4922 66.8493 67.4245C52.5712 72.1839 43.0525 84.8755 38.2931 100.74C31.9473 129.296 31.9473 189.582 31.9473 189.582C31.9473 189.582 31.9473 249.867 38.2931 278.423C41.466 294.288 52.5712 306.98 66.8493 311.739C92.2327 319.671 190.593 319.671 190.593 319.671C190.593 319.671 290.54 319.671 314.337 311.739C328.615 306.98 338.134 294.288 342.893 278.423C349.239 249.867 349.239 189.582 349.239 189.582C349.239 189.582 349.239 129.296 342.893 100.74Z" stroke="white" stroke-width="23.8" stroke-linecap="round" stroke-linejoin="round"/>
<path fill-rule="evenodd" clip-rule="evenodd" d="M158.863 237.164L241.359 189.57L158.863 141.977V237.164Z" stroke="white" stroke-width="23.8" stroke-linecap="round" stroke-linejoin="round"/>
</svg>
